G04 #@! TF.GenerationSoftware,KiCad,Pcbnew,(5.0.1)-3*
G04 #@! TF.CreationDate,2018-11-28T16:53:20+01:00*
G04 #@! TF.ProjectId,Board,426F6172642E6B696361645F70636200,rev?*
G04 #@! TF.SameCoordinates,PX4aa8030PY631c184*
G04 #@! TF.FileFunction,Copper,L1,Top,Signal*
G04 #@! TF.FilePolarity,Positive*
%FSLAX46Y46*%
G04 Gerber Fmt 4.6, Leading zero omitted, Abs format (unit mm)*
G04 Created by KiCad (PCBNEW (5.0.1)-3) date 11/28/18 16:53:20*
%MOMM*%
%LPD*%
G01*
G04 APERTURE LIST*
G04 #@! TA.AperFunction,ComponentPad*
%ADD10O,1.600000X1.600000*%
G04 #@! TD*
G04 #@! TA.AperFunction,ComponentPad*
%ADD11C,1.600000*%
G04 #@! TD*
G04 #@! TA.AperFunction,ComponentPad*
%ADD12R,3.000000X3.000000*%
G04 #@! TD*
G04 #@! TA.AperFunction,ComponentPad*
%ADD13C,3.000000*%
G04 #@! TD*
G04 #@! TA.AperFunction,ComponentPad*
%ADD14R,1.700000X1.700000*%
G04 #@! TD*
G04 #@! TA.AperFunction,ComponentPad*
%ADD15O,1.700000X1.700000*%
G04 #@! TD*
G04 #@! TA.AperFunction,ComponentPad*
%ADD16C,1.524000*%
G04 #@! TD*
G04 #@! TA.AperFunction,ComponentPad*
%ADD17R,1.600000X1.600000*%
G04 #@! TD*
G04 #@! TA.AperFunction,ComponentPad*
%ADD18R,3.500000X3.500000*%
G04 #@! TD*
G04 #@! TA.AperFunction,Conductor*
%ADD19C,0.100000*%
G04 #@! TD*
G04 #@! TA.AperFunction,ComponentPad*
%ADD20C,3.500000*%
G04 #@! TD*
G04 #@! TA.AperFunction,ComponentPad*
%ADD21R,2.000000X2.000000*%
G04 #@! TD*
G04 #@! TA.AperFunction,ComponentPad*
%ADD22C,2.000000*%
G04 #@! TD*
G04 #@! TA.AperFunction,ComponentPad*
%ADD23C,4.000000*%
G04 #@! TD*
G04 APERTURE END LIST*
D10*
G04 #@! TO.P,REF\002A\002A,2*
G04 #@! TO.N,N/C*
X53162200Y54394100D03*
D11*
G04 #@! TO.P,REF\002A\002A,1*
X68402200Y54394100D03*
G04 #@! TD*
G04 #@! TO.P,REF\002A\002A,1*
G04 #@! TO.N,N/C*
X21031200Y10706100D03*
D10*
G04 #@! TO.P,REF\002A\002A,2*
X21031200Y25946100D03*
G04 #@! TD*
D12*
G04 #@! TO.P,J3,1*
G04 #@! TO.N,GND*
X5118100Y39890700D03*
D13*
G04 #@! TO.P,J3,2*
G04 #@! TO.N,Net-(J3-Pad2)*
X5118100Y44970700D03*
G04 #@! TD*
D14*
G04 #@! TO.P,enc1,1*
G04 #@! TO.N,BTN*
X3492500Y20993100D03*
D15*
G04 #@! TO.P,enc1,2*
G04 #@! TO.N,ENCB*
X3492500Y23533100D03*
G04 #@! TO.P,enc1,3*
G04 #@! TO.N,ENCA*
X3492500Y26073100D03*
G04 #@! TO.P,enc1,4*
G04 #@! TO.N,GND*
X3492500Y28613100D03*
G04 #@! TO.P,enc1,5*
X3492500Y31153100D03*
G04 #@! TD*
D14*
G04 #@! TO.P,J5,1*
G04 #@! TO.N,GND*
X8864600Y10223500D03*
D15*
G04 #@! TO.P,J5,2*
G04 #@! TO.N,+5V*
X8864600Y7683500D03*
G04 #@! TO.P,J5,3*
G04 #@! TO.N,SDA*
X8864600Y5143500D03*
G04 #@! TO.P,J5,4*
G04 #@! TO.N,SCL*
X8864600Y2603500D03*
G04 #@! TD*
D16*
G04 #@! TO.P,U3,1*
G04 #@! TO.N,GND*
X58623200Y37807900D03*
G04 #@! TO.P,U3,2*
G04 #@! TO.N,scaleDATA*
X58623200Y40347900D03*
G04 #@! TO.P,U3,3*
G04 #@! TO.N,scaleCLK*
X58623200Y42887900D03*
G04 #@! TO.P,U3,4*
G04 #@! TO.N,+5V*
X58623200Y45427900D03*
G04 #@! TO.P,U3,5*
G04 #@! TO.N,Net-(J6-Pad1)*
X84277200Y35521900D03*
G04 #@! TO.P,U3,6*
G04 #@! TO.N,Net-(J6-Pad2)*
X84277200Y38061900D03*
G04 #@! TO.P,U3,7*
G04 #@! TO.N,Net-(J6-Pad3)*
X84277200Y40601900D03*
G04 #@! TO.P,U3,8*
G04 #@! TO.N,Net-(J6-Pad4)*
X84277200Y43141900D03*
G04 #@! TO.P,U3,9*
G04 #@! TO.N,Net-(U3-Pad9)*
X84277200Y45681900D03*
G04 #@! TO.P,U3,10*
G04 #@! TO.N,Net-(U3-Pad10)*
X84277200Y48221900D03*
G04 #@! TD*
D17*
G04 #@! TO.P,A1,1*
G04 #@! TO.N,Net-(A1-Pad1)*
X61937900Y25565100D03*
D10*
G04 #@! TO.P,A1,17*
G04 #@! TO.N,Net-(A1-Pad17)*
X28917900Y10325100D03*
G04 #@! TO.P,A1,2*
G04 #@! TO.N,Net-(A1-Pad2)*
X59397900Y25565100D03*
G04 #@! TO.P,A1,18*
G04 #@! TO.N,Net-(A1-Pad18)*
X31457900Y10325100D03*
G04 #@! TO.P,A1,3*
G04 #@! TO.N,Net-(A1-Pad3)*
X56857900Y25565100D03*
G04 #@! TO.P,A1,19*
G04 #@! TO.N,GND*
X33997900Y10325100D03*
G04 #@! TO.P,A1,4*
X54317900Y25565100D03*
G04 #@! TO.P,A1,20*
X36537900Y10325100D03*
G04 #@! TO.P,A1,5*
G04 #@! TO.N,scannerCLK*
X51777900Y25565100D03*
G04 #@! TO.P,A1,21*
G04 #@! TO.N,Net-(A1-Pad21)*
X39077900Y10325100D03*
G04 #@! TO.P,A1,6*
G04 #@! TO.N,scannerDATA*
X49237900Y25565100D03*
G04 #@! TO.P,A1,22*
G04 #@! TO.N,Net-(A1-Pad22)*
X41617900Y10325100D03*
G04 #@! TO.P,A1,7*
G04 #@! TO.N,scaleDATA*
X46697900Y25565100D03*
G04 #@! TO.P,A1,23*
G04 #@! TO.N,SDA*
X44157900Y10325100D03*
G04 #@! TO.P,A1,8*
G04 #@! TO.N,scaleCLK*
X44157900Y25565100D03*
G04 #@! TO.P,A1,24*
G04 #@! TO.N,SCL*
X46697900Y10325100D03*
G04 #@! TO.P,A1,9*
G04 #@! TO.N,Net-(A1-Pad9)*
X41617900Y25565100D03*
G04 #@! TO.P,A1,25*
G04 #@! TO.N,Net-(A1-Pad25)*
X49237900Y10325100D03*
G04 #@! TO.P,A1,10*
G04 #@! TO.N,Net-(A1-Pad10)*
X39077900Y25565100D03*
G04 #@! TO.P,A1,26*
G04 #@! TO.N,Net-(A1-Pad26)*
X51777900Y10325100D03*
G04 #@! TO.P,A1,11*
G04 #@! TO.N,Net-(A1-Pad11)*
X36537900Y25565100D03*
G04 #@! TO.P,A1,27*
G04 #@! TO.N,+5V*
X54317900Y10325100D03*
G04 #@! TO.P,A1,12*
G04 #@! TO.N,L1*
X33997900Y25565100D03*
G04 #@! TO.P,A1,28*
G04 #@! TO.N,Net-(A1-Pad28)*
X56857900Y10325100D03*
G04 #@! TO.P,A1,13*
G04 #@! TO.N,L2*
X31457900Y25565100D03*
G04 #@! TO.P,A1,29*
G04 #@! TO.N,GND*
X59397900Y10325100D03*
G04 #@! TO.P,A1,14*
G04 #@! TO.N,L3*
X28917900Y25565100D03*
G04 #@! TO.P,A1,30*
G04 #@! TO.N,Net-(A1-Pad30)*
X61937900Y10325100D03*
G04 #@! TO.P,A1,15*
G04 #@! TO.N,L4*
X26377900Y25565100D03*
G04 #@! TO.P,A1,16*
G04 #@! TO.N,Buzzer*
X26377900Y10325100D03*
G04 #@! TD*
D18*
G04 #@! TO.P,J1,1*
G04 #@! TO.N,Net-(F1-Pad1)*
X89992200Y5118100D03*
D19*
G04 #@! TD*
G04 #@! TO.N,GND*
G04 #@! TO.C,J1*
G36*
X96815713Y6864489D02*
X96888518Y6853689D01*
X96959914Y6835805D01*
X97029213Y6811010D01*
X97095748Y6779541D01*
X97158878Y6741702D01*
X97217995Y6697858D01*
X97272530Y6648430D01*
X97321958Y6593895D01*
X97365802Y6534778D01*
X97403641Y6471648D01*
X97435110Y6405113D01*
X97459905Y6335814D01*
X97477789Y6264418D01*
X97488589Y6191613D01*
X97492200Y6118100D01*
X97492200Y4118100D01*
X97488589Y4044587D01*
X97477789Y3971782D01*
X97459905Y3900386D01*
X97435110Y3831087D01*
X97403641Y3764552D01*
X97365802Y3701422D01*
X97321958Y3642305D01*
X97272530Y3587770D01*
X97217995Y3538342D01*
X97158878Y3494498D01*
X97095748Y3456659D01*
X97029213Y3425190D01*
X96959914Y3400395D01*
X96888518Y3382511D01*
X96815713Y3371711D01*
X96742200Y3368100D01*
X95242200Y3368100D01*
X95168687Y3371711D01*
X95095882Y3382511D01*
X95024486Y3400395D01*
X94955187Y3425190D01*
X94888652Y3456659D01*
X94825522Y3494498D01*
X94766405Y3538342D01*
X94711870Y3587770D01*
X94662442Y3642305D01*
X94618598Y3701422D01*
X94580759Y3764552D01*
X94549290Y3831087D01*
X94524495Y3900386D01*
X94506611Y3971782D01*
X94495811Y4044587D01*
X94492200Y4118100D01*
X94492200Y6118100D01*
X94495811Y6191613D01*
X94506611Y6264418D01*
X94524495Y6335814D01*
X94549290Y6405113D01*
X94580759Y6471648D01*
X94618598Y6534778D01*
X94662442Y6593895D01*
X94711870Y6648430D01*
X94766405Y6697858D01*
X94825522Y6741702D01*
X94888652Y6779541D01*
X94955187Y6811010D01*
X95024486Y6835805D01*
X95095882Y6853689D01*
X95168687Y6864489D01*
X95242200Y6868100D01*
X96742200Y6868100D01*
X96815713Y6864489D01*
X96815713Y6864489D01*
G37*
D13*
G04 #@! TO.P,J1,2*
G04 #@! TO.N,GND*
X95992200Y5118100D03*
D19*
G04 #@! TD*
G04 #@! TO.N,N/C*
G04 #@! TO.C,J1*
G36*
X93952965Y11563887D02*
X94037904Y11551287D01*
X94121199Y11530423D01*
X94202048Y11501495D01*
X94279672Y11464781D01*
X94353324Y11420636D01*
X94422294Y11369484D01*
X94485918Y11311818D01*
X94543584Y11248194D01*
X94594736Y11179224D01*
X94638881Y11105572D01*
X94675595Y11027948D01*
X94704523Y10947099D01*
X94725387Y10863804D01*
X94737987Y10778865D01*
X94742200Y10693100D01*
X94742200Y8943100D01*
X94737987Y8857335D01*
X94725387Y8772396D01*
X94704523Y8689101D01*
X94675595Y8608252D01*
X94638881Y8530628D01*
X94594736Y8456976D01*
X94543584Y8388006D01*
X94485918Y8324382D01*
X94422294Y8266716D01*
X94353324Y8215564D01*
X94279672Y8171419D01*
X94202048Y8134705D01*
X94121199Y8105777D01*
X94037904Y8084913D01*
X93952965Y8072313D01*
X93867200Y8068100D01*
X92117200Y8068100D01*
X92031435Y8072313D01*
X91946496Y8084913D01*
X91863201Y8105777D01*
X91782352Y8134705D01*
X91704728Y8171419D01*
X91631076Y8215564D01*
X91562106Y8266716D01*
X91498482Y8324382D01*
X91440816Y8388006D01*
X91389664Y8456976D01*
X91345519Y8530628D01*
X91308805Y8608252D01*
X91279877Y8689101D01*
X91259013Y8772396D01*
X91246413Y8857335D01*
X91242200Y8943100D01*
X91242200Y10693100D01*
X91246413Y10778865D01*
X91259013Y10863804D01*
X91279877Y10947099D01*
X91308805Y11027948D01*
X91345519Y11105572D01*
X91389664Y11179224D01*
X91440816Y11248194D01*
X91498482Y11311818D01*
X91562106Y11369484D01*
X91631076Y11420636D01*
X91704728Y11464781D01*
X91782352Y11501495D01*
X91863201Y11530423D01*
X91946496Y11551287D01*
X92031435Y11563887D01*
X92117200Y11568100D01*
X93867200Y11568100D01*
X93952965Y11563887D01*
X93952965Y11563887D01*
G37*
D20*
G04 #@! TO.P,J1,3*
G04 #@! TO.N,N/C*
X92992200Y9818100D03*
G04 #@! TD*
D21*
G04 #@! TO.P,U1,1*
G04 #@! TO.N,+24V*
X81051400Y14935200D03*
D22*
G04 #@! TO.P,U1,2*
G04 #@! TO.N,GND*
X78511400Y14935200D03*
G04 #@! TO.P,U1,3*
G04 #@! TO.N,+5V*
X75971400Y14935200D03*
G04 #@! TD*
D13*
G04 #@! TO.P,J2,4*
G04 #@! TO.N,Net-(J2-Pad4)*
X5092700Y67005200D03*
D12*
G04 #@! TO.P,J2,1*
G04 #@! TO.N,Net-(J2-Pad1)*
X5092700Y51765200D03*
D13*
G04 #@! TO.P,J2,3*
G04 #@! TO.N,Net-(J2-Pad3)*
X5092700Y61925200D03*
G04 #@! TO.P,J2,2*
G04 #@! TO.N,Net-(J2-Pad2)*
X5092700Y56845200D03*
G04 #@! TD*
G04 #@! TO.P,J6,2*
G04 #@! TO.N,Net-(J6-Pad2)*
X95516700Y39370000D03*
G04 #@! TO.P,J6,3*
G04 #@! TO.N,Net-(J6-Pad3)*
X95516700Y44450000D03*
D12*
G04 #@! TO.P,J6,1*
G04 #@! TO.N,Net-(J6-Pad1)*
X95516700Y34290000D03*
D13*
G04 #@! TO.P,J6,4*
G04 #@! TO.N,Net-(J6-Pad4)*
X95516700Y49530000D03*
G04 #@! TD*
D17*
G04 #@! TO.P,J4,1*
G04 #@! TO.N,GND*
X48717200Y62014100D03*
D11*
G04 #@! TO.P,J4,2*
G04 #@! TO.N,Net-(J4-Pad2)*
X51487200Y62014100D03*
G04 #@! TO.P,J4,3*
G04 #@! TO.N,+5V*
X54257200Y62014100D03*
G04 #@! TO.P,J4,4*
G04 #@! TO.N,Net-(J4-Pad4)*
X57027200Y62014100D03*
G04 #@! TO.P,J4,5*
G04 #@! TO.N,Net-(J4-Pad5)*
X59797200Y62014100D03*
G04 #@! TO.P,J4,6*
G04 #@! TO.N,Net-(J4-Pad6)*
X50102200Y64854100D03*
G04 #@! TO.P,J4,7*
G04 #@! TO.N,scannerCLK*
X52872200Y64854100D03*
G04 #@! TO.P,J4,8*
G04 #@! TO.N,Net-(J4-Pad8)*
X55642200Y64854100D03*
G04 #@! TO.P,J4,9*
G04 #@! TO.N,scannerDATA*
X58412200Y64854100D03*
D23*
G04 #@! TO.P,J4,0*
G04 #@! TO.N,Net-(J4-Pad0)*
X66757200Y63434100D03*
X41757200Y63434100D03*
G04 #@! TD*
D17*
G04 #@! TO.P,RN3,1*
G04 #@! TO.N,GND*
X20993100Y31457900D03*
D10*
G04 #@! TO.P,RN3,2*
G04 #@! TO.N,Buzzer*
X23533100Y31457900D03*
G04 #@! TO.P,RN3,3*
G04 #@! TO.N,L4*
X26073100Y31457900D03*
G04 #@! TO.P,RN3,4*
G04 #@! TO.N,L3*
X28613100Y31457900D03*
G04 #@! TO.P,RN3,5*
G04 #@! TO.N,L2*
X31153100Y31457900D03*
G04 #@! TO.P,RN3,6*
G04 #@! TO.N,L1*
X33693100Y31457900D03*
G04 #@! TD*
G04 #@! TO.P,RN2,6*
G04 #@! TO.N,PullupsBuzzer*
X28321000Y54368700D03*
G04 #@! TO.P,RN2,5*
G04 #@! TO.N,PullupsL4*
X28321000Y56908700D03*
G04 #@! TO.P,RN2,4*
G04 #@! TO.N,PullupsL3*
X28321000Y59448700D03*
G04 #@! TO.P,RN2,3*
G04 #@! TO.N,PullupsL2*
X28321000Y61988700D03*
G04 #@! TO.P,RN2,2*
G04 #@! TO.N,PullupsL1*
X28321000Y64528700D03*
D17*
G04 #@! TO.P,RN2,1*
G04 #@! TO.N,+24V*
X28321000Y67068700D03*
G04 #@! TD*
G04 #@! TO.P,RN1,1*
G04 #@! TO.N,+5V*
X8483600Y19329400D03*
D10*
G04 #@! TO.P,RN1,2*
G04 #@! TO.N,BTN*
X8483600Y21869400D03*
G04 #@! TO.P,RN1,3*
G04 #@! TO.N,ENCB*
X8483600Y24409400D03*
G04 #@! TO.P,RN1,4*
G04 #@! TO.N,ENCA*
X8483600Y26949400D03*
G04 #@! TO.P,RN1,5*
G04 #@! TO.N,Net-(RN1-Pad5)*
X8483600Y29489400D03*
G04 #@! TO.P,RN1,6*
G04 #@! TO.N,Net-(RN1-Pad6)*
X8483600Y32029400D03*
G04 #@! TD*
G04 #@! TO.P,REF\002A\002A,2*
G04 #@! TO.N,N/C*
X17602200Y25819100D03*
D11*
G04 #@! TO.P,REF\002A\002A,1*
X17602200Y10579100D03*
G04 #@! TD*
M02*
