G04 #@! TF.GenerationSoftware,KiCad,Pcbnew,(5.0.1)-3*
G04 #@! TF.CreationDate,2018-11-29T18:52:30+01:00*
G04 #@! TF.ProjectId,Board,426F6172642E6B696361645F70636200,rev?*
G04 #@! TF.SameCoordinates,Original*
G04 #@! TF.FileFunction,Copper,L1,Top,Signal*
G04 #@! TF.FilePolarity,Positive*
%FSLAX46Y46*%
G04 Gerber Fmt 4.6, Leading zero omitted, Abs format (unit mm)*
G04 Created by KiCad (PCBNEW (5.0.1)-3) date 11/29/18 18:52:30*
%MOMM*%
%LPD*%
G01*
G04 APERTURE LIST*
G04 #@! TA.AperFunction,ComponentPad*
%ADD10O,2.400000X2.400000*%
G04 #@! TD*
G04 #@! TA.AperFunction,ComponentPad*
%ADD11C,2.400000*%
G04 #@! TD*
G04 #@! TA.AperFunction,ComponentPad*
%ADD12R,3.000000X3.000000*%
G04 #@! TD*
G04 #@! TA.AperFunction,ComponentPad*
%ADD13C,3.000000*%
G04 #@! TD*
G04 #@! TA.AperFunction,ComponentPad*
%ADD14R,1.700000X1.700000*%
G04 #@! TD*
G04 #@! TA.AperFunction,ComponentPad*
%ADD15O,1.700000X1.700000*%
G04 #@! TD*
G04 #@! TA.AperFunction,ComponentPad*
%ADD16C,1.524000*%
G04 #@! TD*
G04 #@! TA.AperFunction,ComponentPad*
%ADD17R,1.600000X1.600000*%
G04 #@! TD*
G04 #@! TA.AperFunction,ComponentPad*
%ADD18O,1.600000X1.600000*%
G04 #@! TD*
G04 #@! TA.AperFunction,ComponentPad*
%ADD19R,2.000000X2.000000*%
G04 #@! TD*
G04 #@! TA.AperFunction,ComponentPad*
%ADD20C,2.000000*%
G04 #@! TD*
G04 #@! TA.AperFunction,ComponentPad*
%ADD21C,1.600000*%
G04 #@! TD*
G04 #@! TA.AperFunction,ComponentPad*
%ADD22C,4.000000*%
G04 #@! TD*
G04 APERTURE END LIST*
D10*
G04 #@! TO.P,JP1,2*
G04 #@! TO.N,Net-(A1-Pad16)*
X104686590Y-96683878D03*
D11*
G04 #@! TO.P,JP1,1*
G04 #@! TO.N,Buzzer*
X104686590Y-71283878D03*
G04 #@! TD*
G04 #@! TO.P,JP2,1*
G04 #@! TO.N,+5V*
X154089590Y-72299878D03*
D10*
G04 #@! TO.P,JP2,2*
X128689590Y-72299878D03*
G04 #@! TD*
D12*
G04 #@! TO.P,J1,1*
G04 #@! TO.N,GND*
X159042590Y-98969878D03*
D13*
G04 #@! TO.P,J1,2*
G04 #@! TO.N,Net-(F1-Pad1)*
X164122590Y-98969878D03*
G04 #@! TD*
D12*
G04 #@! TO.P,J3,1*
G04 #@! TO.N,GND*
X83477590Y-73950878D03*
D13*
G04 #@! TO.P,J3,2*
G04 #@! TO.N,Net-(J3-Pad2)*
X83477590Y-68870878D03*
G04 #@! TD*
D14*
G04 #@! TO.P,enc1,1*
G04 #@! TO.N,ENCA*
X81445590Y-80681878D03*
D15*
G04 #@! TO.P,enc1,2*
G04 #@! TO.N,ENCB*
X81445590Y-83221878D03*
G04 #@! TO.P,enc1,3*
G04 #@! TO.N,BTN*
X81445590Y-85761878D03*
G04 #@! TO.P,enc1,4*
G04 #@! TO.N,Net-(enc1-Pad4)*
X81445590Y-88301878D03*
G04 #@! TO.P,enc1,5*
G04 #@! TO.N,+5V*
X81445590Y-90841878D03*
G04 #@! TD*
D14*
G04 #@! TO.P,J5,1*
G04 #@! TO.N,GND*
X93129590Y-101382878D03*
D15*
G04 #@! TO.P,J5,2*
G04 #@! TO.N,+5V*
X93129590Y-98842878D03*
G04 #@! TO.P,J5,3*
G04 #@! TO.N,SDA*
X93129590Y-96302878D03*
G04 #@! TO.P,J5,4*
G04 #@! TO.N,SCL*
X93129590Y-93762878D03*
G04 #@! TD*
D16*
G04 #@! TO.P,U3,1*
G04 #@! TO.N,GND*
X136017000Y-62433200D03*
G04 #@! TO.P,U3,2*
G04 #@! TO.N,scaleDATA*
X136017000Y-59893200D03*
G04 #@! TO.P,U3,3*
G04 #@! TO.N,scaleCLK*
X136017000Y-57353200D03*
G04 #@! TO.P,U3,4*
G04 #@! TO.N,+5V*
X136017000Y-54813200D03*
G04 #@! TO.P,U3,5*
G04 #@! TO.N,Net-(J6-Pad1)*
X161671000Y-64719200D03*
G04 #@! TO.P,U3,6*
G04 #@! TO.N,Net-(J6-Pad2)*
X161671000Y-62179200D03*
G04 #@! TO.P,U3,7*
G04 #@! TO.N,Net-(J6-Pad3)*
X161671000Y-59639200D03*
G04 #@! TO.P,U3,8*
G04 #@! TO.N,Net-(J6-Pad4)*
X161671000Y-57099200D03*
G04 #@! TO.P,U3,9*
G04 #@! TO.N,Net-(U3-Pad9)*
X161671000Y-54559200D03*
G04 #@! TO.P,U3,10*
G04 #@! TO.N,Net-(U3-Pad10)*
X161671000Y-52019200D03*
G04 #@! TD*
D17*
G04 #@! TO.P,A1,1*
G04 #@! TO.N,Net-(A1-Pad1)*
X150787590Y-78268878D03*
D18*
G04 #@! TO.P,A1,17*
G04 #@! TO.N,Net-(A1-Pad17)*
X117767590Y-93508878D03*
G04 #@! TO.P,A1,2*
G04 #@! TO.N,Net-(A1-Pad2)*
X148247590Y-78268878D03*
G04 #@! TO.P,A1,18*
G04 #@! TO.N,Net-(A1-Pad18)*
X120307590Y-93508878D03*
G04 #@! TO.P,A1,3*
G04 #@! TO.N,Net-(A1-Pad3)*
X145707590Y-78268878D03*
G04 #@! TO.P,A1,19*
G04 #@! TO.N,GND*
X122847590Y-93508878D03*
G04 #@! TO.P,A1,4*
X143167590Y-78268878D03*
G04 #@! TO.P,A1,20*
X125387590Y-93508878D03*
G04 #@! TO.P,A1,5*
G04 #@! TO.N,scannerCLK*
X140627590Y-78268878D03*
G04 #@! TO.P,A1,21*
G04 #@! TO.N,Net-(A1-Pad21)*
X127927590Y-93508878D03*
G04 #@! TO.P,A1,6*
G04 #@! TO.N,scannerDATA*
X138087590Y-78268878D03*
G04 #@! TO.P,A1,22*
G04 #@! TO.N,Net-(A1-Pad22)*
X130467590Y-93508878D03*
G04 #@! TO.P,A1,7*
G04 #@! TO.N,scaleDATA*
X135547590Y-78268878D03*
G04 #@! TO.P,A1,23*
G04 #@! TO.N,SDA*
X133007590Y-93508878D03*
G04 #@! TO.P,A1,8*
G04 #@! TO.N,scaleCLK*
X133007590Y-78268878D03*
G04 #@! TO.P,A1,24*
G04 #@! TO.N,SCL*
X135547590Y-93508878D03*
G04 #@! TO.P,A1,9*
G04 #@! TO.N,Net-(A1-Pad9)*
X130467590Y-78268878D03*
G04 #@! TO.P,A1,25*
G04 #@! TO.N,Net-(A1-Pad25)*
X138087590Y-93508878D03*
G04 #@! TO.P,A1,10*
G04 #@! TO.N,Net-(A1-Pad10)*
X127927590Y-78268878D03*
G04 #@! TO.P,A1,26*
G04 #@! TO.N,Net-(A1-Pad26)*
X140627590Y-93508878D03*
G04 #@! TO.P,A1,11*
G04 #@! TO.N,Net-(A1-Pad11)*
X125387590Y-78268878D03*
G04 #@! TO.P,A1,27*
G04 #@! TO.N,+5V*
X143167590Y-93508878D03*
G04 #@! TO.P,A1,12*
G04 #@! TO.N,L1*
X122847590Y-78268878D03*
G04 #@! TO.P,A1,28*
G04 #@! TO.N,Net-(A1-Pad28)*
X145707590Y-93508878D03*
G04 #@! TO.P,A1,13*
G04 #@! TO.N,L2*
X120307590Y-78268878D03*
G04 #@! TO.P,A1,29*
G04 #@! TO.N,GND*
X148247590Y-93508878D03*
G04 #@! TO.P,A1,14*
G04 #@! TO.N,L3*
X117767590Y-78268878D03*
G04 #@! TO.P,A1,30*
G04 #@! TO.N,Net-(A1-Pad30)*
X150787590Y-93508878D03*
G04 #@! TO.P,A1,15*
G04 #@! TO.N,L4*
X115227590Y-78268878D03*
G04 #@! TO.P,A1,16*
G04 #@! TO.N,Net-(A1-Pad16)*
X115227590Y-93508878D03*
G04 #@! TD*
D19*
G04 #@! TO.P,U1,1*
G04 #@! TO.N,+24V*
X160820590Y-85126878D03*
D20*
G04 #@! TO.P,U1,2*
G04 #@! TO.N,GND*
X160820590Y-82586878D03*
G04 #@! TO.P,U1,3*
G04 #@! TO.N,+5V*
X160820590Y-80046878D03*
G04 #@! TD*
D13*
G04 #@! TO.P,J2,4*
G04 #@! TO.N,Net-(J2-Pad4)*
X83477590Y-48042878D03*
D12*
G04 #@! TO.P,J2,1*
G04 #@! TO.N,Net-(J2-Pad1)*
X83477590Y-63282878D03*
D13*
G04 #@! TO.P,J2,3*
G04 #@! TO.N,Net-(J2-Pad3)*
X83477590Y-53122878D03*
G04 #@! TO.P,J2,2*
G04 #@! TO.N,Net-(J2-Pad2)*
X83477590Y-58202878D03*
G04 #@! TD*
G04 #@! TO.P,J6,2*
G04 #@! TO.N,Net-(J6-Pad2)*
X172250590Y-60615878D03*
G04 #@! TO.P,J6,3*
G04 #@! TO.N,Net-(J6-Pad3)*
X172250590Y-55535878D03*
D12*
G04 #@! TO.P,J6,1*
G04 #@! TO.N,Net-(J6-Pad1)*
X172250590Y-65695878D03*
D13*
G04 #@! TO.P,J6,4*
G04 #@! TO.N,Net-(J6-Pad4)*
X172250590Y-50455878D03*
G04 #@! TD*
D17*
G04 #@! TO.P,J4,1*
G04 #@! TO.N,GND*
X126238000Y-41656000D03*
D21*
G04 #@! TO.P,J4,2*
G04 #@! TO.N,Net-(J4-Pad2)*
X129008000Y-41656000D03*
G04 #@! TO.P,J4,3*
G04 #@! TO.N,+5V*
X131778000Y-41656000D03*
G04 #@! TO.P,J4,4*
G04 #@! TO.N,Net-(J4-Pad4)*
X134548000Y-41656000D03*
G04 #@! TO.P,J4,5*
G04 #@! TO.N,Net-(J4-Pad5)*
X137318000Y-41656000D03*
G04 #@! TO.P,J4,6*
G04 #@! TO.N,Net-(J4-Pad6)*
X127623000Y-38816000D03*
G04 #@! TO.P,J4,7*
G04 #@! TO.N,scannerCLK*
X130393000Y-38816000D03*
G04 #@! TO.P,J4,8*
G04 #@! TO.N,Net-(J4-Pad8)*
X133163000Y-38816000D03*
G04 #@! TO.P,J4,9*
G04 #@! TO.N,scannerDATA*
X135933000Y-38816000D03*
D22*
G04 #@! TO.P,J4,0*
G04 #@! TO.N,GND*
X144278000Y-40236000D03*
X119278000Y-40236000D03*
G04 #@! TD*
D17*
G04 #@! TO.P,RN3,1*
G04 #@! TO.N,GND*
X112179590Y-71918878D03*
D18*
G04 #@! TO.P,RN3,2*
G04 #@! TO.N,Buzzer*
X114719590Y-71918878D03*
G04 #@! TO.P,RN3,3*
G04 #@! TO.N,L4*
X117259590Y-71918878D03*
G04 #@! TO.P,RN3,4*
G04 #@! TO.N,L3*
X119799590Y-71918878D03*
G04 #@! TO.P,RN3,5*
G04 #@! TO.N,L2*
X122339590Y-71918878D03*
G04 #@! TO.P,RN3,6*
G04 #@! TO.N,L1*
X124879590Y-71918878D03*
G04 #@! TD*
G04 #@! TO.P,RN2,6*
G04 #@! TO.N,PullupsBuzzer*
X100888800Y-66954400D03*
G04 #@! TO.P,RN2,5*
G04 #@! TO.N,PullupsL4*
X100888800Y-64414400D03*
G04 #@! TO.P,RN2,4*
G04 #@! TO.N,PullupsL3*
X100888800Y-61874400D03*
G04 #@! TO.P,RN2,3*
G04 #@! TO.N,PullupsL2*
X100888800Y-59334400D03*
G04 #@! TO.P,RN2,2*
G04 #@! TO.N,PullupsL1*
X100888800Y-56794400D03*
D17*
G04 #@! TO.P,RN2,1*
G04 #@! TO.N,+24V*
X100888800Y-54254400D03*
G04 #@! TD*
G04 #@! TO.P,RN1,1*
G04 #@! TO.N,GND*
X93129590Y-77252878D03*
D18*
G04 #@! TO.P,RN1,2*
G04 #@! TO.N,ENCA*
X93129590Y-79792878D03*
G04 #@! TO.P,RN1,3*
G04 #@! TO.N,ENCB*
X93129590Y-82332878D03*
G04 #@! TO.P,RN1,4*
G04 #@! TO.N,BTN*
X93129590Y-84872878D03*
G04 #@! TO.P,RN1,5*
G04 #@! TO.N,Net-(RN1-Pad5)*
X93129590Y-87412878D03*
G04 #@! TO.P,RN1,6*
G04 #@! TO.N,Net-(RN1-Pad6)*
X93129590Y-89952878D03*
G04 #@! TD*
M02*
