M48
;DRILL file {KiCad (5.0.1)-3} date 11/28/18 16:53:29
;FORMAT={-:-/ absolute / metric / decimal}
FMAT,2
METRIC,TZ
T1C0.762
T2C0.800
T3C1.000
T4C1.520
T5C3.200
T6C3.200
%
G90
G05
M71
T1
X58.623Y45.428
X58.623Y42.888
X58.623Y40.348
X58.623Y37.808
X84.277Y48.222
X84.277Y45.682
X84.277Y43.142
X84.277Y40.602
X84.277Y38.062
X84.277Y35.522
T2
X8.484Y32.029
X8.484Y29.489
X8.484Y26.949
X8.484Y24.409
X8.484Y21.869
X8.484Y19.329
X17.602Y25.819
X17.602Y10.579
X21.031Y25.946
X21.031Y10.706
X26.378Y25.565
X26.378Y10.325
X28.918Y25.565
X28.918Y10.325
X31.458Y25.565
X31.458Y10.325
X33.998Y25.565
X33.998Y10.325
X36.538Y25.565
X36.538Y10.325
X39.078Y25.565
X39.078Y10.325
X41.618Y25.565
X41.618Y10.325
X44.158Y25.565
X44.158Y10.325
X46.698Y25.565
X46.698Y10.325
X49.238Y25.565
X49.238Y10.325
X51.778Y25.565
X51.778Y10.325
X54.318Y25.565
X54.318Y10.325
X56.858Y25.565
X56.858Y10.325
X59.398Y25.565
X59.398Y10.325
X61.938Y25.565
X61.938Y10.325
X28.321Y67.069
X28.321Y64.529
X28.321Y61.989
X28.321Y59.449
X28.321Y56.909
X28.321Y54.369
X20.993Y31.458
X23.533Y31.458
X26.073Y31.458
X28.613Y31.458
X31.153Y31.458
X33.693Y31.458
X53.162Y54.394
X68.402Y54.394
T3
X48.717Y62.014
X50.102Y64.854
X51.487Y62.014
X52.872Y64.854
X54.257Y62.014
X55.642Y64.854
X57.027Y62.014
X58.412Y64.854
X59.797Y62.014
X75.971Y14.935
X78.511Y14.935
X81.051Y14.935
X8.865Y10.223
X8.865Y7.683
X8.865Y5.143
X8.865Y2.603
X3.492Y31.153
X3.492Y28.613
X3.492Y26.073
X3.492Y23.533
X3.492Y20.993
T4
X95.517Y49.53
X95.517Y44.45
X95.517Y39.37
X95.517Y34.29
X5.118Y44.971
X5.118Y39.891
X5.093Y67.005
X5.093Y61.925
X5.093Y56.845
X5.093Y51.765
T5
X41.757Y63.434
X66.757Y63.434
T6
X91.63Y64.249
X14.237Y31.344
X47.32Y49.581
X81.801Y25.946
T3
X89.992Y4.118G85X89.992Y6.118
G05
X93.992Y9.818G85X91.992Y9.818
G05
X95.992Y4.118G85X95.992Y6.118
G05
T0
M30
