G04 #@! TF.GenerationSoftware,KiCad,Pcbnew,(5.0.1)-3*
G04 #@! TF.CreationDate,2018-11-29T18:52:30+01:00*
G04 #@! TF.ProjectId,Board,426F6172642E6B696361645F70636200,rev?*
G04 #@! TF.SameCoordinates,Original*
G04 #@! TF.FileFunction,Legend,Top*
G04 #@! TF.FilePolarity,Positive*
%FSLAX46Y46*%
G04 Gerber Fmt 4.6, Leading zero omitted, Abs format (unit mm)*
G04 Created by KiCad (PCBNEW (5.0.1)-3) date 11/29/18 18:52:30*
%MOMM*%
%LPD*%
G01*
G04 APERTURE LIST*
%ADD10C,0.120000*%
%ADD11C,0.150000*%
%ADD12C,0.100000*%
G04 APERTURE END LIST*
D10*
G04 #@! TO.C,JP1*
X104686590Y-95243878D02*
X104686590Y-94103878D01*
X104686590Y-72723878D02*
X104686590Y-73863878D01*
X108006590Y-94103878D02*
X108006590Y-73863878D01*
X101366590Y-94103878D02*
X108006590Y-94103878D01*
X101366590Y-73863878D02*
X101366590Y-94103878D01*
X108006590Y-73863878D02*
X101366590Y-73863878D01*
G04 #@! TO.C,JP2*
X151509590Y-75619878D02*
X151509590Y-68979878D01*
X151509590Y-68979878D02*
X131269590Y-68979878D01*
X131269590Y-68979878D02*
X131269590Y-75619878D01*
X131269590Y-75619878D02*
X151509590Y-75619878D01*
X152649590Y-72299878D02*
X151509590Y-72299878D01*
X130129590Y-72299878D02*
X131269590Y-72299878D01*
G04 #@! TO.C,J1*
X166662590Y-101509878D02*
X156502590Y-101509878D01*
X166662590Y-102779878D02*
X166662590Y-95159878D01*
X166662590Y-95159878D02*
X156502590Y-95159878D01*
X156502590Y-95159878D02*
X156502590Y-102779878D01*
X156502590Y-102779878D02*
X166662590Y-102779878D01*
G04 #@! TO.C,J3*
X86017590Y-66330878D02*
X86017590Y-76490878D01*
X87287590Y-66330878D02*
X79667590Y-66330878D01*
X79667590Y-66330878D02*
X79667590Y-76490878D01*
X79667590Y-76490878D02*
X87287590Y-76490878D01*
X87287590Y-76490878D02*
X87287590Y-66330878D01*
G04 #@! TO.C,enc1*
X80115590Y-81951878D02*
X82775590Y-81951878D01*
X80115590Y-81951878D02*
X80115590Y-92171878D01*
X80115590Y-92171878D02*
X82775590Y-92171878D01*
X82775590Y-81951878D02*
X82775590Y-92171878D01*
X82775590Y-79351878D02*
X82775590Y-80681878D01*
X81445590Y-79351878D02*
X82775590Y-79351878D01*
G04 #@! TO.C,J5*
X94459590Y-100112878D02*
X91799590Y-100112878D01*
X94459590Y-100112878D02*
X94459590Y-92432878D01*
X94459590Y-92432878D02*
X91799590Y-92432878D01*
X91799590Y-100112878D02*
X91799590Y-92432878D01*
X91799590Y-102712878D02*
X91799590Y-101382878D01*
X93129590Y-102712878D02*
X91799590Y-102712878D01*
D11*
G04 #@! TO.C,U3*
X166497000Y-68783200D02*
X132497000Y-68783200D01*
X132497000Y-68783200D02*
X132497000Y-47783200D01*
X132497000Y-47783200D02*
X166497000Y-47783200D01*
X166497000Y-47783200D02*
X166497000Y-68783200D01*
D10*
G04 #@! TO.C,A1*
X149517590Y-79538878D02*
X152057590Y-79538878D01*
X152057590Y-79538878D02*
X152057590Y-76868878D01*
X149517590Y-76868878D02*
X111287590Y-76868878D01*
X154727590Y-76868878D02*
X152057590Y-76868878D01*
X152057590Y-92238878D02*
X152057590Y-94908878D01*
X152057590Y-92238878D02*
X113957590Y-92238878D01*
X113957590Y-92238878D02*
X113957590Y-94908878D01*
X149517590Y-79538878D02*
X149517590Y-76868878D01*
X149517590Y-79538878D02*
X113957590Y-79538878D01*
X113957590Y-79538878D02*
X113957590Y-76868878D01*
X111287590Y-76868878D02*
X111287590Y-94908878D01*
X111287590Y-94908878D02*
X154727590Y-94908878D01*
X154727590Y-94908878D02*
X154727590Y-76868878D01*
D12*
G04 #@! TO.C,U1*
X167770590Y-88476878D02*
X167270590Y-88476878D01*
X167770590Y-88476878D02*
X167770590Y-87976878D01*
X167770590Y-76726878D02*
X167770590Y-77226878D01*
X167770590Y-76726878D02*
X167270590Y-76726878D01*
X158570590Y-88476878D02*
X159070590Y-88476878D01*
X158570590Y-88476878D02*
X158570590Y-87976878D01*
X158520590Y-76726878D02*
X158520590Y-77226878D01*
X158520590Y-76726878D02*
X159020590Y-76726878D01*
D10*
G04 #@! TO.C,J2*
X87287590Y-65822878D02*
X87287590Y-45502878D01*
X79667590Y-65822878D02*
X79667590Y-45502878D01*
X86017590Y-45502878D02*
X86017590Y-65822878D01*
X87287590Y-45502878D02*
X79667590Y-45502878D01*
X79667590Y-65822878D02*
X87287590Y-65822878D01*
G04 #@! TO.C,J6*
X168440590Y-68235878D02*
X176060590Y-68235878D01*
X176060590Y-47915878D02*
X168440590Y-47915878D01*
X174790590Y-47915878D02*
X174790590Y-68235878D01*
X168440590Y-68235878D02*
X168440590Y-47915878D01*
X176060590Y-68235878D02*
X176060590Y-47915878D01*
G04 #@! TO.C,J4*
X147263000Y-31176000D02*
X147263000Y-43516000D01*
X147263000Y-43516000D02*
X116293000Y-43516000D01*
X116293000Y-43516000D02*
X116293000Y-31176000D01*
X126488000Y-44410338D02*
X125988000Y-44410338D01*
X125988000Y-44410338D02*
X126238000Y-43977325D01*
X126238000Y-43977325D02*
X126488000Y-44410338D01*
G04 #@! TO.C,RN3*
X110739590Y-70518878D02*
X110739590Y-73318878D01*
X110739590Y-73318878D02*
X126319590Y-73318878D01*
X126319590Y-73318878D02*
X126319590Y-70518878D01*
X126319590Y-70518878D02*
X110739590Y-70518878D01*
X113449590Y-70518878D02*
X113449590Y-73318878D01*
G04 #@! TO.C,RN2*
X102288800Y-55524400D02*
X99488800Y-55524400D01*
X102288800Y-68394400D02*
X102288800Y-52814400D01*
X99488800Y-68394400D02*
X102288800Y-68394400D01*
X99488800Y-52814400D02*
X99488800Y-68394400D01*
X102288800Y-52814400D02*
X99488800Y-52814400D01*
G04 #@! TO.C,RN1*
X94529590Y-75812878D02*
X91729590Y-75812878D01*
X91729590Y-75812878D02*
X91729590Y-91392878D01*
X91729590Y-91392878D02*
X94529590Y-91392878D01*
X94529590Y-91392878D02*
X94529590Y-75812878D01*
X94529590Y-78522878D02*
X91729590Y-78522878D01*
G04 #@! TO.C,JP1*
D11*
X108458970Y-84817211D02*
X109173256Y-84817211D01*
X109316113Y-84864830D01*
X109411351Y-84960068D01*
X109458970Y-85102925D01*
X109458970Y-85198163D01*
X109458970Y-84341020D02*
X108458970Y-84341020D01*
X108458970Y-83960068D01*
X108506590Y-83864830D01*
X108554209Y-83817211D01*
X108649447Y-83769592D01*
X108792304Y-83769592D01*
X108887542Y-83817211D01*
X108935161Y-83864830D01*
X108982780Y-83960068D01*
X108982780Y-84341020D01*
X109458970Y-82817211D02*
X109458970Y-83388639D01*
X109458970Y-83102925D02*
X108458970Y-83102925D01*
X108601828Y-83198163D01*
X108697066Y-83293401D01*
X108744685Y-83388639D01*
G04 #@! TO.C,JP2*
X140556256Y-76072258D02*
X140556256Y-76786544D01*
X140508637Y-76929401D01*
X140413399Y-77024639D01*
X140270542Y-77072258D01*
X140175304Y-77072258D01*
X141032447Y-77072258D02*
X141032447Y-76072258D01*
X141413399Y-76072258D01*
X141508637Y-76119878D01*
X141556256Y-76167497D01*
X141603875Y-76262735D01*
X141603875Y-76405592D01*
X141556256Y-76500830D01*
X141508637Y-76548449D01*
X141413399Y-76596068D01*
X141032447Y-76596068D01*
X141984828Y-76167497D02*
X142032447Y-76119878D01*
X142127685Y-76072258D01*
X142365780Y-76072258D01*
X142461018Y-76119878D01*
X142508637Y-76167497D01*
X142556256Y-76262735D01*
X142556256Y-76357973D01*
X142508637Y-76500830D01*
X141937209Y-77072258D01*
X142556256Y-77072258D01*
G04 #@! TO.C,J1*
X161249256Y-93342258D02*
X161249256Y-94056544D01*
X161201637Y-94199401D01*
X161106399Y-94294639D01*
X160963542Y-94342258D01*
X160868304Y-94342258D01*
X162249256Y-94342258D02*
X161677828Y-94342258D01*
X161963542Y-94342258D02*
X161963542Y-93342258D01*
X161868304Y-93485116D01*
X161773066Y-93580354D01*
X161677828Y-93627973D01*
G04 #@! TO.C,H2*
X169620685Y-92456258D02*
X169620685Y-91456258D01*
X169620685Y-91932449D02*
X170192113Y-91932449D01*
X170192113Y-92456258D02*
X170192113Y-91456258D01*
X170620685Y-91551497D02*
X170668304Y-91503878D01*
X170763542Y-91456258D01*
X171001637Y-91456258D01*
X171096875Y-91503878D01*
X171144494Y-91551497D01*
X171192113Y-91646735D01*
X171192113Y-91741973D01*
X171144494Y-91884830D01*
X170573066Y-92456258D01*
X171192113Y-92456258D01*
X84620685Y-92456258D02*
X84620685Y-91456258D01*
X84620685Y-91932449D02*
X85192113Y-91932449D01*
X85192113Y-92456258D02*
X85192113Y-91456258D01*
X85620685Y-91551497D02*
X85668304Y-91503878D01*
X85763542Y-91456258D01*
X86001637Y-91456258D01*
X86096875Y-91503878D01*
X86144494Y-91551497D01*
X86192113Y-91646735D01*
X86192113Y-91741973D01*
X86144494Y-91884830D01*
X85573066Y-92456258D01*
X86192113Y-92456258D01*
X169620685Y-37456258D02*
X169620685Y-36456258D01*
X169620685Y-36932449D02*
X170192113Y-36932449D01*
X170192113Y-37456258D02*
X170192113Y-36456258D01*
X170620685Y-36551497D02*
X170668304Y-36503878D01*
X170763542Y-36456258D01*
X171001637Y-36456258D01*
X171096875Y-36503878D01*
X171144494Y-36551497D01*
X171192113Y-36646735D01*
X171192113Y-36741973D01*
X171144494Y-36884830D01*
X170573066Y-37456258D01*
X171192113Y-37456258D01*
G04 #@! TO.C,J3*
X77849970Y-71744211D02*
X78564256Y-71744211D01*
X78707113Y-71791830D01*
X78802351Y-71887068D01*
X78849970Y-72029925D01*
X78849970Y-72125163D01*
X77849970Y-71363258D02*
X77849970Y-70744211D01*
X78230923Y-71077544D01*
X78230923Y-70934687D01*
X78278542Y-70839449D01*
X78326161Y-70791830D01*
X78421399Y-70744211D01*
X78659494Y-70744211D01*
X78754732Y-70791830D01*
X78802351Y-70839449D01*
X78849970Y-70934687D01*
X78849970Y-71220401D01*
X78802351Y-71315639D01*
X78754732Y-71363258D01*
G04 #@! TO.C,enc1*
X80278923Y-78316639D02*
X80183685Y-78364258D01*
X79993209Y-78364258D01*
X79897970Y-78316639D01*
X79850351Y-78221401D01*
X79850351Y-77840449D01*
X79897970Y-77745211D01*
X79993209Y-77697592D01*
X80183685Y-77697592D01*
X80278923Y-77745211D01*
X80326542Y-77840449D01*
X80326542Y-77935687D01*
X79850351Y-78030925D01*
X80755113Y-77697592D02*
X80755113Y-78364258D01*
X80755113Y-77792830D02*
X80802732Y-77745211D01*
X80897970Y-77697592D01*
X81040828Y-77697592D01*
X81136066Y-77745211D01*
X81183685Y-77840449D01*
X81183685Y-78364258D01*
X82088447Y-78316639D02*
X81993209Y-78364258D01*
X81802732Y-78364258D01*
X81707494Y-78316639D01*
X81659875Y-78269020D01*
X81612256Y-78173782D01*
X81612256Y-77888068D01*
X81659875Y-77792830D01*
X81707494Y-77745211D01*
X81802732Y-77697592D01*
X81993209Y-77697592D01*
X82088447Y-77745211D01*
X83040828Y-78364258D02*
X82469399Y-78364258D01*
X82755113Y-78364258D02*
X82755113Y-77364258D01*
X82659875Y-77507116D01*
X82564637Y-77602354D01*
X82469399Y-77649973D01*
G04 #@! TO.C,J5*
X92796256Y-103605258D02*
X92796256Y-104319544D01*
X92748637Y-104462401D01*
X92653399Y-104557639D01*
X92510542Y-104605258D01*
X92415304Y-104605258D01*
X93748637Y-103605258D02*
X93272447Y-103605258D01*
X93224828Y-104081449D01*
X93272447Y-104033830D01*
X93367685Y-103986211D01*
X93605780Y-103986211D01*
X93701018Y-104033830D01*
X93748637Y-104081449D01*
X93796256Y-104176687D01*
X93796256Y-104414782D01*
X93748637Y-104510020D01*
X93701018Y-104557639D01*
X93605780Y-104605258D01*
X93367685Y-104605258D01*
X93272447Y-104557639D01*
X93224828Y-104510020D01*
G04 #@! TO.C,H2*
X84620685Y-37456258D02*
X84620685Y-36456258D01*
X84620685Y-36932449D02*
X85192113Y-36932449D01*
X85192113Y-37456258D02*
X85192113Y-36456258D01*
X85620685Y-36551497D02*
X85668304Y-36503878D01*
X85763542Y-36456258D01*
X86001637Y-36456258D01*
X86096875Y-36503878D01*
X86144494Y-36551497D01*
X86192113Y-36646735D01*
X86192113Y-36741973D01*
X86144494Y-36884830D01*
X85573066Y-37456258D01*
X86192113Y-37456258D01*
G04 #@! TO.C,U3*
X162485095Y-74985580D02*
X162485095Y-75795104D01*
X162532714Y-75890342D01*
X162580333Y-75937961D01*
X162675571Y-75985580D01*
X162866047Y-75985580D01*
X162961285Y-75937961D01*
X163008904Y-75890342D01*
X163056523Y-75795104D01*
X163056523Y-74985580D01*
X163437476Y-74985580D02*
X164056523Y-74985580D01*
X163723190Y-75366533D01*
X163866047Y-75366533D01*
X163961285Y-75414152D01*
X164008904Y-75461771D01*
X164056523Y-75557009D01*
X164056523Y-75795104D01*
X164008904Y-75890342D01*
X163961285Y-75937961D01*
X163866047Y-75985580D01*
X163580333Y-75985580D01*
X163485095Y-75937961D01*
X163437476Y-75890342D01*
G04 #@! TO.C,A1*
X156034256Y-86603163D02*
X156034256Y-86126973D01*
X156319970Y-86698401D02*
X155319970Y-86365068D01*
X156319970Y-86031735D01*
X156319970Y-85174592D02*
X156319970Y-85746020D01*
X156319970Y-85460306D02*
X155319970Y-85460306D01*
X155462828Y-85555544D01*
X155558066Y-85650782D01*
X155605685Y-85746020D01*
G04 #@! TO.C,U1*
X157152970Y-82978782D02*
X157962494Y-82978782D01*
X158057732Y-82931163D01*
X158105351Y-82883544D01*
X158152970Y-82788306D01*
X158152970Y-82597830D01*
X158105351Y-82502592D01*
X158057732Y-82454973D01*
X157962494Y-82407354D01*
X157152970Y-82407354D01*
X158152970Y-81407354D02*
X158152970Y-81978782D01*
X158152970Y-81693068D02*
X157152970Y-81693068D01*
X157295828Y-81788306D01*
X157391066Y-81883544D01*
X157438685Y-81978782D01*
G04 #@! TO.C,J2*
X78129970Y-56016211D02*
X78844256Y-56016211D01*
X78987113Y-56063830D01*
X79082351Y-56159068D01*
X79129970Y-56301925D01*
X79129970Y-56397163D01*
X78225209Y-55587639D02*
X78177590Y-55540020D01*
X78129970Y-55444782D01*
X78129970Y-55206687D01*
X78177590Y-55111449D01*
X78225209Y-55063830D01*
X78320447Y-55016211D01*
X78415685Y-55016211D01*
X78558542Y-55063830D01*
X79129970Y-55635258D01*
X79129970Y-55016211D01*
G04 #@! TO.C,J6*
X166902970Y-58429211D02*
X167617256Y-58429211D01*
X167760113Y-58476830D01*
X167855351Y-58572068D01*
X167902970Y-58714925D01*
X167902970Y-58810163D01*
X166902970Y-57524449D02*
X166902970Y-57714925D01*
X166950590Y-57810163D01*
X166998209Y-57857782D01*
X167141066Y-57953020D01*
X167331542Y-58000639D01*
X167712494Y-58000639D01*
X167807732Y-57953020D01*
X167855351Y-57905401D01*
X167902970Y-57810163D01*
X167902970Y-57619687D01*
X167855351Y-57524449D01*
X167807732Y-57476830D01*
X167712494Y-57429211D01*
X167474399Y-57429211D01*
X167379161Y-57476830D01*
X167331542Y-57524449D01*
X167283923Y-57619687D01*
X167283923Y-57810163D01*
X167331542Y-57905401D01*
X167379161Y-57953020D01*
X167474399Y-58000639D01*
G04 #@! TO.C,J4*
X131444666Y-43908380D02*
X131444666Y-44622666D01*
X131397047Y-44765523D01*
X131301809Y-44860761D01*
X131158952Y-44908380D01*
X131063714Y-44908380D01*
X132349428Y-44241714D02*
X132349428Y-44908380D01*
X132111333Y-43860761D02*
X131873238Y-44575047D01*
X132492285Y-44575047D01*
G04 #@! TO.C,RN3*
X119109113Y-69971258D02*
X118775780Y-69495068D01*
X118537685Y-69971258D02*
X118537685Y-68971258D01*
X118918637Y-68971258D01*
X119013875Y-69018878D01*
X119061494Y-69066497D01*
X119109113Y-69161735D01*
X119109113Y-69304592D01*
X119061494Y-69399830D01*
X119013875Y-69447449D01*
X118918637Y-69495068D01*
X118537685Y-69495068D01*
X119537685Y-69971258D02*
X119537685Y-68971258D01*
X120109113Y-69971258D01*
X120109113Y-68971258D01*
X120490066Y-68971258D02*
X121109113Y-68971258D01*
X120775780Y-69352211D01*
X120918637Y-69352211D01*
X121013875Y-69399830D01*
X121061494Y-69447449D01*
X121109113Y-69542687D01*
X121109113Y-69780782D01*
X121061494Y-69876020D01*
X121013875Y-69923639D01*
X120918637Y-69971258D01*
X120632923Y-69971258D01*
X120537685Y-69923639D01*
X120490066Y-69876020D01*
G04 #@! TO.C,RN2*
X103741180Y-62564876D02*
X103264990Y-62898209D01*
X103741180Y-63136304D02*
X102741180Y-63136304D01*
X102741180Y-62755352D01*
X102788800Y-62660114D01*
X102836419Y-62612495D01*
X102931657Y-62564876D01*
X103074514Y-62564876D01*
X103169752Y-62612495D01*
X103217371Y-62660114D01*
X103264990Y-62755352D01*
X103264990Y-63136304D01*
X103741180Y-62136304D02*
X102741180Y-62136304D01*
X103741180Y-61564876D01*
X102741180Y-61564876D01*
X102836419Y-61136304D02*
X102788800Y-61088685D01*
X102741180Y-60993447D01*
X102741180Y-60755352D01*
X102788800Y-60660114D01*
X102836419Y-60612495D01*
X102931657Y-60564876D01*
X103026895Y-60564876D01*
X103169752Y-60612495D01*
X103741180Y-61183923D01*
X103741180Y-60564876D01*
G04 #@! TO.C,RN1*
X95981970Y-85563354D02*
X95505780Y-85896687D01*
X95981970Y-86134782D02*
X94981970Y-86134782D01*
X94981970Y-85753830D01*
X95029590Y-85658592D01*
X95077209Y-85610973D01*
X95172447Y-85563354D01*
X95315304Y-85563354D01*
X95410542Y-85610973D01*
X95458161Y-85658592D01*
X95505780Y-85753830D01*
X95505780Y-86134782D01*
X95981970Y-85134782D02*
X94981970Y-85134782D01*
X95981970Y-84563354D01*
X94981970Y-84563354D01*
X95981970Y-83563354D02*
X95981970Y-84134782D01*
X95981970Y-83849068D02*
X94981970Y-83849068D01*
X95124828Y-83944306D01*
X95220066Y-84039544D01*
X95267685Y-84134782D01*
G04 #@! TD*
M02*
