G04 #@! TF.GenerationSoftware,KiCad,Pcbnew,(5.0.1)-3*
G04 #@! TF.CreationDate,2018-11-29T18:52:30+01:00*
G04 #@! TF.ProjectId,Board,426F6172642E6B696361645F70636200,rev?*
G04 #@! TF.SameCoordinates,Original*
G04 #@! TF.FileFunction,Paste,Bot*
G04 #@! TF.FilePolarity,Positive*
%FSLAX46Y46*%
G04 Gerber Fmt 4.6, Leading zero omitted, Abs format (unit mm)*
G04 Created by KiCad (PCBNEW (5.0.1)-3) date 11/29/18 18:52:30*
%MOMM*%
%LPD*%
G01*
G04 APERTURE LIST*
%ADD10R,1.900000X0.800000*%
%ADD11R,1.550000X0.600000*%
%ADD12C,0.100000*%
%ADD13C,1.150000*%
%ADD14R,3.500000X2.300000*%
%ADD15C,2.100000*%
%ADD16C,1.600000*%
%ADD17R,1.500000X0.600000*%
G04 APERTURE END LIST*
D10*
G04 #@! TO.C,Q3*
X109663590Y-56170878D03*
X112663590Y-57120878D03*
X112663590Y-55220878D03*
G04 #@! TD*
G04 #@! TO.C,Q2*
X112687590Y-51217878D03*
X112687590Y-53117878D03*
X109687590Y-52167878D03*
G04 #@! TD*
G04 #@! TO.C,Q5*
X109663590Y-59980878D03*
X112663590Y-60930878D03*
X112663590Y-59030878D03*
G04 #@! TD*
G04 #@! TO.C,Q6*
X112663590Y-62713878D03*
X112663590Y-64613878D03*
X109663590Y-63663878D03*
G04 #@! TD*
D11*
G04 #@! TO.C,Q4*
X89540590Y-59599878D03*
X89540590Y-60869878D03*
X89540590Y-62139878D03*
X89540590Y-63409878D03*
X94940590Y-63409878D03*
X94940590Y-62139878D03*
X94940590Y-60869878D03*
X94940590Y-59599878D03*
G04 #@! TD*
G04 #@! TO.C,Q1*
X95067590Y-48677878D03*
X95067590Y-49947878D03*
X95067590Y-51217878D03*
X95067590Y-52487878D03*
X89667590Y-52487878D03*
X89667590Y-51217878D03*
X89667590Y-49947878D03*
X89667590Y-48677878D03*
G04 #@! TD*
G04 #@! TO.C,Q7*
X95194590Y-68489878D03*
X95194590Y-69759878D03*
X95194590Y-71029878D03*
X95194590Y-72299878D03*
X89794590Y-72299878D03*
X89794590Y-71029878D03*
X89794590Y-69759878D03*
X89794590Y-68489878D03*
G04 #@! TD*
D10*
G04 #@! TO.C,Q8*
X112663590Y-66650878D03*
X112663590Y-68550878D03*
X109663590Y-67600878D03*
G04 #@! TD*
D12*
G04 #@! TO.C,R7*
G36*
X133482095Y-96101082D02*
X133506363Y-96104682D01*
X133530162Y-96110643D01*
X133553261Y-96118908D01*
X133575440Y-96129398D01*
X133596483Y-96142010D01*
X133616189Y-96156625D01*
X133634367Y-96173101D01*
X133650843Y-96191279D01*
X133665458Y-96210985D01*
X133678070Y-96232028D01*
X133688560Y-96254207D01*
X133696825Y-96277306D01*
X133702786Y-96301105D01*
X133706386Y-96325373D01*
X133707590Y-96349877D01*
X133707590Y-96999879D01*
X133706386Y-97024383D01*
X133702786Y-97048651D01*
X133696825Y-97072450D01*
X133688560Y-97095549D01*
X133678070Y-97117728D01*
X133665458Y-97138771D01*
X133650843Y-97158477D01*
X133634367Y-97176655D01*
X133616189Y-97193131D01*
X133596483Y-97207746D01*
X133575440Y-97220358D01*
X133553261Y-97230848D01*
X133530162Y-97239113D01*
X133506363Y-97245074D01*
X133482095Y-97248674D01*
X133457591Y-97249878D01*
X132557589Y-97249878D01*
X132533085Y-97248674D01*
X132508817Y-97245074D01*
X132485018Y-97239113D01*
X132461919Y-97230848D01*
X132439740Y-97220358D01*
X132418697Y-97207746D01*
X132398991Y-97193131D01*
X132380813Y-97176655D01*
X132364337Y-97158477D01*
X132349722Y-97138771D01*
X132337110Y-97117728D01*
X132326620Y-97095549D01*
X132318355Y-97072450D01*
X132312394Y-97048651D01*
X132308794Y-97024383D01*
X132307590Y-96999879D01*
X132307590Y-96349877D01*
X132308794Y-96325373D01*
X132312394Y-96301105D01*
X132318355Y-96277306D01*
X132326620Y-96254207D01*
X132337110Y-96232028D01*
X132349722Y-96210985D01*
X132364337Y-96191279D01*
X132380813Y-96173101D01*
X132398991Y-96156625D01*
X132418697Y-96142010D01*
X132439740Y-96129398D01*
X132461919Y-96118908D01*
X132485018Y-96110643D01*
X132508817Y-96104682D01*
X132533085Y-96101082D01*
X132557589Y-96099878D01*
X133457591Y-96099878D01*
X133482095Y-96101082D01*
X133482095Y-96101082D01*
G37*
D13*
X133007590Y-96674878D03*
D12*
G36*
X133482095Y-98151082D02*
X133506363Y-98154682D01*
X133530162Y-98160643D01*
X133553261Y-98168908D01*
X133575440Y-98179398D01*
X133596483Y-98192010D01*
X133616189Y-98206625D01*
X133634367Y-98223101D01*
X133650843Y-98241279D01*
X133665458Y-98260985D01*
X133678070Y-98282028D01*
X133688560Y-98304207D01*
X133696825Y-98327306D01*
X133702786Y-98351105D01*
X133706386Y-98375373D01*
X133707590Y-98399877D01*
X133707590Y-99049879D01*
X133706386Y-99074383D01*
X133702786Y-99098651D01*
X133696825Y-99122450D01*
X133688560Y-99145549D01*
X133678070Y-99167728D01*
X133665458Y-99188771D01*
X133650843Y-99208477D01*
X133634367Y-99226655D01*
X133616189Y-99243131D01*
X133596483Y-99257746D01*
X133575440Y-99270358D01*
X133553261Y-99280848D01*
X133530162Y-99289113D01*
X133506363Y-99295074D01*
X133482095Y-99298674D01*
X133457591Y-99299878D01*
X132557589Y-99299878D01*
X132533085Y-99298674D01*
X132508817Y-99295074D01*
X132485018Y-99289113D01*
X132461919Y-99280848D01*
X132439740Y-99270358D01*
X132418697Y-99257746D01*
X132398991Y-99243131D01*
X132380813Y-99226655D01*
X132364337Y-99208477D01*
X132349722Y-99188771D01*
X132337110Y-99167728D01*
X132326620Y-99145549D01*
X132318355Y-99122450D01*
X132312394Y-99098651D01*
X132308794Y-99074383D01*
X132307590Y-99049879D01*
X132307590Y-98399877D01*
X132308794Y-98375373D01*
X132312394Y-98351105D01*
X132318355Y-98327306D01*
X132326620Y-98304207D01*
X132337110Y-98282028D01*
X132349722Y-98260985D01*
X132364337Y-98241279D01*
X132380813Y-98223101D01*
X132398991Y-98206625D01*
X132418697Y-98192010D01*
X132439740Y-98179398D01*
X132461919Y-98168908D01*
X132485018Y-98160643D01*
X132508817Y-98154682D01*
X132533085Y-98151082D01*
X132557589Y-98149878D01*
X133457591Y-98149878D01*
X133482095Y-98151082D01*
X133482095Y-98151082D01*
G37*
D13*
X133007590Y-98724878D03*
G04 #@! TD*
D12*
G04 #@! TO.C,R6*
G36*
X136022095Y-98151082D02*
X136046363Y-98154682D01*
X136070162Y-98160643D01*
X136093261Y-98168908D01*
X136115440Y-98179398D01*
X136136483Y-98192010D01*
X136156189Y-98206625D01*
X136174367Y-98223101D01*
X136190843Y-98241279D01*
X136205458Y-98260985D01*
X136218070Y-98282028D01*
X136228560Y-98304207D01*
X136236825Y-98327306D01*
X136242786Y-98351105D01*
X136246386Y-98375373D01*
X136247590Y-98399877D01*
X136247590Y-99049879D01*
X136246386Y-99074383D01*
X136242786Y-99098651D01*
X136236825Y-99122450D01*
X136228560Y-99145549D01*
X136218070Y-99167728D01*
X136205458Y-99188771D01*
X136190843Y-99208477D01*
X136174367Y-99226655D01*
X136156189Y-99243131D01*
X136136483Y-99257746D01*
X136115440Y-99270358D01*
X136093261Y-99280848D01*
X136070162Y-99289113D01*
X136046363Y-99295074D01*
X136022095Y-99298674D01*
X135997591Y-99299878D01*
X135097589Y-99299878D01*
X135073085Y-99298674D01*
X135048817Y-99295074D01*
X135025018Y-99289113D01*
X135001919Y-99280848D01*
X134979740Y-99270358D01*
X134958697Y-99257746D01*
X134938991Y-99243131D01*
X134920813Y-99226655D01*
X134904337Y-99208477D01*
X134889722Y-99188771D01*
X134877110Y-99167728D01*
X134866620Y-99145549D01*
X134858355Y-99122450D01*
X134852394Y-99098651D01*
X134848794Y-99074383D01*
X134847590Y-99049879D01*
X134847590Y-98399877D01*
X134848794Y-98375373D01*
X134852394Y-98351105D01*
X134858355Y-98327306D01*
X134866620Y-98304207D01*
X134877110Y-98282028D01*
X134889722Y-98260985D01*
X134904337Y-98241279D01*
X134920813Y-98223101D01*
X134938991Y-98206625D01*
X134958697Y-98192010D01*
X134979740Y-98179398D01*
X135001919Y-98168908D01*
X135025018Y-98160643D01*
X135048817Y-98154682D01*
X135073085Y-98151082D01*
X135097589Y-98149878D01*
X135997591Y-98149878D01*
X136022095Y-98151082D01*
X136022095Y-98151082D01*
G37*
D13*
X135547590Y-98724878D03*
D12*
G36*
X136022095Y-96101082D02*
X136046363Y-96104682D01*
X136070162Y-96110643D01*
X136093261Y-96118908D01*
X136115440Y-96129398D01*
X136136483Y-96142010D01*
X136156189Y-96156625D01*
X136174367Y-96173101D01*
X136190843Y-96191279D01*
X136205458Y-96210985D01*
X136218070Y-96232028D01*
X136228560Y-96254207D01*
X136236825Y-96277306D01*
X136242786Y-96301105D01*
X136246386Y-96325373D01*
X136247590Y-96349877D01*
X136247590Y-96999879D01*
X136246386Y-97024383D01*
X136242786Y-97048651D01*
X136236825Y-97072450D01*
X136228560Y-97095549D01*
X136218070Y-97117728D01*
X136205458Y-97138771D01*
X136190843Y-97158477D01*
X136174367Y-97176655D01*
X136156189Y-97193131D01*
X136136483Y-97207746D01*
X136115440Y-97220358D01*
X136093261Y-97230848D01*
X136070162Y-97239113D01*
X136046363Y-97245074D01*
X136022095Y-97248674D01*
X135997591Y-97249878D01*
X135097589Y-97249878D01*
X135073085Y-97248674D01*
X135048817Y-97245074D01*
X135025018Y-97239113D01*
X135001919Y-97230848D01*
X134979740Y-97220358D01*
X134958697Y-97207746D01*
X134938991Y-97193131D01*
X134920813Y-97176655D01*
X134904337Y-97158477D01*
X134889722Y-97138771D01*
X134877110Y-97117728D01*
X134866620Y-97095549D01*
X134858355Y-97072450D01*
X134852394Y-97048651D01*
X134848794Y-97024383D01*
X134847590Y-96999879D01*
X134847590Y-96349877D01*
X134848794Y-96325373D01*
X134852394Y-96301105D01*
X134858355Y-96277306D01*
X134866620Y-96254207D01*
X134877110Y-96232028D01*
X134889722Y-96210985D01*
X134904337Y-96191279D01*
X134920813Y-96173101D01*
X134938991Y-96156625D01*
X134958697Y-96142010D01*
X134979740Y-96129398D01*
X135001919Y-96118908D01*
X135025018Y-96110643D01*
X135048817Y-96104682D01*
X135073085Y-96101082D01*
X135097589Y-96099878D01*
X135997591Y-96099878D01*
X136022095Y-96101082D01*
X136022095Y-96101082D01*
G37*
D13*
X135547590Y-96674878D03*
G04 #@! TD*
D14*
G04 #@! TO.C,D1*
X155265590Y-86396878D03*
X149865590Y-86396878D03*
G04 #@! TD*
D12*
G04 #@! TO.C,F1*
G36*
X166495094Y-94030082D02*
X166519363Y-94033682D01*
X166543161Y-94039643D01*
X166566261Y-94047908D01*
X166588439Y-94058398D01*
X166609483Y-94071011D01*
X166629188Y-94085625D01*
X166647367Y-94102101D01*
X166663843Y-94120280D01*
X166678457Y-94139985D01*
X166691070Y-94161029D01*
X166701560Y-94183207D01*
X166709825Y-94206307D01*
X166715786Y-94230105D01*
X166719386Y-94254374D01*
X166720590Y-94278878D01*
X166720590Y-95878878D01*
X166719386Y-95903382D01*
X166715786Y-95927651D01*
X166709825Y-95951449D01*
X166701560Y-95974549D01*
X166691070Y-95996727D01*
X166678457Y-96017771D01*
X166663843Y-96037476D01*
X166647367Y-96055655D01*
X166629188Y-96072131D01*
X166609483Y-96086745D01*
X166588439Y-96099358D01*
X166566261Y-96109848D01*
X166543161Y-96118113D01*
X166519363Y-96124074D01*
X166495094Y-96127674D01*
X166470590Y-96128878D01*
X161520590Y-96128878D01*
X161496086Y-96127674D01*
X161471817Y-96124074D01*
X161448019Y-96118113D01*
X161424919Y-96109848D01*
X161402741Y-96099358D01*
X161381697Y-96086745D01*
X161361992Y-96072131D01*
X161343813Y-96055655D01*
X161327337Y-96037476D01*
X161312723Y-96017771D01*
X161300110Y-95996727D01*
X161289620Y-95974549D01*
X161281355Y-95951449D01*
X161275394Y-95927651D01*
X161271794Y-95903382D01*
X161270590Y-95878878D01*
X161270590Y-94278878D01*
X161271794Y-94254374D01*
X161275394Y-94230105D01*
X161281355Y-94206307D01*
X161289620Y-94183207D01*
X161300110Y-94161029D01*
X161312723Y-94139985D01*
X161327337Y-94120280D01*
X161343813Y-94102101D01*
X161361992Y-94085625D01*
X161381697Y-94071011D01*
X161402741Y-94058398D01*
X161424919Y-94047908D01*
X161448019Y-94039643D01*
X161471817Y-94033682D01*
X161496086Y-94030082D01*
X161520590Y-94028878D01*
X166470590Y-94028878D01*
X166495094Y-94030082D01*
X166495094Y-94030082D01*
G37*
D15*
X163995590Y-95078878D03*
D12*
G36*
X166495094Y-87080082D02*
X166519363Y-87083682D01*
X166543161Y-87089643D01*
X166566261Y-87097908D01*
X166588439Y-87108398D01*
X166609483Y-87121011D01*
X166629188Y-87135625D01*
X166647367Y-87152101D01*
X166663843Y-87170280D01*
X166678457Y-87189985D01*
X166691070Y-87211029D01*
X166701560Y-87233207D01*
X166709825Y-87256307D01*
X166715786Y-87280105D01*
X166719386Y-87304374D01*
X166720590Y-87328878D01*
X166720590Y-88928878D01*
X166719386Y-88953382D01*
X166715786Y-88977651D01*
X166709825Y-89001449D01*
X166701560Y-89024549D01*
X166691070Y-89046727D01*
X166678457Y-89067771D01*
X166663843Y-89087476D01*
X166647367Y-89105655D01*
X166629188Y-89122131D01*
X166609483Y-89136745D01*
X166588439Y-89149358D01*
X166566261Y-89159848D01*
X166543161Y-89168113D01*
X166519363Y-89174074D01*
X166495094Y-89177674D01*
X166470590Y-89178878D01*
X161520590Y-89178878D01*
X161496086Y-89177674D01*
X161471817Y-89174074D01*
X161448019Y-89168113D01*
X161424919Y-89159848D01*
X161402741Y-89149358D01*
X161381697Y-89136745D01*
X161361992Y-89122131D01*
X161343813Y-89105655D01*
X161327337Y-89087476D01*
X161312723Y-89067771D01*
X161300110Y-89046727D01*
X161289620Y-89024549D01*
X161281355Y-89001449D01*
X161275394Y-88977651D01*
X161271794Y-88953382D01*
X161270590Y-88928878D01*
X161270590Y-87328878D01*
X161271794Y-87304374D01*
X161275394Y-87280105D01*
X161281355Y-87256307D01*
X161289620Y-87233207D01*
X161300110Y-87211029D01*
X161312723Y-87189985D01*
X161327337Y-87170280D01*
X161343813Y-87152101D01*
X161361992Y-87135625D01*
X161381697Y-87121011D01*
X161402741Y-87108398D01*
X161424919Y-87097908D01*
X161448019Y-87089643D01*
X161471817Y-87083682D01*
X161496086Y-87080082D01*
X161520590Y-87078878D01*
X166470590Y-87078878D01*
X166495094Y-87080082D01*
X166495094Y-87080082D01*
G37*
D15*
X163995590Y-88128878D03*
G04 #@! TD*
D12*
G04 #@! TO.C,R2*
G36*
X104658305Y-58610204D02*
X104682573Y-58613804D01*
X104706372Y-58619765D01*
X104729471Y-58628030D01*
X104751650Y-58638520D01*
X104772693Y-58651132D01*
X104792399Y-58665747D01*
X104810577Y-58682223D01*
X104827053Y-58700401D01*
X104841668Y-58720107D01*
X104854280Y-58741150D01*
X104864770Y-58763329D01*
X104873035Y-58786428D01*
X104878996Y-58810227D01*
X104882596Y-58834495D01*
X104883800Y-58858999D01*
X104883800Y-59759001D01*
X104882596Y-59783505D01*
X104878996Y-59807773D01*
X104873035Y-59831572D01*
X104864770Y-59854671D01*
X104854280Y-59876850D01*
X104841668Y-59897893D01*
X104827053Y-59917599D01*
X104810577Y-59935777D01*
X104792399Y-59952253D01*
X104772693Y-59966868D01*
X104751650Y-59979480D01*
X104729471Y-59989970D01*
X104706372Y-59998235D01*
X104682573Y-60004196D01*
X104658305Y-60007796D01*
X104633801Y-60009000D01*
X103983799Y-60009000D01*
X103959295Y-60007796D01*
X103935027Y-60004196D01*
X103911228Y-59998235D01*
X103888129Y-59989970D01*
X103865950Y-59979480D01*
X103844907Y-59966868D01*
X103825201Y-59952253D01*
X103807023Y-59935777D01*
X103790547Y-59917599D01*
X103775932Y-59897893D01*
X103763320Y-59876850D01*
X103752830Y-59854671D01*
X103744565Y-59831572D01*
X103738604Y-59807773D01*
X103735004Y-59783505D01*
X103733800Y-59759001D01*
X103733800Y-58858999D01*
X103735004Y-58834495D01*
X103738604Y-58810227D01*
X103744565Y-58786428D01*
X103752830Y-58763329D01*
X103763320Y-58741150D01*
X103775932Y-58720107D01*
X103790547Y-58700401D01*
X103807023Y-58682223D01*
X103825201Y-58665747D01*
X103844907Y-58651132D01*
X103865950Y-58638520D01*
X103888129Y-58628030D01*
X103911228Y-58619765D01*
X103935027Y-58613804D01*
X103959295Y-58610204D01*
X103983799Y-58609000D01*
X104633801Y-58609000D01*
X104658305Y-58610204D01*
X104658305Y-58610204D01*
G37*
D13*
X104308800Y-59309000D03*
D12*
G36*
X106708305Y-58610204D02*
X106732573Y-58613804D01*
X106756372Y-58619765D01*
X106779471Y-58628030D01*
X106801650Y-58638520D01*
X106822693Y-58651132D01*
X106842399Y-58665747D01*
X106860577Y-58682223D01*
X106877053Y-58700401D01*
X106891668Y-58720107D01*
X106904280Y-58741150D01*
X106914770Y-58763329D01*
X106923035Y-58786428D01*
X106928996Y-58810227D01*
X106932596Y-58834495D01*
X106933800Y-58858999D01*
X106933800Y-59759001D01*
X106932596Y-59783505D01*
X106928996Y-59807773D01*
X106923035Y-59831572D01*
X106914770Y-59854671D01*
X106904280Y-59876850D01*
X106891668Y-59897893D01*
X106877053Y-59917599D01*
X106860577Y-59935777D01*
X106842399Y-59952253D01*
X106822693Y-59966868D01*
X106801650Y-59979480D01*
X106779471Y-59989970D01*
X106756372Y-59998235D01*
X106732573Y-60004196D01*
X106708305Y-60007796D01*
X106683801Y-60009000D01*
X106033799Y-60009000D01*
X106009295Y-60007796D01*
X105985027Y-60004196D01*
X105961228Y-59998235D01*
X105938129Y-59989970D01*
X105915950Y-59979480D01*
X105894907Y-59966868D01*
X105875201Y-59952253D01*
X105857023Y-59935777D01*
X105840547Y-59917599D01*
X105825932Y-59897893D01*
X105813320Y-59876850D01*
X105802830Y-59854671D01*
X105794565Y-59831572D01*
X105788604Y-59807773D01*
X105785004Y-59783505D01*
X105783800Y-59759001D01*
X105783800Y-58858999D01*
X105785004Y-58834495D01*
X105788604Y-58810227D01*
X105794565Y-58786428D01*
X105802830Y-58763329D01*
X105813320Y-58741150D01*
X105825932Y-58720107D01*
X105840547Y-58700401D01*
X105857023Y-58682223D01*
X105875201Y-58665747D01*
X105894907Y-58651132D01*
X105915950Y-58638520D01*
X105938129Y-58628030D01*
X105961228Y-58619765D01*
X105985027Y-58613804D01*
X106009295Y-58610204D01*
X106033799Y-58609000D01*
X106683801Y-58609000D01*
X106708305Y-58610204D01*
X106708305Y-58610204D01*
G37*
D13*
X106358800Y-59309000D03*
G04 #@! TD*
D12*
G04 #@! TO.C,R4*
G36*
X106708305Y-63944204D02*
X106732573Y-63947804D01*
X106756372Y-63953765D01*
X106779471Y-63962030D01*
X106801650Y-63972520D01*
X106822693Y-63985132D01*
X106842399Y-63999747D01*
X106860577Y-64016223D01*
X106877053Y-64034401D01*
X106891668Y-64054107D01*
X106904280Y-64075150D01*
X106914770Y-64097329D01*
X106923035Y-64120428D01*
X106928996Y-64144227D01*
X106932596Y-64168495D01*
X106933800Y-64192999D01*
X106933800Y-65093001D01*
X106932596Y-65117505D01*
X106928996Y-65141773D01*
X106923035Y-65165572D01*
X106914770Y-65188671D01*
X106904280Y-65210850D01*
X106891668Y-65231893D01*
X106877053Y-65251599D01*
X106860577Y-65269777D01*
X106842399Y-65286253D01*
X106822693Y-65300868D01*
X106801650Y-65313480D01*
X106779471Y-65323970D01*
X106756372Y-65332235D01*
X106732573Y-65338196D01*
X106708305Y-65341796D01*
X106683801Y-65343000D01*
X106033799Y-65343000D01*
X106009295Y-65341796D01*
X105985027Y-65338196D01*
X105961228Y-65332235D01*
X105938129Y-65323970D01*
X105915950Y-65313480D01*
X105894907Y-65300868D01*
X105875201Y-65286253D01*
X105857023Y-65269777D01*
X105840547Y-65251599D01*
X105825932Y-65231893D01*
X105813320Y-65210850D01*
X105802830Y-65188671D01*
X105794565Y-65165572D01*
X105788604Y-65141773D01*
X105785004Y-65117505D01*
X105783800Y-65093001D01*
X105783800Y-64192999D01*
X105785004Y-64168495D01*
X105788604Y-64144227D01*
X105794565Y-64120428D01*
X105802830Y-64097329D01*
X105813320Y-64075150D01*
X105825932Y-64054107D01*
X105840547Y-64034401D01*
X105857023Y-64016223D01*
X105875201Y-63999747D01*
X105894907Y-63985132D01*
X105915950Y-63972520D01*
X105938129Y-63962030D01*
X105961228Y-63953765D01*
X105985027Y-63947804D01*
X106009295Y-63944204D01*
X106033799Y-63943000D01*
X106683801Y-63943000D01*
X106708305Y-63944204D01*
X106708305Y-63944204D01*
G37*
D13*
X106358800Y-64643000D03*
D12*
G36*
X104658305Y-63944204D02*
X104682573Y-63947804D01*
X104706372Y-63953765D01*
X104729471Y-63962030D01*
X104751650Y-63972520D01*
X104772693Y-63985132D01*
X104792399Y-63999747D01*
X104810577Y-64016223D01*
X104827053Y-64034401D01*
X104841668Y-64054107D01*
X104854280Y-64075150D01*
X104864770Y-64097329D01*
X104873035Y-64120428D01*
X104878996Y-64144227D01*
X104882596Y-64168495D01*
X104883800Y-64192999D01*
X104883800Y-65093001D01*
X104882596Y-65117505D01*
X104878996Y-65141773D01*
X104873035Y-65165572D01*
X104864770Y-65188671D01*
X104854280Y-65210850D01*
X104841668Y-65231893D01*
X104827053Y-65251599D01*
X104810577Y-65269777D01*
X104792399Y-65286253D01*
X104772693Y-65300868D01*
X104751650Y-65313480D01*
X104729471Y-65323970D01*
X104706372Y-65332235D01*
X104682573Y-65338196D01*
X104658305Y-65341796D01*
X104633801Y-65343000D01*
X103983799Y-65343000D01*
X103959295Y-65341796D01*
X103935027Y-65338196D01*
X103911228Y-65332235D01*
X103888129Y-65323970D01*
X103865950Y-65313480D01*
X103844907Y-65300868D01*
X103825201Y-65286253D01*
X103807023Y-65269777D01*
X103790547Y-65251599D01*
X103775932Y-65231893D01*
X103763320Y-65210850D01*
X103752830Y-65188671D01*
X103744565Y-65165572D01*
X103738604Y-65141773D01*
X103735004Y-65117505D01*
X103733800Y-65093001D01*
X103733800Y-64192999D01*
X103735004Y-64168495D01*
X103738604Y-64144227D01*
X103744565Y-64120428D01*
X103752830Y-64097329D01*
X103763320Y-64075150D01*
X103775932Y-64054107D01*
X103790547Y-64034401D01*
X103807023Y-64016223D01*
X103825201Y-63999747D01*
X103844907Y-63985132D01*
X103865950Y-63972520D01*
X103888129Y-63962030D01*
X103911228Y-63953765D01*
X103935027Y-63947804D01*
X103959295Y-63944204D01*
X103983799Y-63943000D01*
X104633801Y-63943000D01*
X104658305Y-63944204D01*
X104658305Y-63944204D01*
G37*
D13*
X104308800Y-64643000D03*
G04 #@! TD*
D12*
G04 #@! TO.C,C5*
G36*
X129080405Y-45554604D02*
X129104673Y-45558204D01*
X129128472Y-45564165D01*
X129151571Y-45572430D01*
X129173750Y-45582920D01*
X129194793Y-45595532D01*
X129214499Y-45610147D01*
X129232677Y-45626623D01*
X129249153Y-45644801D01*
X129263768Y-45664507D01*
X129276380Y-45685550D01*
X129286870Y-45707729D01*
X129295135Y-45730828D01*
X129301096Y-45754627D01*
X129304696Y-45778895D01*
X129305900Y-45803399D01*
X129305900Y-46703401D01*
X129304696Y-46727905D01*
X129301096Y-46752173D01*
X129295135Y-46775972D01*
X129286870Y-46799071D01*
X129276380Y-46821250D01*
X129263768Y-46842293D01*
X129249153Y-46861999D01*
X129232677Y-46880177D01*
X129214499Y-46896653D01*
X129194793Y-46911268D01*
X129173750Y-46923880D01*
X129151571Y-46934370D01*
X129128472Y-46942635D01*
X129104673Y-46948596D01*
X129080405Y-46952196D01*
X129055901Y-46953400D01*
X128405899Y-46953400D01*
X128381395Y-46952196D01*
X128357127Y-46948596D01*
X128333328Y-46942635D01*
X128310229Y-46934370D01*
X128288050Y-46923880D01*
X128267007Y-46911268D01*
X128247301Y-46896653D01*
X128229123Y-46880177D01*
X128212647Y-46861999D01*
X128198032Y-46842293D01*
X128185420Y-46821250D01*
X128174930Y-46799071D01*
X128166665Y-46775972D01*
X128160704Y-46752173D01*
X128157104Y-46727905D01*
X128155900Y-46703401D01*
X128155900Y-45803399D01*
X128157104Y-45778895D01*
X128160704Y-45754627D01*
X128166665Y-45730828D01*
X128174930Y-45707729D01*
X128185420Y-45685550D01*
X128198032Y-45664507D01*
X128212647Y-45644801D01*
X128229123Y-45626623D01*
X128247301Y-45610147D01*
X128267007Y-45595532D01*
X128288050Y-45582920D01*
X128310229Y-45572430D01*
X128333328Y-45564165D01*
X128357127Y-45558204D01*
X128381395Y-45554604D01*
X128405899Y-45553400D01*
X129055901Y-45553400D01*
X129080405Y-45554604D01*
X129080405Y-45554604D01*
G37*
D13*
X128730900Y-46253400D03*
D12*
G36*
X131130405Y-45554604D02*
X131154673Y-45558204D01*
X131178472Y-45564165D01*
X131201571Y-45572430D01*
X131223750Y-45582920D01*
X131244793Y-45595532D01*
X131264499Y-45610147D01*
X131282677Y-45626623D01*
X131299153Y-45644801D01*
X131313768Y-45664507D01*
X131326380Y-45685550D01*
X131336870Y-45707729D01*
X131345135Y-45730828D01*
X131351096Y-45754627D01*
X131354696Y-45778895D01*
X131355900Y-45803399D01*
X131355900Y-46703401D01*
X131354696Y-46727905D01*
X131351096Y-46752173D01*
X131345135Y-46775972D01*
X131336870Y-46799071D01*
X131326380Y-46821250D01*
X131313768Y-46842293D01*
X131299153Y-46861999D01*
X131282677Y-46880177D01*
X131264499Y-46896653D01*
X131244793Y-46911268D01*
X131223750Y-46923880D01*
X131201571Y-46934370D01*
X131178472Y-46942635D01*
X131154673Y-46948596D01*
X131130405Y-46952196D01*
X131105901Y-46953400D01*
X130455899Y-46953400D01*
X130431395Y-46952196D01*
X130407127Y-46948596D01*
X130383328Y-46942635D01*
X130360229Y-46934370D01*
X130338050Y-46923880D01*
X130317007Y-46911268D01*
X130297301Y-46896653D01*
X130279123Y-46880177D01*
X130262647Y-46861999D01*
X130248032Y-46842293D01*
X130235420Y-46821250D01*
X130224930Y-46799071D01*
X130216665Y-46775972D01*
X130210704Y-46752173D01*
X130207104Y-46727905D01*
X130205900Y-46703401D01*
X130205900Y-45803399D01*
X130207104Y-45778895D01*
X130210704Y-45754627D01*
X130216665Y-45730828D01*
X130224930Y-45707729D01*
X130235420Y-45685550D01*
X130248032Y-45664507D01*
X130262647Y-45644801D01*
X130279123Y-45626623D01*
X130297301Y-45610147D01*
X130317007Y-45595532D01*
X130338050Y-45582920D01*
X130360229Y-45572430D01*
X130383328Y-45564165D01*
X130407127Y-45558204D01*
X130431395Y-45554604D01*
X130455899Y-45553400D01*
X131105901Y-45553400D01*
X131130405Y-45554604D01*
X131130405Y-45554604D01*
G37*
D13*
X130780900Y-46253400D03*
G04 #@! TD*
D12*
G04 #@! TO.C,C4*
G36*
X143635095Y-96329204D02*
X143659363Y-96332804D01*
X143683162Y-96338765D01*
X143706261Y-96347030D01*
X143728440Y-96357520D01*
X143749483Y-96370132D01*
X143769189Y-96384747D01*
X143787367Y-96401223D01*
X143803843Y-96419401D01*
X143818458Y-96439107D01*
X143831070Y-96460150D01*
X143841560Y-96482329D01*
X143849825Y-96505428D01*
X143855786Y-96529227D01*
X143859386Y-96553495D01*
X143860590Y-96577999D01*
X143860590Y-97478001D01*
X143859386Y-97502505D01*
X143855786Y-97526773D01*
X143849825Y-97550572D01*
X143841560Y-97573671D01*
X143831070Y-97595850D01*
X143818458Y-97616893D01*
X143803843Y-97636599D01*
X143787367Y-97654777D01*
X143769189Y-97671253D01*
X143749483Y-97685868D01*
X143728440Y-97698480D01*
X143706261Y-97708970D01*
X143683162Y-97717235D01*
X143659363Y-97723196D01*
X143635095Y-97726796D01*
X143610591Y-97728000D01*
X142960589Y-97728000D01*
X142936085Y-97726796D01*
X142911817Y-97723196D01*
X142888018Y-97717235D01*
X142864919Y-97708970D01*
X142842740Y-97698480D01*
X142821697Y-97685868D01*
X142801991Y-97671253D01*
X142783813Y-97654777D01*
X142767337Y-97636599D01*
X142752722Y-97616893D01*
X142740110Y-97595850D01*
X142729620Y-97573671D01*
X142721355Y-97550572D01*
X142715394Y-97526773D01*
X142711794Y-97502505D01*
X142710590Y-97478001D01*
X142710590Y-96577999D01*
X142711794Y-96553495D01*
X142715394Y-96529227D01*
X142721355Y-96505428D01*
X142729620Y-96482329D01*
X142740110Y-96460150D01*
X142752722Y-96439107D01*
X142767337Y-96419401D01*
X142783813Y-96401223D01*
X142801991Y-96384747D01*
X142821697Y-96370132D01*
X142842740Y-96357520D01*
X142864919Y-96347030D01*
X142888018Y-96338765D01*
X142911817Y-96332804D01*
X142936085Y-96329204D01*
X142960589Y-96328000D01*
X143610591Y-96328000D01*
X143635095Y-96329204D01*
X143635095Y-96329204D01*
G37*
D13*
X143285590Y-97028000D03*
D12*
G36*
X145685095Y-96329204D02*
X145709363Y-96332804D01*
X145733162Y-96338765D01*
X145756261Y-96347030D01*
X145778440Y-96357520D01*
X145799483Y-96370132D01*
X145819189Y-96384747D01*
X145837367Y-96401223D01*
X145853843Y-96419401D01*
X145868458Y-96439107D01*
X145881070Y-96460150D01*
X145891560Y-96482329D01*
X145899825Y-96505428D01*
X145905786Y-96529227D01*
X145909386Y-96553495D01*
X145910590Y-96577999D01*
X145910590Y-97478001D01*
X145909386Y-97502505D01*
X145905786Y-97526773D01*
X145899825Y-97550572D01*
X145891560Y-97573671D01*
X145881070Y-97595850D01*
X145868458Y-97616893D01*
X145853843Y-97636599D01*
X145837367Y-97654777D01*
X145819189Y-97671253D01*
X145799483Y-97685868D01*
X145778440Y-97698480D01*
X145756261Y-97708970D01*
X145733162Y-97717235D01*
X145709363Y-97723196D01*
X145685095Y-97726796D01*
X145660591Y-97728000D01*
X145010589Y-97728000D01*
X144986085Y-97726796D01*
X144961817Y-97723196D01*
X144938018Y-97717235D01*
X144914919Y-97708970D01*
X144892740Y-97698480D01*
X144871697Y-97685868D01*
X144851991Y-97671253D01*
X144833813Y-97654777D01*
X144817337Y-97636599D01*
X144802722Y-97616893D01*
X144790110Y-97595850D01*
X144779620Y-97573671D01*
X144771355Y-97550572D01*
X144765394Y-97526773D01*
X144761794Y-97502505D01*
X144760590Y-97478001D01*
X144760590Y-96577999D01*
X144761794Y-96553495D01*
X144765394Y-96529227D01*
X144771355Y-96505428D01*
X144779620Y-96482329D01*
X144790110Y-96460150D01*
X144802722Y-96439107D01*
X144817337Y-96419401D01*
X144833813Y-96401223D01*
X144851991Y-96384747D01*
X144871697Y-96370132D01*
X144892740Y-96357520D01*
X144914919Y-96347030D01*
X144938018Y-96338765D01*
X144961817Y-96332804D01*
X144986085Y-96329204D01*
X145010589Y-96328000D01*
X145660591Y-96328000D01*
X145685095Y-96329204D01*
X145685095Y-96329204D01*
G37*
D13*
X145335590Y-97028000D03*
G04 #@! TD*
D12*
G04 #@! TO.C,C2*
G36*
X130427095Y-52043082D02*
X130451363Y-52046682D01*
X130475162Y-52052643D01*
X130498261Y-52060908D01*
X130520440Y-52071398D01*
X130541483Y-52084010D01*
X130561189Y-52098625D01*
X130579367Y-52115101D01*
X130595843Y-52133279D01*
X130610458Y-52152985D01*
X130623070Y-52174028D01*
X130633560Y-52196207D01*
X130641825Y-52219306D01*
X130647786Y-52243105D01*
X130651386Y-52267373D01*
X130652590Y-52291877D01*
X130652590Y-53191879D01*
X130651386Y-53216383D01*
X130647786Y-53240651D01*
X130641825Y-53264450D01*
X130633560Y-53287549D01*
X130623070Y-53309728D01*
X130610458Y-53330771D01*
X130595843Y-53350477D01*
X130579367Y-53368655D01*
X130561189Y-53385131D01*
X130541483Y-53399746D01*
X130520440Y-53412358D01*
X130498261Y-53422848D01*
X130475162Y-53431113D01*
X130451363Y-53437074D01*
X130427095Y-53440674D01*
X130402591Y-53441878D01*
X129752589Y-53441878D01*
X129728085Y-53440674D01*
X129703817Y-53437074D01*
X129680018Y-53431113D01*
X129656919Y-53422848D01*
X129634740Y-53412358D01*
X129613697Y-53399746D01*
X129593991Y-53385131D01*
X129575813Y-53368655D01*
X129559337Y-53350477D01*
X129544722Y-53330771D01*
X129532110Y-53309728D01*
X129521620Y-53287549D01*
X129513355Y-53264450D01*
X129507394Y-53240651D01*
X129503794Y-53216383D01*
X129502590Y-53191879D01*
X129502590Y-52291877D01*
X129503794Y-52267373D01*
X129507394Y-52243105D01*
X129513355Y-52219306D01*
X129521620Y-52196207D01*
X129532110Y-52174028D01*
X129544722Y-52152985D01*
X129559337Y-52133279D01*
X129575813Y-52115101D01*
X129593991Y-52098625D01*
X129613697Y-52084010D01*
X129634740Y-52071398D01*
X129656919Y-52060908D01*
X129680018Y-52052643D01*
X129703817Y-52046682D01*
X129728085Y-52043082D01*
X129752589Y-52041878D01*
X130402591Y-52041878D01*
X130427095Y-52043082D01*
X130427095Y-52043082D01*
G37*
D13*
X130077590Y-52741878D03*
D12*
G36*
X132477095Y-52043082D02*
X132501363Y-52046682D01*
X132525162Y-52052643D01*
X132548261Y-52060908D01*
X132570440Y-52071398D01*
X132591483Y-52084010D01*
X132611189Y-52098625D01*
X132629367Y-52115101D01*
X132645843Y-52133279D01*
X132660458Y-52152985D01*
X132673070Y-52174028D01*
X132683560Y-52196207D01*
X132691825Y-52219306D01*
X132697786Y-52243105D01*
X132701386Y-52267373D01*
X132702590Y-52291877D01*
X132702590Y-53191879D01*
X132701386Y-53216383D01*
X132697786Y-53240651D01*
X132691825Y-53264450D01*
X132683560Y-53287549D01*
X132673070Y-53309728D01*
X132660458Y-53330771D01*
X132645843Y-53350477D01*
X132629367Y-53368655D01*
X132611189Y-53385131D01*
X132591483Y-53399746D01*
X132570440Y-53412358D01*
X132548261Y-53422848D01*
X132525162Y-53431113D01*
X132501363Y-53437074D01*
X132477095Y-53440674D01*
X132452591Y-53441878D01*
X131802589Y-53441878D01*
X131778085Y-53440674D01*
X131753817Y-53437074D01*
X131730018Y-53431113D01*
X131706919Y-53422848D01*
X131684740Y-53412358D01*
X131663697Y-53399746D01*
X131643991Y-53385131D01*
X131625813Y-53368655D01*
X131609337Y-53350477D01*
X131594722Y-53330771D01*
X131582110Y-53309728D01*
X131571620Y-53287549D01*
X131563355Y-53264450D01*
X131557394Y-53240651D01*
X131553794Y-53216383D01*
X131552590Y-53191879D01*
X131552590Y-52291877D01*
X131553794Y-52267373D01*
X131557394Y-52243105D01*
X131563355Y-52219306D01*
X131571620Y-52196207D01*
X131582110Y-52174028D01*
X131594722Y-52152985D01*
X131609337Y-52133279D01*
X131625813Y-52115101D01*
X131643991Y-52098625D01*
X131663697Y-52084010D01*
X131684740Y-52071398D01*
X131706919Y-52060908D01*
X131730018Y-52052643D01*
X131753817Y-52046682D01*
X131778085Y-52043082D01*
X131802589Y-52041878D01*
X132452591Y-52041878D01*
X132477095Y-52043082D01*
X132477095Y-52043082D01*
G37*
D13*
X132127590Y-52741878D03*
G04 #@! TD*
D12*
G04 #@! TO.C,R1*
G36*
X106708305Y-56019404D02*
X106732573Y-56023004D01*
X106756372Y-56028965D01*
X106779471Y-56037230D01*
X106801650Y-56047720D01*
X106822693Y-56060332D01*
X106842399Y-56074947D01*
X106860577Y-56091423D01*
X106877053Y-56109601D01*
X106891668Y-56129307D01*
X106904280Y-56150350D01*
X106914770Y-56172529D01*
X106923035Y-56195628D01*
X106928996Y-56219427D01*
X106932596Y-56243695D01*
X106933800Y-56268199D01*
X106933800Y-57168201D01*
X106932596Y-57192705D01*
X106928996Y-57216973D01*
X106923035Y-57240772D01*
X106914770Y-57263871D01*
X106904280Y-57286050D01*
X106891668Y-57307093D01*
X106877053Y-57326799D01*
X106860577Y-57344977D01*
X106842399Y-57361453D01*
X106822693Y-57376068D01*
X106801650Y-57388680D01*
X106779471Y-57399170D01*
X106756372Y-57407435D01*
X106732573Y-57413396D01*
X106708305Y-57416996D01*
X106683801Y-57418200D01*
X106033799Y-57418200D01*
X106009295Y-57416996D01*
X105985027Y-57413396D01*
X105961228Y-57407435D01*
X105938129Y-57399170D01*
X105915950Y-57388680D01*
X105894907Y-57376068D01*
X105875201Y-57361453D01*
X105857023Y-57344977D01*
X105840547Y-57326799D01*
X105825932Y-57307093D01*
X105813320Y-57286050D01*
X105802830Y-57263871D01*
X105794565Y-57240772D01*
X105788604Y-57216973D01*
X105785004Y-57192705D01*
X105783800Y-57168201D01*
X105783800Y-56268199D01*
X105785004Y-56243695D01*
X105788604Y-56219427D01*
X105794565Y-56195628D01*
X105802830Y-56172529D01*
X105813320Y-56150350D01*
X105825932Y-56129307D01*
X105840547Y-56109601D01*
X105857023Y-56091423D01*
X105875201Y-56074947D01*
X105894907Y-56060332D01*
X105915950Y-56047720D01*
X105938129Y-56037230D01*
X105961228Y-56028965D01*
X105985027Y-56023004D01*
X106009295Y-56019404D01*
X106033799Y-56018200D01*
X106683801Y-56018200D01*
X106708305Y-56019404D01*
X106708305Y-56019404D01*
G37*
D13*
X106358800Y-56718200D03*
D12*
G36*
X104658305Y-56019404D02*
X104682573Y-56023004D01*
X104706372Y-56028965D01*
X104729471Y-56037230D01*
X104751650Y-56047720D01*
X104772693Y-56060332D01*
X104792399Y-56074947D01*
X104810577Y-56091423D01*
X104827053Y-56109601D01*
X104841668Y-56129307D01*
X104854280Y-56150350D01*
X104864770Y-56172529D01*
X104873035Y-56195628D01*
X104878996Y-56219427D01*
X104882596Y-56243695D01*
X104883800Y-56268199D01*
X104883800Y-57168201D01*
X104882596Y-57192705D01*
X104878996Y-57216973D01*
X104873035Y-57240772D01*
X104864770Y-57263871D01*
X104854280Y-57286050D01*
X104841668Y-57307093D01*
X104827053Y-57326799D01*
X104810577Y-57344977D01*
X104792399Y-57361453D01*
X104772693Y-57376068D01*
X104751650Y-57388680D01*
X104729471Y-57399170D01*
X104706372Y-57407435D01*
X104682573Y-57413396D01*
X104658305Y-57416996D01*
X104633801Y-57418200D01*
X103983799Y-57418200D01*
X103959295Y-57416996D01*
X103935027Y-57413396D01*
X103911228Y-57407435D01*
X103888129Y-57399170D01*
X103865950Y-57388680D01*
X103844907Y-57376068D01*
X103825201Y-57361453D01*
X103807023Y-57344977D01*
X103790547Y-57326799D01*
X103775932Y-57307093D01*
X103763320Y-57286050D01*
X103752830Y-57263871D01*
X103744565Y-57240772D01*
X103738604Y-57216973D01*
X103735004Y-57192705D01*
X103733800Y-57168201D01*
X103733800Y-56268199D01*
X103735004Y-56243695D01*
X103738604Y-56219427D01*
X103744565Y-56195628D01*
X103752830Y-56172529D01*
X103763320Y-56150350D01*
X103775932Y-56129307D01*
X103790547Y-56109601D01*
X103807023Y-56091423D01*
X103825201Y-56074947D01*
X103844907Y-56060332D01*
X103865950Y-56047720D01*
X103888129Y-56037230D01*
X103911228Y-56028965D01*
X103935027Y-56023004D01*
X103959295Y-56019404D01*
X103983799Y-56018200D01*
X104633801Y-56018200D01*
X104658305Y-56019404D01*
X104658305Y-56019404D01*
G37*
D13*
X104308800Y-56718200D03*
G04 #@! TD*
D12*
G04 #@! TO.C,C7*
G36*
X109109095Y-85444082D02*
X109133363Y-85447682D01*
X109157162Y-85453643D01*
X109180261Y-85461908D01*
X109202440Y-85472398D01*
X109223483Y-85485010D01*
X109243189Y-85499625D01*
X109261367Y-85516101D01*
X109277843Y-85534279D01*
X109292458Y-85553985D01*
X109305070Y-85575028D01*
X109315560Y-85597207D01*
X109323825Y-85620306D01*
X109329786Y-85644105D01*
X109333386Y-85668373D01*
X109334590Y-85692877D01*
X109334590Y-86592879D01*
X109333386Y-86617383D01*
X109329786Y-86641651D01*
X109323825Y-86665450D01*
X109315560Y-86688549D01*
X109305070Y-86710728D01*
X109292458Y-86731771D01*
X109277843Y-86751477D01*
X109261367Y-86769655D01*
X109243189Y-86786131D01*
X109223483Y-86800746D01*
X109202440Y-86813358D01*
X109180261Y-86823848D01*
X109157162Y-86832113D01*
X109133363Y-86838074D01*
X109109095Y-86841674D01*
X109084591Y-86842878D01*
X108434589Y-86842878D01*
X108410085Y-86841674D01*
X108385817Y-86838074D01*
X108362018Y-86832113D01*
X108338919Y-86823848D01*
X108316740Y-86813358D01*
X108295697Y-86800746D01*
X108275991Y-86786131D01*
X108257813Y-86769655D01*
X108241337Y-86751477D01*
X108226722Y-86731771D01*
X108214110Y-86710728D01*
X108203620Y-86688549D01*
X108195355Y-86665450D01*
X108189394Y-86641651D01*
X108185794Y-86617383D01*
X108184590Y-86592879D01*
X108184590Y-85692877D01*
X108185794Y-85668373D01*
X108189394Y-85644105D01*
X108195355Y-85620306D01*
X108203620Y-85597207D01*
X108214110Y-85575028D01*
X108226722Y-85553985D01*
X108241337Y-85534279D01*
X108257813Y-85516101D01*
X108275991Y-85499625D01*
X108295697Y-85485010D01*
X108316740Y-85472398D01*
X108338919Y-85461908D01*
X108362018Y-85453643D01*
X108385817Y-85447682D01*
X108410085Y-85444082D01*
X108434589Y-85442878D01*
X109084591Y-85442878D01*
X109109095Y-85444082D01*
X109109095Y-85444082D01*
G37*
D13*
X108759590Y-86142878D03*
D12*
G36*
X107059095Y-85444082D02*
X107083363Y-85447682D01*
X107107162Y-85453643D01*
X107130261Y-85461908D01*
X107152440Y-85472398D01*
X107173483Y-85485010D01*
X107193189Y-85499625D01*
X107211367Y-85516101D01*
X107227843Y-85534279D01*
X107242458Y-85553985D01*
X107255070Y-85575028D01*
X107265560Y-85597207D01*
X107273825Y-85620306D01*
X107279786Y-85644105D01*
X107283386Y-85668373D01*
X107284590Y-85692877D01*
X107284590Y-86592879D01*
X107283386Y-86617383D01*
X107279786Y-86641651D01*
X107273825Y-86665450D01*
X107265560Y-86688549D01*
X107255070Y-86710728D01*
X107242458Y-86731771D01*
X107227843Y-86751477D01*
X107211367Y-86769655D01*
X107193189Y-86786131D01*
X107173483Y-86800746D01*
X107152440Y-86813358D01*
X107130261Y-86823848D01*
X107107162Y-86832113D01*
X107083363Y-86838074D01*
X107059095Y-86841674D01*
X107034591Y-86842878D01*
X106384589Y-86842878D01*
X106360085Y-86841674D01*
X106335817Y-86838074D01*
X106312018Y-86832113D01*
X106288919Y-86823848D01*
X106266740Y-86813358D01*
X106245697Y-86800746D01*
X106225991Y-86786131D01*
X106207813Y-86769655D01*
X106191337Y-86751477D01*
X106176722Y-86731771D01*
X106164110Y-86710728D01*
X106153620Y-86688549D01*
X106145355Y-86665450D01*
X106139394Y-86641651D01*
X106135794Y-86617383D01*
X106134590Y-86592879D01*
X106134590Y-85692877D01*
X106135794Y-85668373D01*
X106139394Y-85644105D01*
X106145355Y-85620306D01*
X106153620Y-85597207D01*
X106164110Y-85575028D01*
X106176722Y-85553985D01*
X106191337Y-85534279D01*
X106207813Y-85516101D01*
X106225991Y-85499625D01*
X106245697Y-85485010D01*
X106266740Y-85472398D01*
X106288919Y-85461908D01*
X106312018Y-85453643D01*
X106335817Y-85447682D01*
X106360085Y-85444082D01*
X106384589Y-85442878D01*
X107034591Y-85442878D01*
X107059095Y-85444082D01*
X107059095Y-85444082D01*
G37*
D13*
X106709590Y-86142878D03*
G04 #@! TD*
D12*
G04 #@! TO.C,C6*
G36*
X97541095Y-99149082D02*
X97565363Y-99152682D01*
X97589162Y-99158643D01*
X97612261Y-99166908D01*
X97634440Y-99177398D01*
X97655483Y-99190010D01*
X97675189Y-99204625D01*
X97693367Y-99221101D01*
X97709843Y-99239279D01*
X97724458Y-99258985D01*
X97737070Y-99280028D01*
X97747560Y-99302207D01*
X97755825Y-99325306D01*
X97761786Y-99349105D01*
X97765386Y-99373373D01*
X97766590Y-99397877D01*
X97766590Y-100047879D01*
X97765386Y-100072383D01*
X97761786Y-100096651D01*
X97755825Y-100120450D01*
X97747560Y-100143549D01*
X97737070Y-100165728D01*
X97724458Y-100186771D01*
X97709843Y-100206477D01*
X97693367Y-100224655D01*
X97675189Y-100241131D01*
X97655483Y-100255746D01*
X97634440Y-100268358D01*
X97612261Y-100278848D01*
X97589162Y-100287113D01*
X97565363Y-100293074D01*
X97541095Y-100296674D01*
X97516591Y-100297878D01*
X96616589Y-100297878D01*
X96592085Y-100296674D01*
X96567817Y-100293074D01*
X96544018Y-100287113D01*
X96520919Y-100278848D01*
X96498740Y-100268358D01*
X96477697Y-100255746D01*
X96457991Y-100241131D01*
X96439813Y-100224655D01*
X96423337Y-100206477D01*
X96408722Y-100186771D01*
X96396110Y-100165728D01*
X96385620Y-100143549D01*
X96377355Y-100120450D01*
X96371394Y-100096651D01*
X96367794Y-100072383D01*
X96366590Y-100047879D01*
X96366590Y-99397877D01*
X96367794Y-99373373D01*
X96371394Y-99349105D01*
X96377355Y-99325306D01*
X96385620Y-99302207D01*
X96396110Y-99280028D01*
X96408722Y-99258985D01*
X96423337Y-99239279D01*
X96439813Y-99221101D01*
X96457991Y-99204625D01*
X96477697Y-99190010D01*
X96498740Y-99177398D01*
X96520919Y-99166908D01*
X96544018Y-99158643D01*
X96567817Y-99152682D01*
X96592085Y-99149082D01*
X96616589Y-99147878D01*
X97516591Y-99147878D01*
X97541095Y-99149082D01*
X97541095Y-99149082D01*
G37*
D13*
X97066590Y-99722878D03*
D12*
G36*
X97541095Y-101199082D02*
X97565363Y-101202682D01*
X97589162Y-101208643D01*
X97612261Y-101216908D01*
X97634440Y-101227398D01*
X97655483Y-101240010D01*
X97675189Y-101254625D01*
X97693367Y-101271101D01*
X97709843Y-101289279D01*
X97724458Y-101308985D01*
X97737070Y-101330028D01*
X97747560Y-101352207D01*
X97755825Y-101375306D01*
X97761786Y-101399105D01*
X97765386Y-101423373D01*
X97766590Y-101447877D01*
X97766590Y-102097879D01*
X97765386Y-102122383D01*
X97761786Y-102146651D01*
X97755825Y-102170450D01*
X97747560Y-102193549D01*
X97737070Y-102215728D01*
X97724458Y-102236771D01*
X97709843Y-102256477D01*
X97693367Y-102274655D01*
X97675189Y-102291131D01*
X97655483Y-102305746D01*
X97634440Y-102318358D01*
X97612261Y-102328848D01*
X97589162Y-102337113D01*
X97565363Y-102343074D01*
X97541095Y-102346674D01*
X97516591Y-102347878D01*
X96616589Y-102347878D01*
X96592085Y-102346674D01*
X96567817Y-102343074D01*
X96544018Y-102337113D01*
X96520919Y-102328848D01*
X96498740Y-102318358D01*
X96477697Y-102305746D01*
X96457991Y-102291131D01*
X96439813Y-102274655D01*
X96423337Y-102256477D01*
X96408722Y-102236771D01*
X96396110Y-102215728D01*
X96385620Y-102193549D01*
X96377355Y-102170450D01*
X96371394Y-102146651D01*
X96367794Y-102122383D01*
X96366590Y-102097879D01*
X96366590Y-101447877D01*
X96367794Y-101423373D01*
X96371394Y-101399105D01*
X96377355Y-101375306D01*
X96385620Y-101352207D01*
X96396110Y-101330028D01*
X96408722Y-101308985D01*
X96423337Y-101289279D01*
X96439813Y-101271101D01*
X96457991Y-101254625D01*
X96477697Y-101240010D01*
X96498740Y-101227398D01*
X96520919Y-101216908D01*
X96544018Y-101208643D01*
X96567817Y-101202682D01*
X96592085Y-101199082D01*
X96616589Y-101197878D01*
X97516591Y-101197878D01*
X97541095Y-101199082D01*
X97541095Y-101199082D01*
G37*
D13*
X97066590Y-101772878D03*
G04 #@! TD*
D12*
G04 #@! TO.C,R5*
G36*
X104773095Y-66648082D02*
X104797363Y-66651682D01*
X104821162Y-66657643D01*
X104844261Y-66665908D01*
X104866440Y-66676398D01*
X104887483Y-66689010D01*
X104907189Y-66703625D01*
X104925367Y-66720101D01*
X104941843Y-66738279D01*
X104956458Y-66757985D01*
X104969070Y-66779028D01*
X104979560Y-66801207D01*
X104987825Y-66824306D01*
X104993786Y-66848105D01*
X104997386Y-66872373D01*
X104998590Y-66896877D01*
X104998590Y-67796879D01*
X104997386Y-67821383D01*
X104993786Y-67845651D01*
X104987825Y-67869450D01*
X104979560Y-67892549D01*
X104969070Y-67914728D01*
X104956458Y-67935771D01*
X104941843Y-67955477D01*
X104925367Y-67973655D01*
X104907189Y-67990131D01*
X104887483Y-68004746D01*
X104866440Y-68017358D01*
X104844261Y-68027848D01*
X104821162Y-68036113D01*
X104797363Y-68042074D01*
X104773095Y-68045674D01*
X104748591Y-68046878D01*
X104098589Y-68046878D01*
X104074085Y-68045674D01*
X104049817Y-68042074D01*
X104026018Y-68036113D01*
X104002919Y-68027848D01*
X103980740Y-68017358D01*
X103959697Y-68004746D01*
X103939991Y-67990131D01*
X103921813Y-67973655D01*
X103905337Y-67955477D01*
X103890722Y-67935771D01*
X103878110Y-67914728D01*
X103867620Y-67892549D01*
X103859355Y-67869450D01*
X103853394Y-67845651D01*
X103849794Y-67821383D01*
X103848590Y-67796879D01*
X103848590Y-66896877D01*
X103849794Y-66872373D01*
X103853394Y-66848105D01*
X103859355Y-66824306D01*
X103867620Y-66801207D01*
X103878110Y-66779028D01*
X103890722Y-66757985D01*
X103905337Y-66738279D01*
X103921813Y-66720101D01*
X103939991Y-66703625D01*
X103959697Y-66689010D01*
X103980740Y-66676398D01*
X104002919Y-66665908D01*
X104026018Y-66657643D01*
X104049817Y-66651682D01*
X104074085Y-66648082D01*
X104098589Y-66646878D01*
X104748591Y-66646878D01*
X104773095Y-66648082D01*
X104773095Y-66648082D01*
G37*
D13*
X104423590Y-67346878D03*
D12*
G36*
X106823095Y-66648082D02*
X106847363Y-66651682D01*
X106871162Y-66657643D01*
X106894261Y-66665908D01*
X106916440Y-66676398D01*
X106937483Y-66689010D01*
X106957189Y-66703625D01*
X106975367Y-66720101D01*
X106991843Y-66738279D01*
X107006458Y-66757985D01*
X107019070Y-66779028D01*
X107029560Y-66801207D01*
X107037825Y-66824306D01*
X107043786Y-66848105D01*
X107047386Y-66872373D01*
X107048590Y-66896877D01*
X107048590Y-67796879D01*
X107047386Y-67821383D01*
X107043786Y-67845651D01*
X107037825Y-67869450D01*
X107029560Y-67892549D01*
X107019070Y-67914728D01*
X107006458Y-67935771D01*
X106991843Y-67955477D01*
X106975367Y-67973655D01*
X106957189Y-67990131D01*
X106937483Y-68004746D01*
X106916440Y-68017358D01*
X106894261Y-68027848D01*
X106871162Y-68036113D01*
X106847363Y-68042074D01*
X106823095Y-68045674D01*
X106798591Y-68046878D01*
X106148589Y-68046878D01*
X106124085Y-68045674D01*
X106099817Y-68042074D01*
X106076018Y-68036113D01*
X106052919Y-68027848D01*
X106030740Y-68017358D01*
X106009697Y-68004746D01*
X105989991Y-67990131D01*
X105971813Y-67973655D01*
X105955337Y-67955477D01*
X105940722Y-67935771D01*
X105928110Y-67914728D01*
X105917620Y-67892549D01*
X105909355Y-67869450D01*
X105903394Y-67845651D01*
X105899794Y-67821383D01*
X105898590Y-67796879D01*
X105898590Y-66896877D01*
X105899794Y-66872373D01*
X105903394Y-66848105D01*
X105909355Y-66824306D01*
X105917620Y-66801207D01*
X105928110Y-66779028D01*
X105940722Y-66757985D01*
X105955337Y-66738279D01*
X105971813Y-66720101D01*
X105989991Y-66703625D01*
X106009697Y-66689010D01*
X106030740Y-66676398D01*
X106052919Y-66665908D01*
X106076018Y-66657643D01*
X106099817Y-66651682D01*
X106124085Y-66648082D01*
X106148589Y-66646878D01*
X106798591Y-66646878D01*
X106823095Y-66648082D01*
X106823095Y-66648082D01*
G37*
D13*
X106473590Y-67346878D03*
G04 #@! TD*
D12*
G04 #@! TO.C,C1*
G36*
X176956094Y-86995082D02*
X176980363Y-86998682D01*
X177004161Y-87004643D01*
X177027261Y-87012908D01*
X177049439Y-87023398D01*
X177070483Y-87036011D01*
X177090188Y-87050625D01*
X177108367Y-87067101D01*
X177124843Y-87085280D01*
X177139457Y-87104985D01*
X177152070Y-87126029D01*
X177162560Y-87148207D01*
X177170825Y-87171307D01*
X177176786Y-87195105D01*
X177180386Y-87219374D01*
X177181590Y-87243878D01*
X177181590Y-88343878D01*
X177180386Y-88368382D01*
X177176786Y-88392651D01*
X177170825Y-88416449D01*
X177162560Y-88439549D01*
X177152070Y-88461727D01*
X177139457Y-88482771D01*
X177124843Y-88502476D01*
X177108367Y-88520655D01*
X177090188Y-88537131D01*
X177070483Y-88551745D01*
X177049439Y-88564358D01*
X177027261Y-88574848D01*
X177004161Y-88583113D01*
X176980363Y-88589074D01*
X176956094Y-88592674D01*
X176931590Y-88593878D01*
X173931590Y-88593878D01*
X173907086Y-88592674D01*
X173882817Y-88589074D01*
X173859019Y-88583113D01*
X173835919Y-88574848D01*
X173813741Y-88564358D01*
X173792697Y-88551745D01*
X173772992Y-88537131D01*
X173754813Y-88520655D01*
X173738337Y-88502476D01*
X173723723Y-88482771D01*
X173711110Y-88461727D01*
X173700620Y-88439549D01*
X173692355Y-88416449D01*
X173686394Y-88392651D01*
X173682794Y-88368382D01*
X173681590Y-88343878D01*
X173681590Y-87243878D01*
X173682794Y-87219374D01*
X173686394Y-87195105D01*
X173692355Y-87171307D01*
X173700620Y-87148207D01*
X173711110Y-87126029D01*
X173723723Y-87104985D01*
X173738337Y-87085280D01*
X173754813Y-87067101D01*
X173772992Y-87050625D01*
X173792697Y-87036011D01*
X173813741Y-87023398D01*
X173835919Y-87012908D01*
X173859019Y-87004643D01*
X173882817Y-86998682D01*
X173907086Y-86995082D01*
X173931590Y-86993878D01*
X176931590Y-86993878D01*
X176956094Y-86995082D01*
X176956094Y-86995082D01*
G37*
D16*
X175431590Y-87793878D03*
D12*
G36*
X171356094Y-86995082D02*
X171380363Y-86998682D01*
X171404161Y-87004643D01*
X171427261Y-87012908D01*
X171449439Y-87023398D01*
X171470483Y-87036011D01*
X171490188Y-87050625D01*
X171508367Y-87067101D01*
X171524843Y-87085280D01*
X171539457Y-87104985D01*
X171552070Y-87126029D01*
X171562560Y-87148207D01*
X171570825Y-87171307D01*
X171576786Y-87195105D01*
X171580386Y-87219374D01*
X171581590Y-87243878D01*
X171581590Y-88343878D01*
X171580386Y-88368382D01*
X171576786Y-88392651D01*
X171570825Y-88416449D01*
X171562560Y-88439549D01*
X171552070Y-88461727D01*
X171539457Y-88482771D01*
X171524843Y-88502476D01*
X171508367Y-88520655D01*
X171490188Y-88537131D01*
X171470483Y-88551745D01*
X171449439Y-88564358D01*
X171427261Y-88574848D01*
X171404161Y-88583113D01*
X171380363Y-88589074D01*
X171356094Y-88592674D01*
X171331590Y-88593878D01*
X168331590Y-88593878D01*
X168307086Y-88592674D01*
X168282817Y-88589074D01*
X168259019Y-88583113D01*
X168235919Y-88574848D01*
X168213741Y-88564358D01*
X168192697Y-88551745D01*
X168172992Y-88537131D01*
X168154813Y-88520655D01*
X168138337Y-88502476D01*
X168123723Y-88482771D01*
X168111110Y-88461727D01*
X168100620Y-88439549D01*
X168092355Y-88416449D01*
X168086394Y-88392651D01*
X168082794Y-88368382D01*
X168081590Y-88343878D01*
X168081590Y-87243878D01*
X168082794Y-87219374D01*
X168086394Y-87195105D01*
X168092355Y-87171307D01*
X168100620Y-87148207D01*
X168111110Y-87126029D01*
X168123723Y-87104985D01*
X168138337Y-87085280D01*
X168154813Y-87067101D01*
X168172992Y-87050625D01*
X168192697Y-87036011D01*
X168213741Y-87023398D01*
X168235919Y-87012908D01*
X168259019Y-87004643D01*
X168282817Y-86998682D01*
X168307086Y-86995082D01*
X168331590Y-86993878D01*
X171331590Y-86993878D01*
X171356094Y-86995082D01*
X171356094Y-86995082D01*
G37*
D16*
X169831590Y-87793878D03*
G04 #@! TD*
D12*
G04 #@! TO.C,R3*
G36*
X104658305Y-61302604D02*
X104682573Y-61306204D01*
X104706372Y-61312165D01*
X104729471Y-61320430D01*
X104751650Y-61330920D01*
X104772693Y-61343532D01*
X104792399Y-61358147D01*
X104810577Y-61374623D01*
X104827053Y-61392801D01*
X104841668Y-61412507D01*
X104854280Y-61433550D01*
X104864770Y-61455729D01*
X104873035Y-61478828D01*
X104878996Y-61502627D01*
X104882596Y-61526895D01*
X104883800Y-61551399D01*
X104883800Y-62451401D01*
X104882596Y-62475905D01*
X104878996Y-62500173D01*
X104873035Y-62523972D01*
X104864770Y-62547071D01*
X104854280Y-62569250D01*
X104841668Y-62590293D01*
X104827053Y-62609999D01*
X104810577Y-62628177D01*
X104792399Y-62644653D01*
X104772693Y-62659268D01*
X104751650Y-62671880D01*
X104729471Y-62682370D01*
X104706372Y-62690635D01*
X104682573Y-62696596D01*
X104658305Y-62700196D01*
X104633801Y-62701400D01*
X103983799Y-62701400D01*
X103959295Y-62700196D01*
X103935027Y-62696596D01*
X103911228Y-62690635D01*
X103888129Y-62682370D01*
X103865950Y-62671880D01*
X103844907Y-62659268D01*
X103825201Y-62644653D01*
X103807023Y-62628177D01*
X103790547Y-62609999D01*
X103775932Y-62590293D01*
X103763320Y-62569250D01*
X103752830Y-62547071D01*
X103744565Y-62523972D01*
X103738604Y-62500173D01*
X103735004Y-62475905D01*
X103733800Y-62451401D01*
X103733800Y-61551399D01*
X103735004Y-61526895D01*
X103738604Y-61502627D01*
X103744565Y-61478828D01*
X103752830Y-61455729D01*
X103763320Y-61433550D01*
X103775932Y-61412507D01*
X103790547Y-61392801D01*
X103807023Y-61374623D01*
X103825201Y-61358147D01*
X103844907Y-61343532D01*
X103865950Y-61330920D01*
X103888129Y-61320430D01*
X103911228Y-61312165D01*
X103935027Y-61306204D01*
X103959295Y-61302604D01*
X103983799Y-61301400D01*
X104633801Y-61301400D01*
X104658305Y-61302604D01*
X104658305Y-61302604D01*
G37*
D13*
X104308800Y-62001400D03*
D12*
G36*
X106708305Y-61302604D02*
X106732573Y-61306204D01*
X106756372Y-61312165D01*
X106779471Y-61320430D01*
X106801650Y-61330920D01*
X106822693Y-61343532D01*
X106842399Y-61358147D01*
X106860577Y-61374623D01*
X106877053Y-61392801D01*
X106891668Y-61412507D01*
X106904280Y-61433550D01*
X106914770Y-61455729D01*
X106923035Y-61478828D01*
X106928996Y-61502627D01*
X106932596Y-61526895D01*
X106933800Y-61551399D01*
X106933800Y-62451401D01*
X106932596Y-62475905D01*
X106928996Y-62500173D01*
X106923035Y-62523972D01*
X106914770Y-62547071D01*
X106904280Y-62569250D01*
X106891668Y-62590293D01*
X106877053Y-62609999D01*
X106860577Y-62628177D01*
X106842399Y-62644653D01*
X106822693Y-62659268D01*
X106801650Y-62671880D01*
X106779471Y-62682370D01*
X106756372Y-62690635D01*
X106732573Y-62696596D01*
X106708305Y-62700196D01*
X106683801Y-62701400D01*
X106033799Y-62701400D01*
X106009295Y-62700196D01*
X105985027Y-62696596D01*
X105961228Y-62690635D01*
X105938129Y-62682370D01*
X105915950Y-62671880D01*
X105894907Y-62659268D01*
X105875201Y-62644653D01*
X105857023Y-62628177D01*
X105840547Y-62609999D01*
X105825932Y-62590293D01*
X105813320Y-62569250D01*
X105802830Y-62547071D01*
X105794565Y-62523972D01*
X105788604Y-62500173D01*
X105785004Y-62475905D01*
X105783800Y-62451401D01*
X105783800Y-61551399D01*
X105785004Y-61526895D01*
X105788604Y-61502627D01*
X105794565Y-61478828D01*
X105802830Y-61455729D01*
X105813320Y-61433550D01*
X105825932Y-61412507D01*
X105840547Y-61392801D01*
X105857023Y-61374623D01*
X105875201Y-61358147D01*
X105894907Y-61343532D01*
X105915950Y-61330920D01*
X105938129Y-61320430D01*
X105961228Y-61312165D01*
X105985027Y-61306204D01*
X106009295Y-61302604D01*
X106033799Y-61301400D01*
X106683801Y-61301400D01*
X106708305Y-61302604D01*
X106708305Y-61302604D01*
G37*
D13*
X106358800Y-62001400D03*
G04 #@! TD*
D17*
G04 #@! TO.C,U2*
X98684590Y-86142878D03*
X98684590Y-84872878D03*
X98684590Y-83602878D03*
X98684590Y-82332878D03*
X98684590Y-81062878D03*
X98684590Y-79792878D03*
X98684590Y-78522878D03*
X104084590Y-78522878D03*
X104084590Y-79792878D03*
X104084590Y-81062878D03*
X104084590Y-82332878D03*
X104084590Y-83602878D03*
X104084590Y-84872878D03*
X104084590Y-86142878D03*
G04 #@! TD*
D12*
G04 #@! TO.C,C3*
G36*
X166602094Y-77796082D02*
X166626363Y-77799682D01*
X166650161Y-77805643D01*
X166673261Y-77813908D01*
X166695439Y-77824398D01*
X166716483Y-77837011D01*
X166736188Y-77851625D01*
X166754367Y-77868101D01*
X166770843Y-77886280D01*
X166785457Y-77905985D01*
X166798070Y-77927029D01*
X166808560Y-77949207D01*
X166816825Y-77972307D01*
X166822786Y-77996105D01*
X166826386Y-78020374D01*
X166827590Y-78044878D01*
X166827590Y-81044878D01*
X166826386Y-81069382D01*
X166822786Y-81093651D01*
X166816825Y-81117449D01*
X166808560Y-81140549D01*
X166798070Y-81162727D01*
X166785457Y-81183771D01*
X166770843Y-81203476D01*
X166754367Y-81221655D01*
X166736188Y-81238131D01*
X166716483Y-81252745D01*
X166695439Y-81265358D01*
X166673261Y-81275848D01*
X166650161Y-81284113D01*
X166626363Y-81290074D01*
X166602094Y-81293674D01*
X166577590Y-81294878D01*
X165477590Y-81294878D01*
X165453086Y-81293674D01*
X165428817Y-81290074D01*
X165405019Y-81284113D01*
X165381919Y-81275848D01*
X165359741Y-81265358D01*
X165338697Y-81252745D01*
X165318992Y-81238131D01*
X165300813Y-81221655D01*
X165284337Y-81203476D01*
X165269723Y-81183771D01*
X165257110Y-81162727D01*
X165246620Y-81140549D01*
X165238355Y-81117449D01*
X165232394Y-81093651D01*
X165228794Y-81069382D01*
X165227590Y-81044878D01*
X165227590Y-78044878D01*
X165228794Y-78020374D01*
X165232394Y-77996105D01*
X165238355Y-77972307D01*
X165246620Y-77949207D01*
X165257110Y-77927029D01*
X165269723Y-77905985D01*
X165284337Y-77886280D01*
X165300813Y-77868101D01*
X165318992Y-77851625D01*
X165338697Y-77837011D01*
X165359741Y-77824398D01*
X165381919Y-77813908D01*
X165405019Y-77805643D01*
X165428817Y-77799682D01*
X165453086Y-77796082D01*
X165477590Y-77794878D01*
X166577590Y-77794878D01*
X166602094Y-77796082D01*
X166602094Y-77796082D01*
G37*
D16*
X166027590Y-79544878D03*
D12*
G36*
X166602094Y-72196082D02*
X166626363Y-72199682D01*
X166650161Y-72205643D01*
X166673261Y-72213908D01*
X166695439Y-72224398D01*
X166716483Y-72237011D01*
X166736188Y-72251625D01*
X166754367Y-72268101D01*
X166770843Y-72286280D01*
X166785457Y-72305985D01*
X166798070Y-72327029D01*
X166808560Y-72349207D01*
X166816825Y-72372307D01*
X166822786Y-72396105D01*
X166826386Y-72420374D01*
X166827590Y-72444878D01*
X166827590Y-75444878D01*
X166826386Y-75469382D01*
X166822786Y-75493651D01*
X166816825Y-75517449D01*
X166808560Y-75540549D01*
X166798070Y-75562727D01*
X166785457Y-75583771D01*
X166770843Y-75603476D01*
X166754367Y-75621655D01*
X166736188Y-75638131D01*
X166716483Y-75652745D01*
X166695439Y-75665358D01*
X166673261Y-75675848D01*
X166650161Y-75684113D01*
X166626363Y-75690074D01*
X166602094Y-75693674D01*
X166577590Y-75694878D01*
X165477590Y-75694878D01*
X165453086Y-75693674D01*
X165428817Y-75690074D01*
X165405019Y-75684113D01*
X165381919Y-75675848D01*
X165359741Y-75665358D01*
X165338697Y-75652745D01*
X165318992Y-75638131D01*
X165300813Y-75621655D01*
X165284337Y-75603476D01*
X165269723Y-75583771D01*
X165257110Y-75562727D01*
X165246620Y-75540549D01*
X165238355Y-75517449D01*
X165232394Y-75493651D01*
X165228794Y-75469382D01*
X165227590Y-75444878D01*
X165227590Y-72444878D01*
X165228794Y-72420374D01*
X165232394Y-72396105D01*
X165238355Y-72372307D01*
X165246620Y-72349207D01*
X165257110Y-72327029D01*
X165269723Y-72305985D01*
X165284337Y-72286280D01*
X165300813Y-72268101D01*
X165318992Y-72251625D01*
X165338697Y-72237011D01*
X165359741Y-72224398D01*
X165381919Y-72213908D01*
X165405019Y-72205643D01*
X165428817Y-72199682D01*
X165453086Y-72196082D01*
X165477590Y-72194878D01*
X166577590Y-72194878D01*
X166602094Y-72196082D01*
X166602094Y-72196082D01*
G37*
D16*
X166027590Y-73944878D03*
G04 #@! TD*
M02*
