M48
;DRILL file {KiCad (5.0.1)-3} date 11/29/18 18:52:33
;FORMAT={-:-/ absolute / metric / decimal}
FMAT,2
METRIC,TZ
T1C0.762
T2C0.800
T3C1.000
T4C1.200
T5C1.520
T6C3.200
T7C3.200
%
G90
G05
M71
T1
X136.017Y-54.813
X136.017Y-57.353
X136.017Y-59.893
X136.017Y-62.433
X161.671Y-52.019
X161.671Y-54.559
X161.671Y-57.099
X161.671Y-59.639
X161.671Y-62.179
X161.671Y-64.719
T2
X93.13Y-77.253
X93.13Y-79.793
X93.13Y-82.333
X93.13Y-84.873
X93.13Y-87.413
X93.13Y-89.953
X112.18Y-71.919
X114.72Y-71.919
X117.26Y-71.919
X119.8Y-71.919
X122.34Y-71.919
X124.88Y-71.919
X100.889Y-54.254
X100.889Y-56.794
X100.889Y-59.334
X100.889Y-61.874
X100.889Y-64.414
X100.889Y-66.954
X115.228Y-78.269
X115.228Y-93.509
X117.768Y-78.269
X117.768Y-93.509
X120.308Y-78.269
X120.308Y-93.509
X122.848Y-78.269
X122.848Y-93.509
X125.388Y-78.269
X125.388Y-93.509
X127.928Y-78.269
X127.928Y-93.509
X130.468Y-78.269
X130.468Y-93.509
X133.008Y-78.269
X133.008Y-93.509
X135.548Y-78.269
X135.548Y-93.509
X138.088Y-78.269
X138.088Y-93.509
X140.628Y-78.269
X140.628Y-93.509
X143.168Y-78.269
X143.168Y-93.509
X145.708Y-78.269
X145.708Y-93.509
X148.248Y-78.269
X148.248Y-93.509
X150.788Y-78.269
X150.788Y-93.509
T3
X81.446Y-80.682
X81.446Y-83.222
X81.446Y-85.762
X81.446Y-88.302
X81.446Y-90.842
X126.238Y-41.656
X127.623Y-38.816
X129.008Y-41.656
X130.393Y-38.816
X131.778Y-41.656
X133.163Y-38.816
X134.548Y-41.656
X135.933Y-38.816
X137.318Y-41.656
X93.13Y-93.763
X93.13Y-96.303
X93.13Y-98.843
X93.13Y-101.383
X160.821Y-80.047
X160.821Y-82.587
X160.821Y-85.127
T4
X104.687Y-71.284
X104.687Y-96.684
X128.69Y-72.3
X154.09Y-72.3
T5
X172.251Y-50.456
X172.251Y-55.536
X172.251Y-60.616
X172.251Y-65.696
X83.478Y-48.043
X83.478Y-53.123
X83.478Y-58.203
X83.478Y-63.283
X83.478Y-68.871
X83.478Y-73.951
X159.043Y-98.97
X164.123Y-98.97
T6
X119.278Y-40.236
X144.278Y-40.236
T7
X170.383Y-40.804
X170.383Y-95.804
X85.383Y-95.804
X85.383Y-40.804
T0
M30
