G04 #@! TF.GenerationSoftware,KiCad,Pcbnew,(5.0.1)-3*
G04 #@! TF.CreationDate,2018-11-29T18:52:30+01:00*
G04 #@! TF.ProjectId,Board,426F6172642E6B696361645F70636200,rev?*
G04 #@! TF.SameCoordinates,Original*
G04 #@! TF.FileFunction,Soldermask,Bot*
G04 #@! TF.FilePolarity,Negative*
%FSLAX46Y46*%
G04 Gerber Fmt 4.6, Leading zero omitted, Abs format (unit mm)*
G04 Created by KiCad (PCBNEW (5.0.1)-3) date 11/29/18 18:52:30*
%MOMM*%
%LPD*%
G01*
G04 APERTURE LIST*
%ADD10C,0.100000*%
G04 APERTURE END LIST*
D10*
G36*
X97655267Y-101151343D02*
X97692954Y-101162776D01*
X97727693Y-101181344D01*
X97758138Y-101206330D01*
X97783124Y-101236775D01*
X97801692Y-101271514D01*
X97813125Y-101309201D01*
X97817590Y-101354539D01*
X97817590Y-102191217D01*
X97813125Y-102236555D01*
X97801692Y-102274242D01*
X97783124Y-102308981D01*
X97758138Y-102339426D01*
X97727693Y-102364412D01*
X97692954Y-102382980D01*
X97655267Y-102394413D01*
X97609929Y-102398878D01*
X96523251Y-102398878D01*
X96477913Y-102394413D01*
X96440226Y-102382980D01*
X96405487Y-102364412D01*
X96375042Y-102339426D01*
X96350056Y-102308981D01*
X96331488Y-102274242D01*
X96320055Y-102236555D01*
X96315590Y-102191217D01*
X96315590Y-101354539D01*
X96320055Y-101309201D01*
X96331488Y-101271514D01*
X96350056Y-101236775D01*
X96375042Y-101206330D01*
X96405487Y-101181344D01*
X96440226Y-101162776D01*
X96477913Y-101151343D01*
X96523251Y-101146878D01*
X97609929Y-101146878D01*
X97655267Y-101151343D01*
X97655267Y-101151343D01*
G37*
G36*
X94030590Y-102283878D02*
X92228590Y-102283878D01*
X92228590Y-100481878D01*
X94030590Y-100481878D01*
X94030590Y-102283878D01*
X94030590Y-102283878D01*
G37*
G36*
X160593590Y-100520878D02*
X157491590Y-100520878D01*
X157491590Y-97418878D01*
X160593590Y-97418878D01*
X160593590Y-100520878D01*
X160593590Y-100520878D01*
G37*
G36*
X164475117Y-97458614D02*
X164575000Y-97478482D01*
X164857264Y-97595399D01*
X165111295Y-97765137D01*
X165327331Y-97981173D01*
X165497069Y-98235204D01*
X165553338Y-98371051D01*
X165613986Y-98517469D01*
X165673590Y-98817116D01*
X165673590Y-99122640D01*
X165652982Y-99226242D01*
X165613986Y-99422288D01*
X165497069Y-99704552D01*
X165327331Y-99958583D01*
X165111295Y-100174619D01*
X164857264Y-100344357D01*
X164575000Y-100461274D01*
X164475117Y-100481142D01*
X164275352Y-100520878D01*
X163969828Y-100520878D01*
X163770063Y-100481142D01*
X163670180Y-100461274D01*
X163387916Y-100344357D01*
X163133885Y-100174619D01*
X162917849Y-99958583D01*
X162748111Y-99704552D01*
X162631194Y-99422288D01*
X162592198Y-99226242D01*
X162571590Y-99122640D01*
X162571590Y-98817116D01*
X162631194Y-98517469D01*
X162691842Y-98371051D01*
X162748111Y-98235204D01*
X162917849Y-97981173D01*
X163133885Y-97765137D01*
X163387916Y-97595399D01*
X163670180Y-97478482D01*
X163770063Y-97458614D01*
X163969828Y-97418878D01*
X164275352Y-97418878D01*
X164475117Y-97458614D01*
X164475117Y-97458614D01*
G37*
G36*
X97655267Y-99101343D02*
X97692954Y-99112776D01*
X97727693Y-99131344D01*
X97758138Y-99156330D01*
X97783124Y-99186775D01*
X97801692Y-99221514D01*
X97813125Y-99259201D01*
X97817590Y-99304539D01*
X97817590Y-100141217D01*
X97813125Y-100186555D01*
X97801692Y-100224242D01*
X97783124Y-100258981D01*
X97758138Y-100289426D01*
X97727693Y-100314412D01*
X97692954Y-100332980D01*
X97655267Y-100344413D01*
X97609929Y-100348878D01*
X96523251Y-100348878D01*
X96477913Y-100344413D01*
X96440226Y-100332980D01*
X96405487Y-100314412D01*
X96375042Y-100289426D01*
X96350056Y-100258981D01*
X96331488Y-100224242D01*
X96320055Y-100186555D01*
X96315590Y-100141217D01*
X96315590Y-99304539D01*
X96320055Y-99259201D01*
X96331488Y-99221514D01*
X96350056Y-99186775D01*
X96375042Y-99156330D01*
X96405487Y-99131344D01*
X96440226Y-99112776D01*
X96477913Y-99101343D01*
X96523251Y-99096878D01*
X97609929Y-99096878D01*
X97655267Y-99101343D01*
X97655267Y-99101343D01*
G37*
G36*
X93240032Y-97948396D02*
X93306217Y-97954915D01*
X93392778Y-97981173D01*
X93476057Y-98006435D01*
X93614677Y-98080530D01*
X93632581Y-98090100D01*
X93668319Y-98119430D01*
X93769776Y-98202692D01*
X93817792Y-98261201D01*
X93882368Y-98339887D01*
X93882369Y-98339889D01*
X93966033Y-98496411D01*
X93966033Y-98496412D01*
X94017553Y-98666251D01*
X94034949Y-98842878D01*
X94017553Y-99019505D01*
X93987797Y-99117596D01*
X93966033Y-99189345D01*
X93927742Y-99260981D01*
X93882368Y-99345869D01*
X93878257Y-99350878D01*
X93769776Y-99483064D01*
X93668319Y-99566326D01*
X93632581Y-99595656D01*
X93632579Y-99595657D01*
X93476057Y-99679321D01*
X93419443Y-99696494D01*
X93306217Y-99730841D01*
X93240033Y-99737359D01*
X93173850Y-99743878D01*
X93085330Y-99743878D01*
X93019147Y-99737359D01*
X92952963Y-99730841D01*
X92839737Y-99696494D01*
X92783123Y-99679321D01*
X92626601Y-99595657D01*
X92626599Y-99595656D01*
X92590861Y-99566326D01*
X92489404Y-99483064D01*
X92380923Y-99350878D01*
X92376812Y-99345869D01*
X92331438Y-99260981D01*
X92293147Y-99189345D01*
X92271383Y-99117596D01*
X92241627Y-99019505D01*
X92224231Y-98842878D01*
X92241627Y-98666251D01*
X92293147Y-98496412D01*
X92293147Y-98496411D01*
X92376811Y-98339889D01*
X92376812Y-98339887D01*
X92441388Y-98261201D01*
X92489404Y-98202692D01*
X92590861Y-98119430D01*
X92626599Y-98090100D01*
X92644503Y-98080530D01*
X92783123Y-98006435D01*
X92866402Y-97981173D01*
X92952963Y-97954915D01*
X93019148Y-97948396D01*
X93085330Y-97941878D01*
X93173850Y-97941878D01*
X93240032Y-97948396D01*
X93240032Y-97948396D01*
G37*
G36*
X136136267Y-98103343D02*
X136173954Y-98114776D01*
X136208693Y-98133344D01*
X136239138Y-98158330D01*
X136264124Y-98188775D01*
X136282692Y-98223514D01*
X136294125Y-98261201D01*
X136298590Y-98306539D01*
X136298590Y-99143217D01*
X136294125Y-99188555D01*
X136282692Y-99226242D01*
X136264124Y-99260981D01*
X136239138Y-99291426D01*
X136208693Y-99316412D01*
X136173954Y-99334980D01*
X136136267Y-99346413D01*
X136090929Y-99350878D01*
X135004251Y-99350878D01*
X134958913Y-99346413D01*
X134921226Y-99334980D01*
X134886487Y-99316412D01*
X134856042Y-99291426D01*
X134831056Y-99260981D01*
X134812488Y-99226242D01*
X134801055Y-99188555D01*
X134796590Y-99143217D01*
X134796590Y-98306539D01*
X134801055Y-98261201D01*
X134812488Y-98223514D01*
X134831056Y-98188775D01*
X134856042Y-98158330D01*
X134886487Y-98133344D01*
X134921226Y-98114776D01*
X134958913Y-98103343D01*
X135004251Y-98098878D01*
X136090929Y-98098878D01*
X136136267Y-98103343D01*
X136136267Y-98103343D01*
G37*
G36*
X133596267Y-98103343D02*
X133633954Y-98114776D01*
X133668693Y-98133344D01*
X133699138Y-98158330D01*
X133724124Y-98188775D01*
X133742692Y-98223514D01*
X133754125Y-98261201D01*
X133758590Y-98306539D01*
X133758590Y-99143217D01*
X133754125Y-99188555D01*
X133742692Y-99226242D01*
X133724124Y-99260981D01*
X133699138Y-99291426D01*
X133668693Y-99316412D01*
X133633954Y-99334980D01*
X133596267Y-99346413D01*
X133550929Y-99350878D01*
X132464251Y-99350878D01*
X132418913Y-99346413D01*
X132381226Y-99334980D01*
X132346487Y-99316412D01*
X132316042Y-99291426D01*
X132291056Y-99260981D01*
X132272488Y-99226242D01*
X132261055Y-99188555D01*
X132256590Y-99143217D01*
X132256590Y-98306539D01*
X132261055Y-98261201D01*
X132272488Y-98223514D01*
X132291056Y-98188775D01*
X132316042Y-98158330D01*
X132346487Y-98133344D01*
X132381226Y-98114776D01*
X132418913Y-98103343D01*
X132464251Y-98098878D01*
X133550929Y-98098878D01*
X133596267Y-98103343D01*
X133596267Y-98103343D01*
G37*
G36*
X104931829Y-95450979D02*
X105167643Y-95522512D01*
X105384971Y-95638677D01*
X105575461Y-95795007D01*
X105731791Y-95985497D01*
X105847956Y-96202825D01*
X105919489Y-96438639D01*
X105943643Y-96683878D01*
X105919489Y-96929117D01*
X105847956Y-97164931D01*
X105731791Y-97382259D01*
X105575461Y-97572749D01*
X105384971Y-97729079D01*
X105167643Y-97845244D01*
X104931829Y-97916777D01*
X104748047Y-97934878D01*
X104625133Y-97934878D01*
X104441351Y-97916777D01*
X104205537Y-97845244D01*
X103988209Y-97729079D01*
X103797719Y-97572749D01*
X103641389Y-97382259D01*
X103525224Y-97164931D01*
X103453691Y-96929117D01*
X103429537Y-96683878D01*
X103453691Y-96438639D01*
X103525224Y-96202825D01*
X103641389Y-95985497D01*
X103797719Y-95795007D01*
X103988209Y-95638677D01*
X104205537Y-95522512D01*
X104441351Y-95450979D01*
X104625133Y-95432878D01*
X104748047Y-95432878D01*
X104931829Y-95450979D01*
X104931829Y-95450979D01*
G37*
G36*
X143749267Y-96281465D02*
X143786954Y-96292898D01*
X143821693Y-96311466D01*
X143852138Y-96336452D01*
X143877124Y-96366897D01*
X143895692Y-96401636D01*
X143907125Y-96439323D01*
X143911590Y-96484661D01*
X143911590Y-97571339D01*
X143907125Y-97616677D01*
X143895692Y-97654364D01*
X143877124Y-97689103D01*
X143852138Y-97719548D01*
X143821693Y-97744534D01*
X143786954Y-97763102D01*
X143749267Y-97774535D01*
X143703929Y-97779000D01*
X142867251Y-97779000D01*
X142821913Y-97774535D01*
X142784226Y-97763102D01*
X142749487Y-97744534D01*
X142719042Y-97719548D01*
X142694056Y-97689103D01*
X142675488Y-97654364D01*
X142664055Y-97616677D01*
X142659590Y-97571339D01*
X142659590Y-96484661D01*
X142664055Y-96439323D01*
X142675488Y-96401636D01*
X142694056Y-96366897D01*
X142719042Y-96336452D01*
X142749487Y-96311466D01*
X142784226Y-96292898D01*
X142821913Y-96281465D01*
X142867251Y-96277000D01*
X143703929Y-96277000D01*
X143749267Y-96281465D01*
X143749267Y-96281465D01*
G37*
G36*
X145799267Y-96281465D02*
X145836954Y-96292898D01*
X145871693Y-96311466D01*
X145902138Y-96336452D01*
X145927124Y-96366897D01*
X145945692Y-96401636D01*
X145957125Y-96439323D01*
X145961590Y-96484661D01*
X145961590Y-97571339D01*
X145957125Y-97616677D01*
X145945692Y-97654364D01*
X145927124Y-97689103D01*
X145902138Y-97719548D01*
X145871693Y-97744534D01*
X145836954Y-97763102D01*
X145799267Y-97774535D01*
X145753929Y-97779000D01*
X144917251Y-97779000D01*
X144871913Y-97774535D01*
X144834226Y-97763102D01*
X144799487Y-97744534D01*
X144769042Y-97719548D01*
X144744056Y-97689103D01*
X144725488Y-97654364D01*
X144714055Y-97616677D01*
X144709590Y-97571339D01*
X144709590Y-96484661D01*
X144714055Y-96439323D01*
X144725488Y-96401636D01*
X144744056Y-96366897D01*
X144769042Y-96336452D01*
X144799487Y-96311466D01*
X144834226Y-96292898D01*
X144871913Y-96281465D01*
X144917251Y-96277000D01*
X145753929Y-96277000D01*
X145799267Y-96281465D01*
X145799267Y-96281465D01*
G37*
G36*
X170757846Y-94195176D02*
X170864169Y-94216325D01*
X171164632Y-94340781D01*
X171257843Y-94403063D01*
X171435044Y-94521465D01*
X171665003Y-94751424D01*
X171845688Y-95021838D01*
X171970143Y-95322300D01*
X172033590Y-95641267D01*
X172033590Y-95966489D01*
X172005376Y-96108330D01*
X171970143Y-96285457D01*
X171845687Y-96585920D01*
X171780233Y-96683878D01*
X171665003Y-96856332D01*
X171435044Y-97086291D01*
X171435041Y-97086293D01*
X171164632Y-97266975D01*
X171164631Y-97266976D01*
X171164630Y-97266976D01*
X171082783Y-97300878D01*
X170864169Y-97391431D01*
X170757846Y-97412580D01*
X170545201Y-97454878D01*
X170219979Y-97454878D01*
X170007334Y-97412580D01*
X169901011Y-97391431D01*
X169682397Y-97300878D01*
X169600550Y-97266976D01*
X169600549Y-97266976D01*
X169600548Y-97266975D01*
X169330139Y-97086293D01*
X169330136Y-97086291D01*
X169100177Y-96856332D01*
X168984947Y-96683878D01*
X168919493Y-96585920D01*
X168795037Y-96285457D01*
X168759804Y-96108330D01*
X168731590Y-95966489D01*
X168731590Y-95641267D01*
X168795037Y-95322300D01*
X168919492Y-95021838D01*
X169100177Y-94751424D01*
X169330136Y-94521465D01*
X169507337Y-94403063D01*
X169600548Y-94340781D01*
X169901011Y-94216325D01*
X170007334Y-94195176D01*
X170219979Y-94152878D01*
X170545201Y-94152878D01*
X170757846Y-94195176D01*
X170757846Y-94195176D01*
G37*
G36*
X85757846Y-94195176D02*
X85864169Y-94216325D01*
X86164632Y-94340781D01*
X86257843Y-94403063D01*
X86435044Y-94521465D01*
X86665003Y-94751424D01*
X86845688Y-95021838D01*
X86970143Y-95322300D01*
X87033590Y-95641267D01*
X87033590Y-95966489D01*
X87005376Y-96108330D01*
X86970143Y-96285457D01*
X86845687Y-96585920D01*
X86780233Y-96683878D01*
X86665003Y-96856332D01*
X86435044Y-97086291D01*
X86435041Y-97086293D01*
X86164632Y-97266975D01*
X86164631Y-97266976D01*
X86164630Y-97266976D01*
X86082783Y-97300878D01*
X85864169Y-97391431D01*
X85757846Y-97412580D01*
X85545201Y-97454878D01*
X85219979Y-97454878D01*
X85007334Y-97412580D01*
X84901011Y-97391431D01*
X84682397Y-97300878D01*
X84600550Y-97266976D01*
X84600549Y-97266976D01*
X84600548Y-97266975D01*
X84330139Y-97086293D01*
X84330136Y-97086291D01*
X84100177Y-96856332D01*
X83984947Y-96683878D01*
X83919493Y-96585920D01*
X83795037Y-96285457D01*
X83759804Y-96108330D01*
X83731590Y-95966489D01*
X83731590Y-95641267D01*
X83795037Y-95322300D01*
X83919492Y-95021838D01*
X84100177Y-94751424D01*
X84330136Y-94521465D01*
X84507337Y-94403063D01*
X84600548Y-94340781D01*
X84901011Y-94216325D01*
X85007334Y-94195176D01*
X85219979Y-94152878D01*
X85545201Y-94152878D01*
X85757846Y-94195176D01*
X85757846Y-94195176D01*
G37*
G36*
X136136267Y-96053343D02*
X136173954Y-96064776D01*
X136208693Y-96083344D01*
X136239138Y-96108330D01*
X136264124Y-96138775D01*
X136282692Y-96173514D01*
X136294125Y-96211201D01*
X136298590Y-96256539D01*
X136298590Y-97093217D01*
X136294125Y-97138555D01*
X136282692Y-97176242D01*
X136264124Y-97210981D01*
X136239138Y-97241426D01*
X136208693Y-97266412D01*
X136173954Y-97284980D01*
X136136267Y-97296413D01*
X136090929Y-97300878D01*
X135004251Y-97300878D01*
X134958913Y-97296413D01*
X134921226Y-97284980D01*
X134886487Y-97266412D01*
X134856042Y-97241426D01*
X134831056Y-97210981D01*
X134812488Y-97176242D01*
X134801055Y-97138555D01*
X134796590Y-97093217D01*
X134796590Y-96256539D01*
X134801055Y-96211201D01*
X134812488Y-96173514D01*
X134831056Y-96138775D01*
X134856042Y-96108330D01*
X134886487Y-96083344D01*
X134921226Y-96064776D01*
X134958913Y-96053343D01*
X135004251Y-96048878D01*
X136090929Y-96048878D01*
X136136267Y-96053343D01*
X136136267Y-96053343D01*
G37*
G36*
X133596267Y-96053343D02*
X133633954Y-96064776D01*
X133668693Y-96083344D01*
X133699138Y-96108330D01*
X133724124Y-96138775D01*
X133742692Y-96173514D01*
X133754125Y-96211201D01*
X133758590Y-96256539D01*
X133758590Y-97093217D01*
X133754125Y-97138555D01*
X133742692Y-97176242D01*
X133724124Y-97210981D01*
X133699138Y-97241426D01*
X133668693Y-97266412D01*
X133633954Y-97284980D01*
X133596267Y-97296413D01*
X133550929Y-97300878D01*
X132464251Y-97300878D01*
X132418913Y-97296413D01*
X132381226Y-97284980D01*
X132346487Y-97266412D01*
X132316042Y-97241426D01*
X132291056Y-97210981D01*
X132272488Y-97176242D01*
X132261055Y-97138555D01*
X132256590Y-97093217D01*
X132256590Y-96256539D01*
X132261055Y-96211201D01*
X132272488Y-96173514D01*
X132291056Y-96138775D01*
X132316042Y-96108330D01*
X132346487Y-96083344D01*
X132381226Y-96064776D01*
X132418913Y-96053343D01*
X132464251Y-96048878D01*
X133550929Y-96048878D01*
X133596267Y-96053343D01*
X133596267Y-96053343D01*
G37*
G36*
X93240032Y-95408396D02*
X93306217Y-95414915D01*
X93419443Y-95449262D01*
X93476057Y-95466435D01*
X93580968Y-95522512D01*
X93632581Y-95550100D01*
X93668319Y-95579430D01*
X93769776Y-95662692D01*
X93853038Y-95764149D01*
X93882368Y-95799887D01*
X93882369Y-95799889D01*
X93966033Y-95956411D01*
X93966033Y-95956412D01*
X94017553Y-96126251D01*
X94034949Y-96302878D01*
X94017553Y-96479505D01*
X93996419Y-96549173D01*
X93966033Y-96649345D01*
X93947574Y-96683878D01*
X93882368Y-96805869D01*
X93853038Y-96841607D01*
X93769776Y-96943064D01*
X93668319Y-97026326D01*
X93632581Y-97055656D01*
X93632579Y-97055657D01*
X93476057Y-97139321D01*
X93419443Y-97156494D01*
X93306217Y-97190841D01*
X93240033Y-97197359D01*
X93173850Y-97203878D01*
X93085330Y-97203878D01*
X93019147Y-97197359D01*
X92952963Y-97190841D01*
X92839737Y-97156494D01*
X92783123Y-97139321D01*
X92626601Y-97055657D01*
X92626599Y-97055656D01*
X92590861Y-97026326D01*
X92489404Y-96943064D01*
X92406142Y-96841607D01*
X92376812Y-96805869D01*
X92311606Y-96683878D01*
X92293147Y-96649345D01*
X92262761Y-96549173D01*
X92241627Y-96479505D01*
X92224231Y-96302878D01*
X92241627Y-96126251D01*
X92293147Y-95956412D01*
X92293147Y-95956411D01*
X92376811Y-95799889D01*
X92376812Y-95799887D01*
X92406142Y-95764149D01*
X92489404Y-95662692D01*
X92590861Y-95579430D01*
X92626599Y-95550100D01*
X92678212Y-95522512D01*
X92783123Y-95466435D01*
X92839737Y-95449262D01*
X92952963Y-95414915D01*
X93019148Y-95408396D01*
X93085330Y-95401878D01*
X93173850Y-95401878D01*
X93240032Y-95408396D01*
X93240032Y-95408396D01*
G37*
G36*
X166637125Y-93981678D02*
X166668330Y-93991144D01*
X166697077Y-94006509D01*
X166722277Y-94027191D01*
X166742959Y-94052391D01*
X166758324Y-94081138D01*
X166767790Y-94112343D01*
X166771590Y-94150923D01*
X166771590Y-96006833D01*
X166767790Y-96045413D01*
X166758324Y-96076618D01*
X166742959Y-96105365D01*
X166722277Y-96130565D01*
X166697077Y-96151247D01*
X166668330Y-96166612D01*
X166637125Y-96176078D01*
X166598545Y-96179878D01*
X161392635Y-96179878D01*
X161354055Y-96176078D01*
X161322850Y-96166612D01*
X161294103Y-96151247D01*
X161268903Y-96130565D01*
X161248221Y-96105365D01*
X161232856Y-96076618D01*
X161223390Y-96045413D01*
X161219590Y-96006833D01*
X161219590Y-94150923D01*
X161223390Y-94112343D01*
X161232856Y-94081138D01*
X161248221Y-94052391D01*
X161268903Y-94027191D01*
X161294103Y-94006509D01*
X161322850Y-93991144D01*
X161354055Y-93981678D01*
X161392635Y-93977878D01*
X166598545Y-93977878D01*
X166637125Y-93981678D01*
X166637125Y-93981678D01*
G37*
G36*
X93240033Y-92868397D02*
X93306217Y-92874915D01*
X93419443Y-92909262D01*
X93476057Y-92926435D01*
X93614677Y-93000530D01*
X93632581Y-93010100D01*
X93661459Y-93033800D01*
X93769776Y-93122692D01*
X93853038Y-93224149D01*
X93882368Y-93259887D01*
X93882369Y-93259889D01*
X93966033Y-93416411D01*
X93966033Y-93416412D01*
X94017553Y-93586251D01*
X94034949Y-93762878D01*
X94017553Y-93939505D01*
X93992511Y-94022057D01*
X93966033Y-94109345D01*
X93908850Y-94216325D01*
X93882368Y-94265869D01*
X93853038Y-94301607D01*
X93769776Y-94403064D01*
X93668319Y-94486326D01*
X93632581Y-94515656D01*
X93632579Y-94515657D01*
X93476057Y-94599321D01*
X93419443Y-94616494D01*
X93306217Y-94650841D01*
X93240032Y-94657360D01*
X93173850Y-94663878D01*
X93085330Y-94663878D01*
X93019148Y-94657360D01*
X92952963Y-94650841D01*
X92839737Y-94616494D01*
X92783123Y-94599321D01*
X92626601Y-94515657D01*
X92626599Y-94515656D01*
X92590861Y-94486326D01*
X92489404Y-94403064D01*
X92406142Y-94301607D01*
X92376812Y-94265869D01*
X92350330Y-94216325D01*
X92293147Y-94109345D01*
X92266669Y-94022057D01*
X92241627Y-93939505D01*
X92224231Y-93762878D01*
X92241627Y-93586251D01*
X92293147Y-93416412D01*
X92293147Y-93416411D01*
X92376811Y-93259889D01*
X92376812Y-93259887D01*
X92406142Y-93224149D01*
X92489404Y-93122692D01*
X92597721Y-93033800D01*
X92626599Y-93010100D01*
X92644503Y-93000530D01*
X92783123Y-92926435D01*
X92839737Y-92909262D01*
X92952963Y-92874915D01*
X93019147Y-92868397D01*
X93085330Y-92861878D01*
X93173850Y-92861878D01*
X93240033Y-92868397D01*
X93240033Y-92868397D01*
G37*
G36*
X115394411Y-92670191D02*
X115394414Y-92670192D01*
X115394415Y-92670192D01*
X115554829Y-92718853D01*
X115554831Y-92718854D01*
X115554834Y-92718855D01*
X115702668Y-92797873D01*
X115832249Y-92904219D01*
X115938595Y-93033800D01*
X116017613Y-93181634D01*
X116017614Y-93181637D01*
X116017615Y-93181639D01*
X116066276Y-93342053D01*
X116066277Y-93342057D01*
X116082707Y-93508878D01*
X116066277Y-93675699D01*
X116066276Y-93675702D01*
X116066276Y-93675703D01*
X116039832Y-93762878D01*
X116017613Y-93836122D01*
X115938595Y-93983956D01*
X115832249Y-94113537D01*
X115702668Y-94219883D01*
X115554834Y-94298901D01*
X115554831Y-94298902D01*
X115554829Y-94298903D01*
X115394415Y-94347564D01*
X115394414Y-94347564D01*
X115394411Y-94347565D01*
X115269394Y-94359878D01*
X115185786Y-94359878D01*
X115060769Y-94347565D01*
X115060766Y-94347564D01*
X115060765Y-94347564D01*
X114900351Y-94298903D01*
X114900349Y-94298902D01*
X114900346Y-94298901D01*
X114752512Y-94219883D01*
X114622931Y-94113537D01*
X114516585Y-93983956D01*
X114437567Y-93836122D01*
X114415349Y-93762878D01*
X114388904Y-93675703D01*
X114388904Y-93675702D01*
X114388903Y-93675699D01*
X114372473Y-93508878D01*
X114388903Y-93342057D01*
X114388904Y-93342053D01*
X114437565Y-93181639D01*
X114437566Y-93181637D01*
X114437567Y-93181634D01*
X114516585Y-93033800D01*
X114622931Y-92904219D01*
X114752512Y-92797873D01*
X114900346Y-92718855D01*
X114900349Y-92718854D01*
X114900351Y-92718853D01*
X115060765Y-92670192D01*
X115060766Y-92670192D01*
X115060769Y-92670191D01*
X115185786Y-92657878D01*
X115269394Y-92657878D01*
X115394411Y-92670191D01*
X115394411Y-92670191D01*
G37*
G36*
X130634411Y-92670191D02*
X130634414Y-92670192D01*
X130634415Y-92670192D01*
X130794829Y-92718853D01*
X130794831Y-92718854D01*
X130794834Y-92718855D01*
X130942668Y-92797873D01*
X131072249Y-92904219D01*
X131178595Y-93033800D01*
X131257613Y-93181634D01*
X131257614Y-93181637D01*
X131257615Y-93181639D01*
X131306276Y-93342053D01*
X131306277Y-93342057D01*
X131322707Y-93508878D01*
X131306277Y-93675699D01*
X131306276Y-93675702D01*
X131306276Y-93675703D01*
X131279832Y-93762878D01*
X131257613Y-93836122D01*
X131178595Y-93983956D01*
X131072249Y-94113537D01*
X130942668Y-94219883D01*
X130794834Y-94298901D01*
X130794831Y-94298902D01*
X130794829Y-94298903D01*
X130634415Y-94347564D01*
X130634414Y-94347564D01*
X130634411Y-94347565D01*
X130509394Y-94359878D01*
X130425786Y-94359878D01*
X130300769Y-94347565D01*
X130300766Y-94347564D01*
X130300765Y-94347564D01*
X130140351Y-94298903D01*
X130140349Y-94298902D01*
X130140346Y-94298901D01*
X129992512Y-94219883D01*
X129862931Y-94113537D01*
X129756585Y-93983956D01*
X129677567Y-93836122D01*
X129655349Y-93762878D01*
X129628904Y-93675703D01*
X129628904Y-93675702D01*
X129628903Y-93675699D01*
X129612473Y-93508878D01*
X129628903Y-93342057D01*
X129628904Y-93342053D01*
X129677565Y-93181639D01*
X129677566Y-93181637D01*
X129677567Y-93181634D01*
X129756585Y-93033800D01*
X129862931Y-92904219D01*
X129992512Y-92797873D01*
X130140346Y-92718855D01*
X130140349Y-92718854D01*
X130140351Y-92718853D01*
X130300765Y-92670192D01*
X130300766Y-92670192D01*
X130300769Y-92670191D01*
X130425786Y-92657878D01*
X130509394Y-92657878D01*
X130634411Y-92670191D01*
X130634411Y-92670191D01*
G37*
G36*
X133174411Y-92670191D02*
X133174414Y-92670192D01*
X133174415Y-92670192D01*
X133334829Y-92718853D01*
X133334831Y-92718854D01*
X133334834Y-92718855D01*
X133482668Y-92797873D01*
X133612249Y-92904219D01*
X133718595Y-93033800D01*
X133797613Y-93181634D01*
X133797614Y-93181637D01*
X133797615Y-93181639D01*
X133846276Y-93342053D01*
X133846277Y-93342057D01*
X133862707Y-93508878D01*
X133846277Y-93675699D01*
X133846276Y-93675702D01*
X133846276Y-93675703D01*
X133819832Y-93762878D01*
X133797613Y-93836122D01*
X133718595Y-93983956D01*
X133612249Y-94113537D01*
X133482668Y-94219883D01*
X133334834Y-94298901D01*
X133334831Y-94298902D01*
X133334829Y-94298903D01*
X133174415Y-94347564D01*
X133174414Y-94347564D01*
X133174411Y-94347565D01*
X133049394Y-94359878D01*
X132965786Y-94359878D01*
X132840769Y-94347565D01*
X132840766Y-94347564D01*
X132840765Y-94347564D01*
X132680351Y-94298903D01*
X132680349Y-94298902D01*
X132680346Y-94298901D01*
X132532512Y-94219883D01*
X132402931Y-94113537D01*
X132296585Y-93983956D01*
X132217567Y-93836122D01*
X132195349Y-93762878D01*
X132168904Y-93675703D01*
X132168904Y-93675702D01*
X132168903Y-93675699D01*
X132152473Y-93508878D01*
X132168903Y-93342057D01*
X132168904Y-93342053D01*
X132217565Y-93181639D01*
X132217566Y-93181637D01*
X132217567Y-93181634D01*
X132296585Y-93033800D01*
X132402931Y-92904219D01*
X132532512Y-92797873D01*
X132680346Y-92718855D01*
X132680349Y-92718854D01*
X132680351Y-92718853D01*
X132840765Y-92670192D01*
X132840766Y-92670192D01*
X132840769Y-92670191D01*
X132965786Y-92657878D01*
X133049394Y-92657878D01*
X133174411Y-92670191D01*
X133174411Y-92670191D01*
G37*
G36*
X135714411Y-92670191D02*
X135714414Y-92670192D01*
X135714415Y-92670192D01*
X135874829Y-92718853D01*
X135874831Y-92718854D01*
X135874834Y-92718855D01*
X136022668Y-92797873D01*
X136152249Y-92904219D01*
X136258595Y-93033800D01*
X136337613Y-93181634D01*
X136337614Y-93181637D01*
X136337615Y-93181639D01*
X136386276Y-93342053D01*
X136386277Y-93342057D01*
X136402707Y-93508878D01*
X136386277Y-93675699D01*
X136386276Y-93675702D01*
X136386276Y-93675703D01*
X136359832Y-93762878D01*
X136337613Y-93836122D01*
X136258595Y-93983956D01*
X136152249Y-94113537D01*
X136022668Y-94219883D01*
X135874834Y-94298901D01*
X135874831Y-94298902D01*
X135874829Y-94298903D01*
X135714415Y-94347564D01*
X135714414Y-94347564D01*
X135714411Y-94347565D01*
X135589394Y-94359878D01*
X135505786Y-94359878D01*
X135380769Y-94347565D01*
X135380766Y-94347564D01*
X135380765Y-94347564D01*
X135220351Y-94298903D01*
X135220349Y-94298902D01*
X135220346Y-94298901D01*
X135072512Y-94219883D01*
X134942931Y-94113537D01*
X134836585Y-93983956D01*
X134757567Y-93836122D01*
X134735349Y-93762878D01*
X134708904Y-93675703D01*
X134708904Y-93675702D01*
X134708903Y-93675699D01*
X134692473Y-93508878D01*
X134708903Y-93342057D01*
X134708904Y-93342053D01*
X134757565Y-93181639D01*
X134757566Y-93181637D01*
X134757567Y-93181634D01*
X134836585Y-93033800D01*
X134942931Y-92904219D01*
X135072512Y-92797873D01*
X135220346Y-92718855D01*
X135220349Y-92718854D01*
X135220351Y-92718853D01*
X135380765Y-92670192D01*
X135380766Y-92670192D01*
X135380769Y-92670191D01*
X135505786Y-92657878D01*
X135589394Y-92657878D01*
X135714411Y-92670191D01*
X135714411Y-92670191D01*
G37*
G36*
X138254411Y-92670191D02*
X138254414Y-92670192D01*
X138254415Y-92670192D01*
X138414829Y-92718853D01*
X138414831Y-92718854D01*
X138414834Y-92718855D01*
X138562668Y-92797873D01*
X138692249Y-92904219D01*
X138798595Y-93033800D01*
X138877613Y-93181634D01*
X138877614Y-93181637D01*
X138877615Y-93181639D01*
X138926276Y-93342053D01*
X138926277Y-93342057D01*
X138942707Y-93508878D01*
X138926277Y-93675699D01*
X138926276Y-93675702D01*
X138926276Y-93675703D01*
X138899832Y-93762878D01*
X138877613Y-93836122D01*
X138798595Y-93983956D01*
X138692249Y-94113537D01*
X138562668Y-94219883D01*
X138414834Y-94298901D01*
X138414831Y-94298902D01*
X138414829Y-94298903D01*
X138254415Y-94347564D01*
X138254414Y-94347564D01*
X138254411Y-94347565D01*
X138129394Y-94359878D01*
X138045786Y-94359878D01*
X137920769Y-94347565D01*
X137920766Y-94347564D01*
X137920765Y-94347564D01*
X137760351Y-94298903D01*
X137760349Y-94298902D01*
X137760346Y-94298901D01*
X137612512Y-94219883D01*
X137482931Y-94113537D01*
X137376585Y-93983956D01*
X137297567Y-93836122D01*
X137275349Y-93762878D01*
X137248904Y-93675703D01*
X137248904Y-93675702D01*
X137248903Y-93675699D01*
X137232473Y-93508878D01*
X137248903Y-93342057D01*
X137248904Y-93342053D01*
X137297565Y-93181639D01*
X137297566Y-93181637D01*
X137297567Y-93181634D01*
X137376585Y-93033800D01*
X137482931Y-92904219D01*
X137612512Y-92797873D01*
X137760346Y-92718855D01*
X137760349Y-92718854D01*
X137760351Y-92718853D01*
X137920765Y-92670192D01*
X137920766Y-92670192D01*
X137920769Y-92670191D01*
X138045786Y-92657878D01*
X138129394Y-92657878D01*
X138254411Y-92670191D01*
X138254411Y-92670191D01*
G37*
G36*
X140794411Y-92670191D02*
X140794414Y-92670192D01*
X140794415Y-92670192D01*
X140954829Y-92718853D01*
X140954831Y-92718854D01*
X140954834Y-92718855D01*
X141102668Y-92797873D01*
X141232249Y-92904219D01*
X141338595Y-93033800D01*
X141417613Y-93181634D01*
X141417614Y-93181637D01*
X141417615Y-93181639D01*
X141466276Y-93342053D01*
X141466277Y-93342057D01*
X141482707Y-93508878D01*
X141466277Y-93675699D01*
X141466276Y-93675702D01*
X141466276Y-93675703D01*
X141439832Y-93762878D01*
X141417613Y-93836122D01*
X141338595Y-93983956D01*
X141232249Y-94113537D01*
X141102668Y-94219883D01*
X140954834Y-94298901D01*
X140954831Y-94298902D01*
X140954829Y-94298903D01*
X140794415Y-94347564D01*
X140794414Y-94347564D01*
X140794411Y-94347565D01*
X140669394Y-94359878D01*
X140585786Y-94359878D01*
X140460769Y-94347565D01*
X140460766Y-94347564D01*
X140460765Y-94347564D01*
X140300351Y-94298903D01*
X140300349Y-94298902D01*
X140300346Y-94298901D01*
X140152512Y-94219883D01*
X140022931Y-94113537D01*
X139916585Y-93983956D01*
X139837567Y-93836122D01*
X139815349Y-93762878D01*
X139788904Y-93675703D01*
X139788904Y-93675702D01*
X139788903Y-93675699D01*
X139772473Y-93508878D01*
X139788903Y-93342057D01*
X139788904Y-93342053D01*
X139837565Y-93181639D01*
X139837566Y-93181637D01*
X139837567Y-93181634D01*
X139916585Y-93033800D01*
X140022931Y-92904219D01*
X140152512Y-92797873D01*
X140300346Y-92718855D01*
X140300349Y-92718854D01*
X140300351Y-92718853D01*
X140460765Y-92670192D01*
X140460766Y-92670192D01*
X140460769Y-92670191D01*
X140585786Y-92657878D01*
X140669394Y-92657878D01*
X140794411Y-92670191D01*
X140794411Y-92670191D01*
G37*
G36*
X143334411Y-92670191D02*
X143334414Y-92670192D01*
X143334415Y-92670192D01*
X143494829Y-92718853D01*
X143494831Y-92718854D01*
X143494834Y-92718855D01*
X143642668Y-92797873D01*
X143772249Y-92904219D01*
X143878595Y-93033800D01*
X143957613Y-93181634D01*
X143957614Y-93181637D01*
X143957615Y-93181639D01*
X144006276Y-93342053D01*
X144006277Y-93342057D01*
X144022707Y-93508878D01*
X144006277Y-93675699D01*
X144006276Y-93675702D01*
X144006276Y-93675703D01*
X143979832Y-93762878D01*
X143957613Y-93836122D01*
X143878595Y-93983956D01*
X143772249Y-94113537D01*
X143642668Y-94219883D01*
X143494834Y-94298901D01*
X143494831Y-94298902D01*
X143494829Y-94298903D01*
X143334415Y-94347564D01*
X143334414Y-94347564D01*
X143334411Y-94347565D01*
X143209394Y-94359878D01*
X143125786Y-94359878D01*
X143000769Y-94347565D01*
X143000766Y-94347564D01*
X143000765Y-94347564D01*
X142840351Y-94298903D01*
X142840349Y-94298902D01*
X142840346Y-94298901D01*
X142692512Y-94219883D01*
X142562931Y-94113537D01*
X142456585Y-93983956D01*
X142377567Y-93836122D01*
X142355349Y-93762878D01*
X142328904Y-93675703D01*
X142328904Y-93675702D01*
X142328903Y-93675699D01*
X142312473Y-93508878D01*
X142328903Y-93342057D01*
X142328904Y-93342053D01*
X142377565Y-93181639D01*
X142377566Y-93181637D01*
X142377567Y-93181634D01*
X142456585Y-93033800D01*
X142562931Y-92904219D01*
X142692512Y-92797873D01*
X142840346Y-92718855D01*
X142840349Y-92718854D01*
X142840351Y-92718853D01*
X143000765Y-92670192D01*
X143000766Y-92670192D01*
X143000769Y-92670191D01*
X143125786Y-92657878D01*
X143209394Y-92657878D01*
X143334411Y-92670191D01*
X143334411Y-92670191D01*
G37*
G36*
X145874411Y-92670191D02*
X145874414Y-92670192D01*
X145874415Y-92670192D01*
X146034829Y-92718853D01*
X146034831Y-92718854D01*
X146034834Y-92718855D01*
X146182668Y-92797873D01*
X146312249Y-92904219D01*
X146418595Y-93033800D01*
X146497613Y-93181634D01*
X146497614Y-93181637D01*
X146497615Y-93181639D01*
X146546276Y-93342053D01*
X146546277Y-93342057D01*
X146562707Y-93508878D01*
X146546277Y-93675699D01*
X146546276Y-93675702D01*
X146546276Y-93675703D01*
X146519832Y-93762878D01*
X146497613Y-93836122D01*
X146418595Y-93983956D01*
X146312249Y-94113537D01*
X146182668Y-94219883D01*
X146034834Y-94298901D01*
X146034831Y-94298902D01*
X146034829Y-94298903D01*
X145874415Y-94347564D01*
X145874414Y-94347564D01*
X145874411Y-94347565D01*
X145749394Y-94359878D01*
X145665786Y-94359878D01*
X145540769Y-94347565D01*
X145540766Y-94347564D01*
X145540765Y-94347564D01*
X145380351Y-94298903D01*
X145380349Y-94298902D01*
X145380346Y-94298901D01*
X145232512Y-94219883D01*
X145102931Y-94113537D01*
X144996585Y-93983956D01*
X144917567Y-93836122D01*
X144895349Y-93762878D01*
X144868904Y-93675703D01*
X144868904Y-93675702D01*
X144868903Y-93675699D01*
X144852473Y-93508878D01*
X144868903Y-93342057D01*
X144868904Y-93342053D01*
X144917565Y-93181639D01*
X144917566Y-93181637D01*
X144917567Y-93181634D01*
X144996585Y-93033800D01*
X145102931Y-92904219D01*
X145232512Y-92797873D01*
X145380346Y-92718855D01*
X145380349Y-92718854D01*
X145380351Y-92718853D01*
X145540765Y-92670192D01*
X145540766Y-92670192D01*
X145540769Y-92670191D01*
X145665786Y-92657878D01*
X145749394Y-92657878D01*
X145874411Y-92670191D01*
X145874411Y-92670191D01*
G37*
G36*
X125554411Y-92670191D02*
X125554414Y-92670192D01*
X125554415Y-92670192D01*
X125714829Y-92718853D01*
X125714831Y-92718854D01*
X125714834Y-92718855D01*
X125862668Y-92797873D01*
X125992249Y-92904219D01*
X126098595Y-93033800D01*
X126177613Y-93181634D01*
X126177614Y-93181637D01*
X126177615Y-93181639D01*
X126226276Y-93342053D01*
X126226277Y-93342057D01*
X126242707Y-93508878D01*
X126226277Y-93675699D01*
X126226276Y-93675702D01*
X126226276Y-93675703D01*
X126199832Y-93762878D01*
X126177613Y-93836122D01*
X126098595Y-93983956D01*
X125992249Y-94113537D01*
X125862668Y-94219883D01*
X125714834Y-94298901D01*
X125714831Y-94298902D01*
X125714829Y-94298903D01*
X125554415Y-94347564D01*
X125554414Y-94347564D01*
X125554411Y-94347565D01*
X125429394Y-94359878D01*
X125345786Y-94359878D01*
X125220769Y-94347565D01*
X125220766Y-94347564D01*
X125220765Y-94347564D01*
X125060351Y-94298903D01*
X125060349Y-94298902D01*
X125060346Y-94298901D01*
X124912512Y-94219883D01*
X124782931Y-94113537D01*
X124676585Y-93983956D01*
X124597567Y-93836122D01*
X124575349Y-93762878D01*
X124548904Y-93675703D01*
X124548904Y-93675702D01*
X124548903Y-93675699D01*
X124532473Y-93508878D01*
X124548903Y-93342057D01*
X124548904Y-93342053D01*
X124597565Y-93181639D01*
X124597566Y-93181637D01*
X124597567Y-93181634D01*
X124676585Y-93033800D01*
X124782931Y-92904219D01*
X124912512Y-92797873D01*
X125060346Y-92718855D01*
X125060349Y-92718854D01*
X125060351Y-92718853D01*
X125220765Y-92670192D01*
X125220766Y-92670192D01*
X125220769Y-92670191D01*
X125345786Y-92657878D01*
X125429394Y-92657878D01*
X125554411Y-92670191D01*
X125554411Y-92670191D01*
G37*
G36*
X123014411Y-92670191D02*
X123014414Y-92670192D01*
X123014415Y-92670192D01*
X123174829Y-92718853D01*
X123174831Y-92718854D01*
X123174834Y-92718855D01*
X123322668Y-92797873D01*
X123452249Y-92904219D01*
X123558595Y-93033800D01*
X123637613Y-93181634D01*
X123637614Y-93181637D01*
X123637615Y-93181639D01*
X123686276Y-93342053D01*
X123686277Y-93342057D01*
X123702707Y-93508878D01*
X123686277Y-93675699D01*
X123686276Y-93675702D01*
X123686276Y-93675703D01*
X123659832Y-93762878D01*
X123637613Y-93836122D01*
X123558595Y-93983956D01*
X123452249Y-94113537D01*
X123322668Y-94219883D01*
X123174834Y-94298901D01*
X123174831Y-94298902D01*
X123174829Y-94298903D01*
X123014415Y-94347564D01*
X123014414Y-94347564D01*
X123014411Y-94347565D01*
X122889394Y-94359878D01*
X122805786Y-94359878D01*
X122680769Y-94347565D01*
X122680766Y-94347564D01*
X122680765Y-94347564D01*
X122520351Y-94298903D01*
X122520349Y-94298902D01*
X122520346Y-94298901D01*
X122372512Y-94219883D01*
X122242931Y-94113537D01*
X122136585Y-93983956D01*
X122057567Y-93836122D01*
X122035349Y-93762878D01*
X122008904Y-93675703D01*
X122008904Y-93675702D01*
X122008903Y-93675699D01*
X121992473Y-93508878D01*
X122008903Y-93342057D01*
X122008904Y-93342053D01*
X122057565Y-93181639D01*
X122057566Y-93181637D01*
X122057567Y-93181634D01*
X122136585Y-93033800D01*
X122242931Y-92904219D01*
X122372512Y-92797873D01*
X122520346Y-92718855D01*
X122520349Y-92718854D01*
X122520351Y-92718853D01*
X122680765Y-92670192D01*
X122680766Y-92670192D01*
X122680769Y-92670191D01*
X122805786Y-92657878D01*
X122889394Y-92657878D01*
X123014411Y-92670191D01*
X123014411Y-92670191D01*
G37*
G36*
X120474411Y-92670191D02*
X120474414Y-92670192D01*
X120474415Y-92670192D01*
X120634829Y-92718853D01*
X120634831Y-92718854D01*
X120634834Y-92718855D01*
X120782668Y-92797873D01*
X120912249Y-92904219D01*
X121018595Y-93033800D01*
X121097613Y-93181634D01*
X121097614Y-93181637D01*
X121097615Y-93181639D01*
X121146276Y-93342053D01*
X121146277Y-93342057D01*
X121162707Y-93508878D01*
X121146277Y-93675699D01*
X121146276Y-93675702D01*
X121146276Y-93675703D01*
X121119832Y-93762878D01*
X121097613Y-93836122D01*
X121018595Y-93983956D01*
X120912249Y-94113537D01*
X120782668Y-94219883D01*
X120634834Y-94298901D01*
X120634831Y-94298902D01*
X120634829Y-94298903D01*
X120474415Y-94347564D01*
X120474414Y-94347564D01*
X120474411Y-94347565D01*
X120349394Y-94359878D01*
X120265786Y-94359878D01*
X120140769Y-94347565D01*
X120140766Y-94347564D01*
X120140765Y-94347564D01*
X119980351Y-94298903D01*
X119980349Y-94298902D01*
X119980346Y-94298901D01*
X119832512Y-94219883D01*
X119702931Y-94113537D01*
X119596585Y-93983956D01*
X119517567Y-93836122D01*
X119495349Y-93762878D01*
X119468904Y-93675703D01*
X119468904Y-93675702D01*
X119468903Y-93675699D01*
X119452473Y-93508878D01*
X119468903Y-93342057D01*
X119468904Y-93342053D01*
X119517565Y-93181639D01*
X119517566Y-93181637D01*
X119517567Y-93181634D01*
X119596585Y-93033800D01*
X119702931Y-92904219D01*
X119832512Y-92797873D01*
X119980346Y-92718855D01*
X119980349Y-92718854D01*
X119980351Y-92718853D01*
X120140765Y-92670192D01*
X120140766Y-92670192D01*
X120140769Y-92670191D01*
X120265786Y-92657878D01*
X120349394Y-92657878D01*
X120474411Y-92670191D01*
X120474411Y-92670191D01*
G37*
G36*
X117934411Y-92670191D02*
X117934414Y-92670192D01*
X117934415Y-92670192D01*
X118094829Y-92718853D01*
X118094831Y-92718854D01*
X118094834Y-92718855D01*
X118242668Y-92797873D01*
X118372249Y-92904219D01*
X118478595Y-93033800D01*
X118557613Y-93181634D01*
X118557614Y-93181637D01*
X118557615Y-93181639D01*
X118606276Y-93342053D01*
X118606277Y-93342057D01*
X118622707Y-93508878D01*
X118606277Y-93675699D01*
X118606276Y-93675702D01*
X118606276Y-93675703D01*
X118579832Y-93762878D01*
X118557613Y-93836122D01*
X118478595Y-93983956D01*
X118372249Y-94113537D01*
X118242668Y-94219883D01*
X118094834Y-94298901D01*
X118094831Y-94298902D01*
X118094829Y-94298903D01*
X117934415Y-94347564D01*
X117934414Y-94347564D01*
X117934411Y-94347565D01*
X117809394Y-94359878D01*
X117725786Y-94359878D01*
X117600769Y-94347565D01*
X117600766Y-94347564D01*
X117600765Y-94347564D01*
X117440351Y-94298903D01*
X117440349Y-94298902D01*
X117440346Y-94298901D01*
X117292512Y-94219883D01*
X117162931Y-94113537D01*
X117056585Y-93983956D01*
X116977567Y-93836122D01*
X116955349Y-93762878D01*
X116928904Y-93675703D01*
X116928904Y-93675702D01*
X116928903Y-93675699D01*
X116912473Y-93508878D01*
X116928903Y-93342057D01*
X116928904Y-93342053D01*
X116977565Y-93181639D01*
X116977566Y-93181637D01*
X116977567Y-93181634D01*
X117056585Y-93033800D01*
X117162931Y-92904219D01*
X117292512Y-92797873D01*
X117440346Y-92718855D01*
X117440349Y-92718854D01*
X117440351Y-92718853D01*
X117600765Y-92670192D01*
X117600766Y-92670192D01*
X117600769Y-92670191D01*
X117725786Y-92657878D01*
X117809394Y-92657878D01*
X117934411Y-92670191D01*
X117934411Y-92670191D01*
G37*
G36*
X150954411Y-92670191D02*
X150954414Y-92670192D01*
X150954415Y-92670192D01*
X151114829Y-92718853D01*
X151114831Y-92718854D01*
X151114834Y-92718855D01*
X151262668Y-92797873D01*
X151392249Y-92904219D01*
X151498595Y-93033800D01*
X151577613Y-93181634D01*
X151577614Y-93181637D01*
X151577615Y-93181639D01*
X151626276Y-93342053D01*
X151626277Y-93342057D01*
X151642707Y-93508878D01*
X151626277Y-93675699D01*
X151626276Y-93675702D01*
X151626276Y-93675703D01*
X151599832Y-93762878D01*
X151577613Y-93836122D01*
X151498595Y-93983956D01*
X151392249Y-94113537D01*
X151262668Y-94219883D01*
X151114834Y-94298901D01*
X151114831Y-94298902D01*
X151114829Y-94298903D01*
X150954415Y-94347564D01*
X150954414Y-94347564D01*
X150954411Y-94347565D01*
X150829394Y-94359878D01*
X150745786Y-94359878D01*
X150620769Y-94347565D01*
X150620766Y-94347564D01*
X150620765Y-94347564D01*
X150460351Y-94298903D01*
X150460349Y-94298902D01*
X150460346Y-94298901D01*
X150312512Y-94219883D01*
X150182931Y-94113537D01*
X150076585Y-93983956D01*
X149997567Y-93836122D01*
X149975349Y-93762878D01*
X149948904Y-93675703D01*
X149948904Y-93675702D01*
X149948903Y-93675699D01*
X149932473Y-93508878D01*
X149948903Y-93342057D01*
X149948904Y-93342053D01*
X149997565Y-93181639D01*
X149997566Y-93181637D01*
X149997567Y-93181634D01*
X150076585Y-93033800D01*
X150182931Y-92904219D01*
X150312512Y-92797873D01*
X150460346Y-92718855D01*
X150460349Y-92718854D01*
X150460351Y-92718853D01*
X150620765Y-92670192D01*
X150620766Y-92670192D01*
X150620769Y-92670191D01*
X150745786Y-92657878D01*
X150829394Y-92657878D01*
X150954411Y-92670191D01*
X150954411Y-92670191D01*
G37*
G36*
X148414411Y-92670191D02*
X148414414Y-92670192D01*
X148414415Y-92670192D01*
X148574829Y-92718853D01*
X148574831Y-92718854D01*
X148574834Y-92718855D01*
X148722668Y-92797873D01*
X148852249Y-92904219D01*
X148958595Y-93033800D01*
X149037613Y-93181634D01*
X149037614Y-93181637D01*
X149037615Y-93181639D01*
X149086276Y-93342053D01*
X149086277Y-93342057D01*
X149102707Y-93508878D01*
X149086277Y-93675699D01*
X149086276Y-93675702D01*
X149086276Y-93675703D01*
X149059832Y-93762878D01*
X149037613Y-93836122D01*
X148958595Y-93983956D01*
X148852249Y-94113537D01*
X148722668Y-94219883D01*
X148574834Y-94298901D01*
X148574831Y-94298902D01*
X148574829Y-94298903D01*
X148414415Y-94347564D01*
X148414414Y-94347564D01*
X148414411Y-94347565D01*
X148289394Y-94359878D01*
X148205786Y-94359878D01*
X148080769Y-94347565D01*
X148080766Y-94347564D01*
X148080765Y-94347564D01*
X147920351Y-94298903D01*
X147920349Y-94298902D01*
X147920346Y-94298901D01*
X147772512Y-94219883D01*
X147642931Y-94113537D01*
X147536585Y-93983956D01*
X147457567Y-93836122D01*
X147435349Y-93762878D01*
X147408904Y-93675703D01*
X147408904Y-93675702D01*
X147408903Y-93675699D01*
X147392473Y-93508878D01*
X147408903Y-93342057D01*
X147408904Y-93342053D01*
X147457565Y-93181639D01*
X147457566Y-93181637D01*
X147457567Y-93181634D01*
X147536585Y-93033800D01*
X147642931Y-92904219D01*
X147772512Y-92797873D01*
X147920346Y-92718855D01*
X147920349Y-92718854D01*
X147920351Y-92718853D01*
X148080765Y-92670192D01*
X148080766Y-92670192D01*
X148080769Y-92670191D01*
X148205786Y-92657878D01*
X148289394Y-92657878D01*
X148414411Y-92670191D01*
X148414411Y-92670191D01*
G37*
G36*
X128094411Y-92670191D02*
X128094414Y-92670192D01*
X128094415Y-92670192D01*
X128254829Y-92718853D01*
X128254831Y-92718854D01*
X128254834Y-92718855D01*
X128402668Y-92797873D01*
X128532249Y-92904219D01*
X128638595Y-93033800D01*
X128717613Y-93181634D01*
X128717614Y-93181637D01*
X128717615Y-93181639D01*
X128766276Y-93342053D01*
X128766277Y-93342057D01*
X128782707Y-93508878D01*
X128766277Y-93675699D01*
X128766276Y-93675702D01*
X128766276Y-93675703D01*
X128739832Y-93762878D01*
X128717613Y-93836122D01*
X128638595Y-93983956D01*
X128532249Y-94113537D01*
X128402668Y-94219883D01*
X128254834Y-94298901D01*
X128254831Y-94298902D01*
X128254829Y-94298903D01*
X128094415Y-94347564D01*
X128094414Y-94347564D01*
X128094411Y-94347565D01*
X127969394Y-94359878D01*
X127885786Y-94359878D01*
X127760769Y-94347565D01*
X127760766Y-94347564D01*
X127760765Y-94347564D01*
X127600351Y-94298903D01*
X127600349Y-94298902D01*
X127600346Y-94298901D01*
X127452512Y-94219883D01*
X127322931Y-94113537D01*
X127216585Y-93983956D01*
X127137567Y-93836122D01*
X127115349Y-93762878D01*
X127088904Y-93675703D01*
X127088904Y-93675702D01*
X127088903Y-93675699D01*
X127072473Y-93508878D01*
X127088903Y-93342057D01*
X127088904Y-93342053D01*
X127137565Y-93181639D01*
X127137566Y-93181637D01*
X127137567Y-93181634D01*
X127216585Y-93033800D01*
X127322931Y-92904219D01*
X127452512Y-92797873D01*
X127600346Y-92718855D01*
X127600349Y-92718854D01*
X127600351Y-92718853D01*
X127760765Y-92670192D01*
X127760766Y-92670192D01*
X127760769Y-92670191D01*
X127885786Y-92657878D01*
X127969394Y-92657878D01*
X128094411Y-92670191D01*
X128094411Y-92670191D01*
G37*
G36*
X81556033Y-89947397D02*
X81622217Y-89953915D01*
X81735443Y-89988262D01*
X81792057Y-90005435D01*
X81930677Y-90079530D01*
X81948581Y-90089100D01*
X81984319Y-90118430D01*
X82085776Y-90201692D01*
X82169038Y-90303149D01*
X82198368Y-90338887D01*
X82198369Y-90338889D01*
X82282033Y-90495411D01*
X82282033Y-90495412D01*
X82333553Y-90665251D01*
X82350949Y-90841878D01*
X82333553Y-91018505D01*
X82299206Y-91131731D01*
X82282033Y-91188345D01*
X82207938Y-91326965D01*
X82198368Y-91344869D01*
X82169038Y-91380607D01*
X82085776Y-91482064D01*
X81984319Y-91565326D01*
X81948581Y-91594656D01*
X81948579Y-91594657D01*
X81792057Y-91678321D01*
X81735443Y-91695494D01*
X81622217Y-91729841D01*
X81556032Y-91736360D01*
X81489850Y-91742878D01*
X81401330Y-91742878D01*
X81335148Y-91736360D01*
X81268963Y-91729841D01*
X81155737Y-91695494D01*
X81099123Y-91678321D01*
X80942601Y-91594657D01*
X80942599Y-91594656D01*
X80906861Y-91565326D01*
X80805404Y-91482064D01*
X80722142Y-91380607D01*
X80692812Y-91344869D01*
X80683242Y-91326965D01*
X80609147Y-91188345D01*
X80591974Y-91131731D01*
X80557627Y-91018505D01*
X80540231Y-90841878D01*
X80557627Y-90665251D01*
X80609147Y-90495412D01*
X80609147Y-90495411D01*
X80692811Y-90338889D01*
X80692812Y-90338887D01*
X80722142Y-90303149D01*
X80805404Y-90201692D01*
X80906861Y-90118430D01*
X80942599Y-90089100D01*
X80960503Y-90079530D01*
X81099123Y-90005435D01*
X81155737Y-89988262D01*
X81268963Y-89953915D01*
X81335147Y-89947397D01*
X81401330Y-89940878D01*
X81489850Y-89940878D01*
X81556033Y-89947397D01*
X81556033Y-89947397D01*
G37*
G36*
X93296411Y-89114191D02*
X93296414Y-89114192D01*
X93296415Y-89114192D01*
X93456829Y-89162853D01*
X93456831Y-89162854D01*
X93456834Y-89162855D01*
X93604668Y-89241873D01*
X93734249Y-89348219D01*
X93840595Y-89477800D01*
X93919613Y-89625634D01*
X93968277Y-89786057D01*
X93984707Y-89952878D01*
X93968277Y-90119699D01*
X93968276Y-90119702D01*
X93968276Y-90119703D01*
X93943405Y-90201693D01*
X93919613Y-90280122D01*
X93840595Y-90427956D01*
X93734249Y-90557537D01*
X93604668Y-90663883D01*
X93456834Y-90742901D01*
X93456831Y-90742902D01*
X93456829Y-90742903D01*
X93296415Y-90791564D01*
X93296414Y-90791564D01*
X93296411Y-90791565D01*
X93171394Y-90803878D01*
X93087786Y-90803878D01*
X92962769Y-90791565D01*
X92962766Y-90791564D01*
X92962765Y-90791564D01*
X92802351Y-90742903D01*
X92802349Y-90742902D01*
X92802346Y-90742901D01*
X92654512Y-90663883D01*
X92524931Y-90557537D01*
X92418585Y-90427956D01*
X92339567Y-90280122D01*
X92315776Y-90201693D01*
X92290904Y-90119703D01*
X92290904Y-90119702D01*
X92290903Y-90119699D01*
X92274473Y-89952878D01*
X92290903Y-89786057D01*
X92339567Y-89625634D01*
X92418585Y-89477800D01*
X92524931Y-89348219D01*
X92654512Y-89241873D01*
X92802346Y-89162855D01*
X92802349Y-89162854D01*
X92802351Y-89162853D01*
X92962765Y-89114192D01*
X92962766Y-89114192D01*
X92962769Y-89114191D01*
X93087786Y-89101878D01*
X93171394Y-89101878D01*
X93296411Y-89114191D01*
X93296411Y-89114191D01*
G37*
G36*
X166637125Y-87031678D02*
X166668330Y-87041144D01*
X166697077Y-87056509D01*
X166722277Y-87077191D01*
X166742959Y-87102391D01*
X166758324Y-87131138D01*
X166767790Y-87162343D01*
X166771590Y-87200923D01*
X166771590Y-89056833D01*
X166767790Y-89095413D01*
X166758324Y-89126618D01*
X166742959Y-89155365D01*
X166722277Y-89180565D01*
X166697077Y-89201247D01*
X166668330Y-89216612D01*
X166637125Y-89226078D01*
X166598545Y-89229878D01*
X161392635Y-89229878D01*
X161354055Y-89226078D01*
X161322850Y-89216612D01*
X161294103Y-89201247D01*
X161268903Y-89180565D01*
X161248221Y-89155365D01*
X161232856Y-89126618D01*
X161223390Y-89095413D01*
X161219590Y-89056833D01*
X161219590Y-87200923D01*
X161223390Y-87162343D01*
X161232856Y-87131138D01*
X161248221Y-87102391D01*
X161268903Y-87077191D01*
X161294103Y-87056509D01*
X161322850Y-87041144D01*
X161354055Y-87031678D01*
X161392635Y-87027878D01*
X166598545Y-87027878D01*
X166637125Y-87031678D01*
X166637125Y-87031678D01*
G37*
G36*
X81556032Y-87407396D02*
X81622217Y-87413915D01*
X81735443Y-87448262D01*
X81792057Y-87465435D01*
X81930677Y-87539530D01*
X81948581Y-87549100D01*
X81984319Y-87578430D01*
X82085776Y-87661692D01*
X82169038Y-87763149D01*
X82198368Y-87798887D01*
X82198369Y-87798889D01*
X82282033Y-87955411D01*
X82282033Y-87955412D01*
X82333553Y-88125251D01*
X82350949Y-88301878D01*
X82333553Y-88478505D01*
X82318937Y-88526688D01*
X82282033Y-88648345D01*
X82207938Y-88786965D01*
X82198368Y-88804869D01*
X82169038Y-88840607D01*
X82085776Y-88942064D01*
X81992178Y-89018877D01*
X81948581Y-89054656D01*
X81948579Y-89054657D01*
X81792057Y-89138321D01*
X81743343Y-89153098D01*
X81622217Y-89189841D01*
X81556033Y-89196359D01*
X81489850Y-89202878D01*
X81401330Y-89202878D01*
X81335147Y-89196359D01*
X81268963Y-89189841D01*
X81147837Y-89153098D01*
X81099123Y-89138321D01*
X80942601Y-89054657D01*
X80942599Y-89054656D01*
X80899002Y-89018877D01*
X80805404Y-88942064D01*
X80722142Y-88840607D01*
X80692812Y-88804869D01*
X80683242Y-88786965D01*
X80609147Y-88648345D01*
X80572243Y-88526688D01*
X80557627Y-88478505D01*
X80540231Y-88301878D01*
X80557627Y-88125251D01*
X80609147Y-87955412D01*
X80609147Y-87955411D01*
X80692811Y-87798889D01*
X80692812Y-87798887D01*
X80722142Y-87763149D01*
X80805404Y-87661692D01*
X80906861Y-87578430D01*
X80942599Y-87549100D01*
X80960503Y-87539530D01*
X81099123Y-87465435D01*
X81155737Y-87448262D01*
X81268963Y-87413915D01*
X81335148Y-87407396D01*
X81401330Y-87400878D01*
X81489850Y-87400878D01*
X81556032Y-87407396D01*
X81556032Y-87407396D01*
G37*
G36*
X177087586Y-86946929D02*
X177121243Y-86957139D01*
X177152257Y-86973716D01*
X177179442Y-86996026D01*
X177201752Y-87023211D01*
X177218329Y-87054225D01*
X177228539Y-87087882D01*
X177232590Y-87129016D01*
X177232590Y-88458740D01*
X177228539Y-88499874D01*
X177218329Y-88533531D01*
X177201752Y-88564545D01*
X177179442Y-88591730D01*
X177152257Y-88614040D01*
X177121243Y-88630617D01*
X177087586Y-88640827D01*
X177046452Y-88644878D01*
X173816728Y-88644878D01*
X173775594Y-88640827D01*
X173741937Y-88630617D01*
X173710923Y-88614040D01*
X173683738Y-88591730D01*
X173661428Y-88564545D01*
X173644851Y-88533531D01*
X173634641Y-88499874D01*
X173630590Y-88458740D01*
X173630590Y-87129016D01*
X173634641Y-87087882D01*
X173644851Y-87054225D01*
X173661428Y-87023211D01*
X173683738Y-86996026D01*
X173710923Y-86973716D01*
X173741937Y-86957139D01*
X173775594Y-86946929D01*
X173816728Y-86942878D01*
X177046452Y-86942878D01*
X177087586Y-86946929D01*
X177087586Y-86946929D01*
G37*
G36*
X171487586Y-86946929D02*
X171521243Y-86957139D01*
X171552257Y-86973716D01*
X171579442Y-86996026D01*
X171601752Y-87023211D01*
X171618329Y-87054225D01*
X171628539Y-87087882D01*
X171632590Y-87129016D01*
X171632590Y-88458740D01*
X171628539Y-88499874D01*
X171618329Y-88533531D01*
X171601752Y-88564545D01*
X171579442Y-88591730D01*
X171552257Y-88614040D01*
X171521243Y-88630617D01*
X171487586Y-88640827D01*
X171446452Y-88644878D01*
X168216728Y-88644878D01*
X168175594Y-88640827D01*
X168141937Y-88630617D01*
X168110923Y-88614040D01*
X168083738Y-88591730D01*
X168061428Y-88564545D01*
X168044851Y-88533531D01*
X168034641Y-88499874D01*
X168030590Y-88458740D01*
X168030590Y-87129016D01*
X168034641Y-87087882D01*
X168044851Y-87054225D01*
X168061428Y-87023211D01*
X168083738Y-86996026D01*
X168110923Y-86973716D01*
X168141937Y-86957139D01*
X168175594Y-86946929D01*
X168216728Y-86942878D01*
X171446452Y-86942878D01*
X171487586Y-86946929D01*
X171487586Y-86946929D01*
G37*
G36*
X93296411Y-86574191D02*
X93296414Y-86574192D01*
X93296415Y-86574192D01*
X93456829Y-86622853D01*
X93456831Y-86622854D01*
X93456834Y-86622855D01*
X93604668Y-86701873D01*
X93734249Y-86808219D01*
X93840595Y-86937800D01*
X93919613Y-87085634D01*
X93919614Y-87085637D01*
X93919615Y-87085639D01*
X93942883Y-87162343D01*
X93968277Y-87246057D01*
X93984707Y-87412878D01*
X93968277Y-87579699D01*
X93968276Y-87579702D01*
X93968276Y-87579703D01*
X93943405Y-87661693D01*
X93919613Y-87740122D01*
X93840595Y-87887956D01*
X93734249Y-88017537D01*
X93604668Y-88123883D01*
X93456834Y-88202901D01*
X93456831Y-88202902D01*
X93456829Y-88202903D01*
X93296415Y-88251564D01*
X93296414Y-88251564D01*
X93296411Y-88251565D01*
X93171394Y-88263878D01*
X93087786Y-88263878D01*
X92962769Y-88251565D01*
X92962766Y-88251564D01*
X92962765Y-88251564D01*
X92802351Y-88202903D01*
X92802349Y-88202902D01*
X92802346Y-88202901D01*
X92654512Y-88123883D01*
X92524931Y-88017537D01*
X92418585Y-87887956D01*
X92339567Y-87740122D01*
X92315776Y-87661693D01*
X92290904Y-87579703D01*
X92290904Y-87579702D01*
X92290903Y-87579699D01*
X92274473Y-87412878D01*
X92290903Y-87246057D01*
X92316297Y-87162343D01*
X92339565Y-87085639D01*
X92339566Y-87085637D01*
X92339567Y-87085634D01*
X92418585Y-86937800D01*
X92524931Y-86808219D01*
X92654512Y-86701873D01*
X92802346Y-86622855D01*
X92802349Y-86622854D01*
X92802351Y-86622853D01*
X92962765Y-86574192D01*
X92962766Y-86574192D01*
X92962769Y-86574191D01*
X93087786Y-86561878D01*
X93171394Y-86561878D01*
X93296411Y-86574191D01*
X93296411Y-86574191D01*
G37*
G36*
X151666590Y-87597878D02*
X148064590Y-87597878D01*
X148064590Y-85195878D01*
X151666590Y-85195878D01*
X151666590Y-87597878D01*
X151666590Y-87597878D01*
G37*
G36*
X157066590Y-87597878D02*
X153464590Y-87597878D01*
X153464590Y-85195878D01*
X157066590Y-85195878D01*
X157066590Y-87597878D01*
X157066590Y-87597878D01*
G37*
G36*
X109223267Y-85396343D02*
X109260954Y-85407776D01*
X109295693Y-85426344D01*
X109326138Y-85451330D01*
X109351124Y-85481775D01*
X109369692Y-85516514D01*
X109381125Y-85554201D01*
X109385590Y-85599539D01*
X109385590Y-86686217D01*
X109381125Y-86731555D01*
X109369692Y-86769242D01*
X109351124Y-86803981D01*
X109326138Y-86834426D01*
X109295693Y-86859412D01*
X109260954Y-86877980D01*
X109223267Y-86889413D01*
X109177929Y-86893878D01*
X108341251Y-86893878D01*
X108295913Y-86889413D01*
X108258226Y-86877980D01*
X108223487Y-86859412D01*
X108193042Y-86834426D01*
X108168056Y-86803981D01*
X108149488Y-86769242D01*
X108138055Y-86731555D01*
X108133590Y-86686217D01*
X108133590Y-85599539D01*
X108138055Y-85554201D01*
X108149488Y-85516514D01*
X108168056Y-85481775D01*
X108193042Y-85451330D01*
X108223487Y-85426344D01*
X108258226Y-85407776D01*
X108295913Y-85396343D01*
X108341251Y-85391878D01*
X109177929Y-85391878D01*
X109223267Y-85396343D01*
X109223267Y-85396343D01*
G37*
G36*
X107173267Y-85396343D02*
X107210954Y-85407776D01*
X107245693Y-85426344D01*
X107276138Y-85451330D01*
X107301124Y-85481775D01*
X107319692Y-85516514D01*
X107331125Y-85554201D01*
X107335590Y-85599539D01*
X107335590Y-86686217D01*
X107331125Y-86731555D01*
X107319692Y-86769242D01*
X107301124Y-86803981D01*
X107276138Y-86834426D01*
X107245693Y-86859412D01*
X107210954Y-86877980D01*
X107173267Y-86889413D01*
X107127929Y-86893878D01*
X106291251Y-86893878D01*
X106245913Y-86889413D01*
X106208226Y-86877980D01*
X106173487Y-86859412D01*
X106143042Y-86834426D01*
X106118056Y-86803981D01*
X106099488Y-86769242D01*
X106088055Y-86731555D01*
X106083590Y-86686217D01*
X106083590Y-85599539D01*
X106088055Y-85554201D01*
X106099488Y-85516514D01*
X106118056Y-85481775D01*
X106143042Y-85451330D01*
X106173487Y-85426344D01*
X106208226Y-85407776D01*
X106245913Y-85396343D01*
X106291251Y-85391878D01*
X107127929Y-85391878D01*
X107173267Y-85396343D01*
X107173267Y-85396343D01*
G37*
G36*
X81556033Y-84867397D02*
X81622217Y-84873915D01*
X81735443Y-84908262D01*
X81792057Y-84925435D01*
X81930677Y-84999530D01*
X81948581Y-85009100D01*
X81984319Y-85038430D01*
X82085776Y-85121692D01*
X82169038Y-85223149D01*
X82198368Y-85258887D01*
X82198369Y-85258889D01*
X82282033Y-85415411D01*
X82282033Y-85415412D01*
X82333553Y-85585251D01*
X82350949Y-85761878D01*
X82333553Y-85938505D01*
X82299206Y-86051731D01*
X82282033Y-86108345D01*
X82244866Y-86177878D01*
X82198368Y-86264869D01*
X82169038Y-86300607D01*
X82085776Y-86402064D01*
X81984319Y-86485326D01*
X81948581Y-86514656D01*
X81948579Y-86514657D01*
X81792057Y-86598321D01*
X81735443Y-86615494D01*
X81622217Y-86649841D01*
X81556033Y-86656359D01*
X81489850Y-86662878D01*
X81401330Y-86662878D01*
X81335147Y-86656359D01*
X81268963Y-86649841D01*
X81155737Y-86615494D01*
X81099123Y-86598321D01*
X80942601Y-86514657D01*
X80942599Y-86514656D01*
X80906861Y-86485326D01*
X80805404Y-86402064D01*
X80722142Y-86300607D01*
X80692812Y-86264869D01*
X80646314Y-86177878D01*
X80609147Y-86108345D01*
X80591974Y-86051731D01*
X80557627Y-85938505D01*
X80540231Y-85761878D01*
X80557627Y-85585251D01*
X80609147Y-85415412D01*
X80609147Y-85415411D01*
X80692811Y-85258889D01*
X80692812Y-85258887D01*
X80722142Y-85223149D01*
X80805404Y-85121692D01*
X80906861Y-85038430D01*
X80942599Y-85009100D01*
X80960503Y-84999530D01*
X81099123Y-84925435D01*
X81155737Y-84908262D01*
X81268963Y-84873915D01*
X81335147Y-84867397D01*
X81401330Y-84860878D01*
X81489850Y-84860878D01*
X81556033Y-84867397D01*
X81556033Y-84867397D01*
G37*
G36*
X104885590Y-86493878D02*
X103283590Y-86493878D01*
X103283590Y-85791878D01*
X104885590Y-85791878D01*
X104885590Y-86493878D01*
X104885590Y-86493878D01*
G37*
G36*
X99485590Y-86493878D02*
X97883590Y-86493878D01*
X97883590Y-85791878D01*
X99485590Y-85791878D01*
X99485590Y-86493878D01*
X99485590Y-86493878D01*
G37*
G36*
X161871590Y-86177878D02*
X159769590Y-86177878D01*
X159769590Y-84075878D01*
X161871590Y-84075878D01*
X161871590Y-86177878D01*
X161871590Y-86177878D01*
G37*
G36*
X93296411Y-84034191D02*
X93296414Y-84034192D01*
X93296415Y-84034192D01*
X93456829Y-84082853D01*
X93456831Y-84082854D01*
X93456834Y-84082855D01*
X93604668Y-84161873D01*
X93734249Y-84268219D01*
X93840595Y-84397800D01*
X93919613Y-84545634D01*
X93968277Y-84706057D01*
X93984707Y-84872878D01*
X93968277Y-85039699D01*
X93968276Y-85039702D01*
X93968276Y-85039703D01*
X93920901Y-85195878D01*
X93919613Y-85200122D01*
X93840595Y-85347956D01*
X93734249Y-85477537D01*
X93604668Y-85583883D01*
X93456834Y-85662901D01*
X93456831Y-85662902D01*
X93456829Y-85662903D01*
X93296415Y-85711564D01*
X93296414Y-85711564D01*
X93296411Y-85711565D01*
X93171394Y-85723878D01*
X93087786Y-85723878D01*
X92962769Y-85711565D01*
X92962766Y-85711564D01*
X92962765Y-85711564D01*
X92802351Y-85662903D01*
X92802349Y-85662902D01*
X92802346Y-85662901D01*
X92654512Y-85583883D01*
X92524931Y-85477537D01*
X92418585Y-85347956D01*
X92339567Y-85200122D01*
X92338280Y-85195878D01*
X92290904Y-85039703D01*
X92290904Y-85039702D01*
X92290903Y-85039699D01*
X92274473Y-84872878D01*
X92290903Y-84706057D01*
X92339567Y-84545634D01*
X92418585Y-84397800D01*
X92524931Y-84268219D01*
X92654512Y-84161873D01*
X92802346Y-84082855D01*
X92802349Y-84082854D01*
X92802351Y-84082853D01*
X92962765Y-84034192D01*
X92962766Y-84034192D01*
X92962769Y-84034191D01*
X93087786Y-84021878D01*
X93171394Y-84021878D01*
X93296411Y-84034191D01*
X93296411Y-84034191D01*
G37*
G36*
X104885590Y-85223878D02*
X103283590Y-85223878D01*
X103283590Y-84521878D01*
X104885590Y-84521878D01*
X104885590Y-85223878D01*
X104885590Y-85223878D01*
G37*
G36*
X99485590Y-85223878D02*
X97883590Y-85223878D01*
X97883590Y-84521878D01*
X99485590Y-84521878D01*
X99485590Y-85223878D01*
X99485590Y-85223878D01*
G37*
G36*
X81556033Y-82327397D02*
X81622217Y-82333915D01*
X81735443Y-82368262D01*
X81792057Y-82385435D01*
X81930677Y-82459530D01*
X81948581Y-82469100D01*
X81984319Y-82498430D01*
X82085776Y-82581692D01*
X82169038Y-82683149D01*
X82198368Y-82718887D01*
X82198369Y-82718889D01*
X82282033Y-82875411D01*
X82282033Y-82875412D01*
X82333553Y-83045251D01*
X82350949Y-83221878D01*
X82333553Y-83398505D01*
X82299206Y-83511731D01*
X82282033Y-83568345D01*
X82266455Y-83597489D01*
X82198368Y-83724869D01*
X82169038Y-83760607D01*
X82085776Y-83862064D01*
X81984319Y-83945326D01*
X81948581Y-83974656D01*
X81948579Y-83974657D01*
X81792057Y-84058321D01*
X81735443Y-84075494D01*
X81622217Y-84109841D01*
X81556032Y-84116360D01*
X81489850Y-84122878D01*
X81401330Y-84122878D01*
X81335148Y-84116360D01*
X81268963Y-84109841D01*
X81155737Y-84075494D01*
X81099123Y-84058321D01*
X80942601Y-83974657D01*
X80942599Y-83974656D01*
X80906861Y-83945326D01*
X80805404Y-83862064D01*
X80722142Y-83760607D01*
X80692812Y-83724869D01*
X80624725Y-83597489D01*
X80609147Y-83568345D01*
X80591974Y-83511731D01*
X80557627Y-83398505D01*
X80540231Y-83221878D01*
X80557627Y-83045251D01*
X80609147Y-82875412D01*
X80609147Y-82875411D01*
X80692811Y-82718889D01*
X80692812Y-82718887D01*
X80722142Y-82683149D01*
X80805404Y-82581692D01*
X80906861Y-82498430D01*
X80942599Y-82469100D01*
X80960503Y-82459530D01*
X81099123Y-82385435D01*
X81155737Y-82368262D01*
X81268963Y-82333915D01*
X81335147Y-82327397D01*
X81401330Y-82320878D01*
X81489850Y-82320878D01*
X81556033Y-82327397D01*
X81556033Y-82327397D01*
G37*
G36*
X99485590Y-83953878D02*
X97883590Y-83953878D01*
X97883590Y-83251878D01*
X99485590Y-83251878D01*
X99485590Y-83953878D01*
X99485590Y-83953878D01*
G37*
G36*
X104885590Y-83953878D02*
X103283590Y-83953878D01*
X103283590Y-83251878D01*
X104885590Y-83251878D01*
X104885590Y-83953878D01*
X104885590Y-83953878D01*
G37*
G36*
X161127155Y-81576267D02*
X161318424Y-81655493D01*
X161490566Y-81770515D01*
X161636953Y-81916902D01*
X161751975Y-82089044D01*
X161831201Y-82280313D01*
X161871590Y-82483362D01*
X161871590Y-82690394D01*
X161831201Y-82893443D01*
X161751975Y-83084712D01*
X161636953Y-83256854D01*
X161490566Y-83403241D01*
X161318424Y-83518263D01*
X161127155Y-83597489D01*
X160924106Y-83637878D01*
X160717074Y-83637878D01*
X160514025Y-83597489D01*
X160322756Y-83518263D01*
X160150614Y-83403241D01*
X160004227Y-83256854D01*
X159889205Y-83084712D01*
X159809979Y-82893443D01*
X159769590Y-82690394D01*
X159769590Y-82483362D01*
X159809979Y-82280313D01*
X159889205Y-82089044D01*
X160004227Y-81916902D01*
X160150614Y-81770515D01*
X160322756Y-81655493D01*
X160514025Y-81576267D01*
X160717074Y-81535878D01*
X160924106Y-81535878D01*
X161127155Y-81576267D01*
X161127155Y-81576267D01*
G37*
G36*
X93296411Y-81494191D02*
X93296414Y-81494192D01*
X93296415Y-81494192D01*
X93456829Y-81542853D01*
X93456831Y-81542854D01*
X93456834Y-81542855D01*
X93604668Y-81621873D01*
X93734249Y-81728219D01*
X93840595Y-81857800D01*
X93919613Y-82005634D01*
X93919614Y-82005637D01*
X93919615Y-82005639D01*
X93968276Y-82166053D01*
X93968277Y-82166057D01*
X93984707Y-82332878D01*
X93968277Y-82499699D01*
X93968276Y-82499702D01*
X93968276Y-82499703D01*
X93943405Y-82581693D01*
X93919613Y-82660122D01*
X93840595Y-82807956D01*
X93734249Y-82937537D01*
X93604668Y-83043883D01*
X93456834Y-83122901D01*
X93456831Y-83122902D01*
X93456829Y-83122903D01*
X93296415Y-83171564D01*
X93296414Y-83171564D01*
X93296411Y-83171565D01*
X93171394Y-83183878D01*
X93087786Y-83183878D01*
X92962769Y-83171565D01*
X92962766Y-83171564D01*
X92962765Y-83171564D01*
X92802351Y-83122903D01*
X92802349Y-83122902D01*
X92802346Y-83122901D01*
X92654512Y-83043883D01*
X92524931Y-82937537D01*
X92418585Y-82807956D01*
X92339567Y-82660122D01*
X92315776Y-82581693D01*
X92290904Y-82499703D01*
X92290904Y-82499702D01*
X92290903Y-82499699D01*
X92274473Y-82332878D01*
X92290903Y-82166057D01*
X92290904Y-82166053D01*
X92339565Y-82005639D01*
X92339566Y-82005637D01*
X92339567Y-82005634D01*
X92418585Y-81857800D01*
X92524931Y-81728219D01*
X92654512Y-81621873D01*
X92802346Y-81542855D01*
X92802349Y-81542854D01*
X92802351Y-81542853D01*
X92962765Y-81494192D01*
X92962766Y-81494192D01*
X92962769Y-81494191D01*
X93087786Y-81481878D01*
X93171394Y-81481878D01*
X93296411Y-81494191D01*
X93296411Y-81494191D01*
G37*
G36*
X104885590Y-82683878D02*
X103283590Y-82683878D01*
X103283590Y-81981878D01*
X104885590Y-81981878D01*
X104885590Y-82683878D01*
X104885590Y-82683878D01*
G37*
G36*
X99485590Y-82683878D02*
X97883590Y-82683878D01*
X97883590Y-81981878D01*
X99485590Y-81981878D01*
X99485590Y-82683878D01*
X99485590Y-82683878D01*
G37*
G36*
X82346590Y-81582878D02*
X80544590Y-81582878D01*
X80544590Y-79780878D01*
X82346590Y-79780878D01*
X82346590Y-81582878D01*
X82346590Y-81582878D01*
G37*
G36*
X99485590Y-81413878D02*
X97883590Y-81413878D01*
X97883590Y-80711878D01*
X99485590Y-80711878D01*
X99485590Y-81413878D01*
X99485590Y-81413878D01*
G37*
G36*
X104885590Y-81413878D02*
X103283590Y-81413878D01*
X103283590Y-80711878D01*
X104885590Y-80711878D01*
X104885590Y-81413878D01*
X104885590Y-81413878D01*
G37*
G36*
X166733586Y-77747929D02*
X166767243Y-77758139D01*
X166798257Y-77774716D01*
X166825442Y-77797026D01*
X166847752Y-77824211D01*
X166864329Y-77855225D01*
X166874539Y-77888882D01*
X166878590Y-77930016D01*
X166878590Y-81159740D01*
X166874539Y-81200874D01*
X166864329Y-81234531D01*
X166847752Y-81265545D01*
X166825442Y-81292730D01*
X166798257Y-81315040D01*
X166767243Y-81331617D01*
X166733586Y-81341827D01*
X166692452Y-81345878D01*
X165362728Y-81345878D01*
X165321594Y-81341827D01*
X165287937Y-81331617D01*
X165256923Y-81315040D01*
X165229738Y-81292730D01*
X165207428Y-81265545D01*
X165190851Y-81234531D01*
X165180641Y-81200874D01*
X165176590Y-81159740D01*
X165176590Y-77930016D01*
X165180641Y-77888882D01*
X165190851Y-77855225D01*
X165207428Y-77824211D01*
X165229738Y-77797026D01*
X165256923Y-77774716D01*
X165287937Y-77758139D01*
X165321594Y-77747929D01*
X165362728Y-77743878D01*
X166692452Y-77743878D01*
X166733586Y-77747929D01*
X166733586Y-77747929D01*
G37*
G36*
X161127155Y-79036267D02*
X161318424Y-79115493D01*
X161490566Y-79230515D01*
X161636953Y-79376902D01*
X161751975Y-79549044D01*
X161831201Y-79740313D01*
X161871590Y-79943362D01*
X161871590Y-80150394D01*
X161831201Y-80353443D01*
X161751975Y-80544712D01*
X161636953Y-80716854D01*
X161490566Y-80863241D01*
X161318424Y-80978263D01*
X161127155Y-81057489D01*
X160924106Y-81097878D01*
X160717074Y-81097878D01*
X160514025Y-81057489D01*
X160322756Y-80978263D01*
X160150614Y-80863241D01*
X160004227Y-80716854D01*
X159889205Y-80544712D01*
X159809979Y-80353443D01*
X159769590Y-80150394D01*
X159769590Y-79943362D01*
X159809979Y-79740313D01*
X159889205Y-79549044D01*
X160004227Y-79376902D01*
X160150614Y-79230515D01*
X160322756Y-79115493D01*
X160514025Y-79036267D01*
X160717074Y-78995878D01*
X160924106Y-78995878D01*
X161127155Y-79036267D01*
X161127155Y-79036267D01*
G37*
G36*
X93296411Y-78954191D02*
X93296414Y-78954192D01*
X93296415Y-78954192D01*
X93456829Y-79002853D01*
X93456831Y-79002854D01*
X93456834Y-79002855D01*
X93604668Y-79081873D01*
X93734249Y-79188219D01*
X93840595Y-79317800D01*
X93919613Y-79465634D01*
X93919614Y-79465637D01*
X93919615Y-79465639D01*
X93968276Y-79626053D01*
X93968277Y-79626057D01*
X93984707Y-79792878D01*
X93968277Y-79959699D01*
X93919613Y-80120122D01*
X93840595Y-80267956D01*
X93734249Y-80397537D01*
X93604668Y-80503883D01*
X93456834Y-80582901D01*
X93456831Y-80582902D01*
X93456829Y-80582903D01*
X93296415Y-80631564D01*
X93296414Y-80631564D01*
X93296411Y-80631565D01*
X93171394Y-80643878D01*
X93087786Y-80643878D01*
X92962769Y-80631565D01*
X92962766Y-80631564D01*
X92962765Y-80631564D01*
X92802351Y-80582903D01*
X92802349Y-80582902D01*
X92802346Y-80582901D01*
X92654512Y-80503883D01*
X92524931Y-80397537D01*
X92418585Y-80267956D01*
X92339567Y-80120122D01*
X92290903Y-79959699D01*
X92274473Y-79792878D01*
X92290903Y-79626057D01*
X92290904Y-79626053D01*
X92339565Y-79465639D01*
X92339566Y-79465637D01*
X92339567Y-79465634D01*
X92418585Y-79317800D01*
X92524931Y-79188219D01*
X92654512Y-79081873D01*
X92802346Y-79002855D01*
X92802349Y-79002854D01*
X92802351Y-79002853D01*
X92962765Y-78954192D01*
X92962766Y-78954192D01*
X92962769Y-78954191D01*
X93087786Y-78941878D01*
X93171394Y-78941878D01*
X93296411Y-78954191D01*
X93296411Y-78954191D01*
G37*
G36*
X104885590Y-80143878D02*
X103283590Y-80143878D01*
X103283590Y-79441878D01*
X104885590Y-79441878D01*
X104885590Y-80143878D01*
X104885590Y-80143878D01*
G37*
G36*
X99485590Y-80143878D02*
X97883590Y-80143878D01*
X97883590Y-79441878D01*
X99485590Y-79441878D01*
X99485590Y-80143878D01*
X99485590Y-80143878D01*
G37*
G36*
X148414411Y-77430191D02*
X148414414Y-77430192D01*
X148414415Y-77430192D01*
X148574829Y-77478853D01*
X148574831Y-77478854D01*
X148574834Y-77478855D01*
X148722668Y-77557873D01*
X148852249Y-77664219D01*
X148958595Y-77793800D01*
X149037613Y-77941634D01*
X149037614Y-77941637D01*
X149037615Y-77941639D01*
X149058296Y-78009815D01*
X149086277Y-78102057D01*
X149102707Y-78268878D01*
X149086277Y-78435699D01*
X149037613Y-78596122D01*
X148958595Y-78743956D01*
X148852249Y-78873537D01*
X148722668Y-78979883D01*
X148574834Y-79058901D01*
X148574831Y-79058902D01*
X148574829Y-79058903D01*
X148414415Y-79107564D01*
X148414414Y-79107564D01*
X148414411Y-79107565D01*
X148289394Y-79119878D01*
X148205786Y-79119878D01*
X148080769Y-79107565D01*
X148080766Y-79107564D01*
X148080765Y-79107564D01*
X147920351Y-79058903D01*
X147920349Y-79058902D01*
X147920346Y-79058901D01*
X147772512Y-78979883D01*
X147642931Y-78873537D01*
X147536585Y-78743956D01*
X147457567Y-78596122D01*
X147408903Y-78435699D01*
X147392473Y-78268878D01*
X147408903Y-78102057D01*
X147436884Y-78009815D01*
X147457565Y-77941639D01*
X147457566Y-77941637D01*
X147457567Y-77941634D01*
X147536585Y-77793800D01*
X147642931Y-77664219D01*
X147772512Y-77557873D01*
X147920346Y-77478855D01*
X147920349Y-77478854D01*
X147920351Y-77478853D01*
X148080765Y-77430192D01*
X148080766Y-77430192D01*
X148080769Y-77430191D01*
X148205786Y-77417878D01*
X148289394Y-77417878D01*
X148414411Y-77430191D01*
X148414411Y-77430191D01*
G37*
G36*
X133174411Y-77430191D02*
X133174414Y-77430192D01*
X133174415Y-77430192D01*
X133334829Y-77478853D01*
X133334831Y-77478854D01*
X133334834Y-77478855D01*
X133482668Y-77557873D01*
X133612249Y-77664219D01*
X133718595Y-77793800D01*
X133797613Y-77941634D01*
X133797614Y-77941637D01*
X133797615Y-77941639D01*
X133818296Y-78009815D01*
X133846277Y-78102057D01*
X133862707Y-78268878D01*
X133846277Y-78435699D01*
X133797613Y-78596122D01*
X133718595Y-78743956D01*
X133612249Y-78873537D01*
X133482668Y-78979883D01*
X133334834Y-79058901D01*
X133334831Y-79058902D01*
X133334829Y-79058903D01*
X133174415Y-79107564D01*
X133174414Y-79107564D01*
X133174411Y-79107565D01*
X133049394Y-79119878D01*
X132965786Y-79119878D01*
X132840769Y-79107565D01*
X132840766Y-79107564D01*
X132840765Y-79107564D01*
X132680351Y-79058903D01*
X132680349Y-79058902D01*
X132680346Y-79058901D01*
X132532512Y-78979883D01*
X132402931Y-78873537D01*
X132296585Y-78743956D01*
X132217567Y-78596122D01*
X132168903Y-78435699D01*
X132152473Y-78268878D01*
X132168903Y-78102057D01*
X132196884Y-78009815D01*
X132217565Y-77941639D01*
X132217566Y-77941637D01*
X132217567Y-77941634D01*
X132296585Y-77793800D01*
X132402931Y-77664219D01*
X132532512Y-77557873D01*
X132680346Y-77478855D01*
X132680349Y-77478854D01*
X132680351Y-77478853D01*
X132840765Y-77430192D01*
X132840766Y-77430192D01*
X132840769Y-77430191D01*
X132965786Y-77417878D01*
X133049394Y-77417878D01*
X133174411Y-77430191D01*
X133174411Y-77430191D01*
G37*
G36*
X130634411Y-77430191D02*
X130634414Y-77430192D01*
X130634415Y-77430192D01*
X130794829Y-77478853D01*
X130794831Y-77478854D01*
X130794834Y-77478855D01*
X130942668Y-77557873D01*
X131072249Y-77664219D01*
X131178595Y-77793800D01*
X131257613Y-77941634D01*
X131257614Y-77941637D01*
X131257615Y-77941639D01*
X131278296Y-78009815D01*
X131306277Y-78102057D01*
X131322707Y-78268878D01*
X131306277Y-78435699D01*
X131257613Y-78596122D01*
X131178595Y-78743956D01*
X131072249Y-78873537D01*
X130942668Y-78979883D01*
X130794834Y-79058901D01*
X130794831Y-79058902D01*
X130794829Y-79058903D01*
X130634415Y-79107564D01*
X130634414Y-79107564D01*
X130634411Y-79107565D01*
X130509394Y-79119878D01*
X130425786Y-79119878D01*
X130300769Y-79107565D01*
X130300766Y-79107564D01*
X130300765Y-79107564D01*
X130140351Y-79058903D01*
X130140349Y-79058902D01*
X130140346Y-79058901D01*
X129992512Y-78979883D01*
X129862931Y-78873537D01*
X129756585Y-78743956D01*
X129677567Y-78596122D01*
X129628903Y-78435699D01*
X129612473Y-78268878D01*
X129628903Y-78102057D01*
X129656884Y-78009815D01*
X129677565Y-77941639D01*
X129677566Y-77941637D01*
X129677567Y-77941634D01*
X129756585Y-77793800D01*
X129862931Y-77664219D01*
X129992512Y-77557873D01*
X130140346Y-77478855D01*
X130140349Y-77478854D01*
X130140351Y-77478853D01*
X130300765Y-77430192D01*
X130300766Y-77430192D01*
X130300769Y-77430191D01*
X130425786Y-77417878D01*
X130509394Y-77417878D01*
X130634411Y-77430191D01*
X130634411Y-77430191D01*
G37*
G36*
X128094411Y-77430191D02*
X128094414Y-77430192D01*
X128094415Y-77430192D01*
X128254829Y-77478853D01*
X128254831Y-77478854D01*
X128254834Y-77478855D01*
X128402668Y-77557873D01*
X128532249Y-77664219D01*
X128638595Y-77793800D01*
X128717613Y-77941634D01*
X128717614Y-77941637D01*
X128717615Y-77941639D01*
X128738296Y-78009815D01*
X128766277Y-78102057D01*
X128782707Y-78268878D01*
X128766277Y-78435699D01*
X128717613Y-78596122D01*
X128638595Y-78743956D01*
X128532249Y-78873537D01*
X128402668Y-78979883D01*
X128254834Y-79058901D01*
X128254831Y-79058902D01*
X128254829Y-79058903D01*
X128094415Y-79107564D01*
X128094414Y-79107564D01*
X128094411Y-79107565D01*
X127969394Y-79119878D01*
X127885786Y-79119878D01*
X127760769Y-79107565D01*
X127760766Y-79107564D01*
X127760765Y-79107564D01*
X127600351Y-79058903D01*
X127600349Y-79058902D01*
X127600346Y-79058901D01*
X127452512Y-78979883D01*
X127322931Y-78873537D01*
X127216585Y-78743956D01*
X127137567Y-78596122D01*
X127088903Y-78435699D01*
X127072473Y-78268878D01*
X127088903Y-78102057D01*
X127116884Y-78009815D01*
X127137565Y-77941639D01*
X127137566Y-77941637D01*
X127137567Y-77941634D01*
X127216585Y-77793800D01*
X127322931Y-77664219D01*
X127452512Y-77557873D01*
X127600346Y-77478855D01*
X127600349Y-77478854D01*
X127600351Y-77478853D01*
X127760765Y-77430192D01*
X127760766Y-77430192D01*
X127760769Y-77430191D01*
X127885786Y-77417878D01*
X127969394Y-77417878D01*
X128094411Y-77430191D01*
X128094411Y-77430191D01*
G37*
G36*
X123014411Y-77430191D02*
X123014414Y-77430192D01*
X123014415Y-77430192D01*
X123174829Y-77478853D01*
X123174831Y-77478854D01*
X123174834Y-77478855D01*
X123322668Y-77557873D01*
X123452249Y-77664219D01*
X123558595Y-77793800D01*
X123637613Y-77941634D01*
X123637614Y-77941637D01*
X123637615Y-77941639D01*
X123658296Y-78009815D01*
X123686277Y-78102057D01*
X123702707Y-78268878D01*
X123686277Y-78435699D01*
X123637613Y-78596122D01*
X123558595Y-78743956D01*
X123452249Y-78873537D01*
X123322668Y-78979883D01*
X123174834Y-79058901D01*
X123174831Y-79058902D01*
X123174829Y-79058903D01*
X123014415Y-79107564D01*
X123014414Y-79107564D01*
X123014411Y-79107565D01*
X122889394Y-79119878D01*
X122805786Y-79119878D01*
X122680769Y-79107565D01*
X122680766Y-79107564D01*
X122680765Y-79107564D01*
X122520351Y-79058903D01*
X122520349Y-79058902D01*
X122520346Y-79058901D01*
X122372512Y-78979883D01*
X122242931Y-78873537D01*
X122136585Y-78743956D01*
X122057567Y-78596122D01*
X122008903Y-78435699D01*
X121992473Y-78268878D01*
X122008903Y-78102057D01*
X122036884Y-78009815D01*
X122057565Y-77941639D01*
X122057566Y-77941637D01*
X122057567Y-77941634D01*
X122136585Y-77793800D01*
X122242931Y-77664219D01*
X122372512Y-77557873D01*
X122520346Y-77478855D01*
X122520349Y-77478854D01*
X122520351Y-77478853D01*
X122680765Y-77430192D01*
X122680766Y-77430192D01*
X122680769Y-77430191D01*
X122805786Y-77417878D01*
X122889394Y-77417878D01*
X123014411Y-77430191D01*
X123014411Y-77430191D01*
G37*
G36*
X120474411Y-77430191D02*
X120474414Y-77430192D01*
X120474415Y-77430192D01*
X120634829Y-77478853D01*
X120634831Y-77478854D01*
X120634834Y-77478855D01*
X120782668Y-77557873D01*
X120912249Y-77664219D01*
X121018595Y-77793800D01*
X121097613Y-77941634D01*
X121097614Y-77941637D01*
X121097615Y-77941639D01*
X121118296Y-78009815D01*
X121146277Y-78102057D01*
X121162707Y-78268878D01*
X121146277Y-78435699D01*
X121097613Y-78596122D01*
X121018595Y-78743956D01*
X120912249Y-78873537D01*
X120782668Y-78979883D01*
X120634834Y-79058901D01*
X120634831Y-79058902D01*
X120634829Y-79058903D01*
X120474415Y-79107564D01*
X120474414Y-79107564D01*
X120474411Y-79107565D01*
X120349394Y-79119878D01*
X120265786Y-79119878D01*
X120140769Y-79107565D01*
X120140766Y-79107564D01*
X120140765Y-79107564D01*
X119980351Y-79058903D01*
X119980349Y-79058902D01*
X119980346Y-79058901D01*
X119832512Y-78979883D01*
X119702931Y-78873537D01*
X119596585Y-78743956D01*
X119517567Y-78596122D01*
X119468903Y-78435699D01*
X119452473Y-78268878D01*
X119468903Y-78102057D01*
X119496884Y-78009815D01*
X119517565Y-77941639D01*
X119517566Y-77941637D01*
X119517567Y-77941634D01*
X119596585Y-77793800D01*
X119702931Y-77664219D01*
X119832512Y-77557873D01*
X119980346Y-77478855D01*
X119980349Y-77478854D01*
X119980351Y-77478853D01*
X120140765Y-77430192D01*
X120140766Y-77430192D01*
X120140769Y-77430191D01*
X120265786Y-77417878D01*
X120349394Y-77417878D01*
X120474411Y-77430191D01*
X120474411Y-77430191D01*
G37*
G36*
X117934411Y-77430191D02*
X117934414Y-77430192D01*
X117934415Y-77430192D01*
X118094829Y-77478853D01*
X118094831Y-77478854D01*
X118094834Y-77478855D01*
X118242668Y-77557873D01*
X118372249Y-77664219D01*
X118478595Y-77793800D01*
X118557613Y-77941634D01*
X118557614Y-77941637D01*
X118557615Y-77941639D01*
X118578296Y-78009815D01*
X118606277Y-78102057D01*
X118622707Y-78268878D01*
X118606277Y-78435699D01*
X118557613Y-78596122D01*
X118478595Y-78743956D01*
X118372249Y-78873537D01*
X118242668Y-78979883D01*
X118094834Y-79058901D01*
X118094831Y-79058902D01*
X118094829Y-79058903D01*
X117934415Y-79107564D01*
X117934414Y-79107564D01*
X117934411Y-79107565D01*
X117809394Y-79119878D01*
X117725786Y-79119878D01*
X117600769Y-79107565D01*
X117600766Y-79107564D01*
X117600765Y-79107564D01*
X117440351Y-79058903D01*
X117440349Y-79058902D01*
X117440346Y-79058901D01*
X117292512Y-78979883D01*
X117162931Y-78873537D01*
X117056585Y-78743956D01*
X116977567Y-78596122D01*
X116928903Y-78435699D01*
X116912473Y-78268878D01*
X116928903Y-78102057D01*
X116956884Y-78009815D01*
X116977565Y-77941639D01*
X116977566Y-77941637D01*
X116977567Y-77941634D01*
X117056585Y-77793800D01*
X117162931Y-77664219D01*
X117292512Y-77557873D01*
X117440346Y-77478855D01*
X117440349Y-77478854D01*
X117440351Y-77478853D01*
X117600765Y-77430192D01*
X117600766Y-77430192D01*
X117600769Y-77430191D01*
X117725786Y-77417878D01*
X117809394Y-77417878D01*
X117934411Y-77430191D01*
X117934411Y-77430191D01*
G37*
G36*
X115394411Y-77430191D02*
X115394414Y-77430192D01*
X115394415Y-77430192D01*
X115554829Y-77478853D01*
X115554831Y-77478854D01*
X115554834Y-77478855D01*
X115702668Y-77557873D01*
X115832249Y-77664219D01*
X115938595Y-77793800D01*
X116017613Y-77941634D01*
X116017614Y-77941637D01*
X116017615Y-77941639D01*
X116038296Y-78009815D01*
X116066277Y-78102057D01*
X116082707Y-78268878D01*
X116066277Y-78435699D01*
X116017613Y-78596122D01*
X115938595Y-78743956D01*
X115832249Y-78873537D01*
X115702668Y-78979883D01*
X115554834Y-79058901D01*
X115554831Y-79058902D01*
X115554829Y-79058903D01*
X115394415Y-79107564D01*
X115394414Y-79107564D01*
X115394411Y-79107565D01*
X115269394Y-79119878D01*
X115185786Y-79119878D01*
X115060769Y-79107565D01*
X115060766Y-79107564D01*
X115060765Y-79107564D01*
X114900351Y-79058903D01*
X114900349Y-79058902D01*
X114900346Y-79058901D01*
X114752512Y-78979883D01*
X114622931Y-78873537D01*
X114516585Y-78743956D01*
X114437567Y-78596122D01*
X114388903Y-78435699D01*
X114372473Y-78268878D01*
X114388903Y-78102057D01*
X114416884Y-78009815D01*
X114437565Y-77941639D01*
X114437566Y-77941637D01*
X114437567Y-77941634D01*
X114516585Y-77793800D01*
X114622931Y-77664219D01*
X114752512Y-77557873D01*
X114900346Y-77478855D01*
X114900349Y-77478854D01*
X114900351Y-77478853D01*
X115060765Y-77430192D01*
X115060766Y-77430192D01*
X115060769Y-77430191D01*
X115185786Y-77417878D01*
X115269394Y-77417878D01*
X115394411Y-77430191D01*
X115394411Y-77430191D01*
G37*
G36*
X138254411Y-77430191D02*
X138254414Y-77430192D01*
X138254415Y-77430192D01*
X138414829Y-77478853D01*
X138414831Y-77478854D01*
X138414834Y-77478855D01*
X138562668Y-77557873D01*
X138692249Y-77664219D01*
X138798595Y-77793800D01*
X138877613Y-77941634D01*
X138877614Y-77941637D01*
X138877615Y-77941639D01*
X138898296Y-78009815D01*
X138926277Y-78102057D01*
X138942707Y-78268878D01*
X138926277Y-78435699D01*
X138877613Y-78596122D01*
X138798595Y-78743956D01*
X138692249Y-78873537D01*
X138562668Y-78979883D01*
X138414834Y-79058901D01*
X138414831Y-79058902D01*
X138414829Y-79058903D01*
X138254415Y-79107564D01*
X138254414Y-79107564D01*
X138254411Y-79107565D01*
X138129394Y-79119878D01*
X138045786Y-79119878D01*
X137920769Y-79107565D01*
X137920766Y-79107564D01*
X137920765Y-79107564D01*
X137760351Y-79058903D01*
X137760349Y-79058902D01*
X137760346Y-79058901D01*
X137612512Y-78979883D01*
X137482931Y-78873537D01*
X137376585Y-78743956D01*
X137297567Y-78596122D01*
X137248903Y-78435699D01*
X137232473Y-78268878D01*
X137248903Y-78102057D01*
X137276884Y-78009815D01*
X137297565Y-77941639D01*
X137297566Y-77941637D01*
X137297567Y-77941634D01*
X137376585Y-77793800D01*
X137482931Y-77664219D01*
X137612512Y-77557873D01*
X137760346Y-77478855D01*
X137760349Y-77478854D01*
X137760351Y-77478853D01*
X137920765Y-77430192D01*
X137920766Y-77430192D01*
X137920769Y-77430191D01*
X138045786Y-77417878D01*
X138129394Y-77417878D01*
X138254411Y-77430191D01*
X138254411Y-77430191D01*
G37*
G36*
X140794411Y-77430191D02*
X140794414Y-77430192D01*
X140794415Y-77430192D01*
X140954829Y-77478853D01*
X140954831Y-77478854D01*
X140954834Y-77478855D01*
X141102668Y-77557873D01*
X141232249Y-77664219D01*
X141338595Y-77793800D01*
X141417613Y-77941634D01*
X141417614Y-77941637D01*
X141417615Y-77941639D01*
X141438296Y-78009815D01*
X141466277Y-78102057D01*
X141482707Y-78268878D01*
X141466277Y-78435699D01*
X141417613Y-78596122D01*
X141338595Y-78743956D01*
X141232249Y-78873537D01*
X141102668Y-78979883D01*
X140954834Y-79058901D01*
X140954831Y-79058902D01*
X140954829Y-79058903D01*
X140794415Y-79107564D01*
X140794414Y-79107564D01*
X140794411Y-79107565D01*
X140669394Y-79119878D01*
X140585786Y-79119878D01*
X140460769Y-79107565D01*
X140460766Y-79107564D01*
X140460765Y-79107564D01*
X140300351Y-79058903D01*
X140300349Y-79058902D01*
X140300346Y-79058901D01*
X140152512Y-78979883D01*
X140022931Y-78873537D01*
X139916585Y-78743956D01*
X139837567Y-78596122D01*
X139788903Y-78435699D01*
X139772473Y-78268878D01*
X139788903Y-78102057D01*
X139816884Y-78009815D01*
X139837565Y-77941639D01*
X139837566Y-77941637D01*
X139837567Y-77941634D01*
X139916585Y-77793800D01*
X140022931Y-77664219D01*
X140152512Y-77557873D01*
X140300346Y-77478855D01*
X140300349Y-77478854D01*
X140300351Y-77478853D01*
X140460765Y-77430192D01*
X140460766Y-77430192D01*
X140460769Y-77430191D01*
X140585786Y-77417878D01*
X140669394Y-77417878D01*
X140794411Y-77430191D01*
X140794411Y-77430191D01*
G37*
G36*
X143334411Y-77430191D02*
X143334414Y-77430192D01*
X143334415Y-77430192D01*
X143494829Y-77478853D01*
X143494831Y-77478854D01*
X143494834Y-77478855D01*
X143642668Y-77557873D01*
X143772249Y-77664219D01*
X143878595Y-77793800D01*
X143957613Y-77941634D01*
X143957614Y-77941637D01*
X143957615Y-77941639D01*
X143978296Y-78009815D01*
X144006277Y-78102057D01*
X144022707Y-78268878D01*
X144006277Y-78435699D01*
X143957613Y-78596122D01*
X143878595Y-78743956D01*
X143772249Y-78873537D01*
X143642668Y-78979883D01*
X143494834Y-79058901D01*
X143494831Y-79058902D01*
X143494829Y-79058903D01*
X143334415Y-79107564D01*
X143334414Y-79107564D01*
X143334411Y-79107565D01*
X143209394Y-79119878D01*
X143125786Y-79119878D01*
X143000769Y-79107565D01*
X143000766Y-79107564D01*
X143000765Y-79107564D01*
X142840351Y-79058903D01*
X142840349Y-79058902D01*
X142840346Y-79058901D01*
X142692512Y-78979883D01*
X142562931Y-78873537D01*
X142456585Y-78743956D01*
X142377567Y-78596122D01*
X142328903Y-78435699D01*
X142312473Y-78268878D01*
X142328903Y-78102057D01*
X142356884Y-78009815D01*
X142377565Y-77941639D01*
X142377566Y-77941637D01*
X142377567Y-77941634D01*
X142456585Y-77793800D01*
X142562931Y-77664219D01*
X142692512Y-77557873D01*
X142840346Y-77478855D01*
X142840349Y-77478854D01*
X142840351Y-77478853D01*
X143000765Y-77430192D01*
X143000766Y-77430192D01*
X143000769Y-77430191D01*
X143125786Y-77417878D01*
X143209394Y-77417878D01*
X143334411Y-77430191D01*
X143334411Y-77430191D01*
G37*
G36*
X145874411Y-77430191D02*
X145874414Y-77430192D01*
X145874415Y-77430192D01*
X146034829Y-77478853D01*
X146034831Y-77478854D01*
X146034834Y-77478855D01*
X146182668Y-77557873D01*
X146312249Y-77664219D01*
X146418595Y-77793800D01*
X146497613Y-77941634D01*
X146497614Y-77941637D01*
X146497615Y-77941639D01*
X146518296Y-78009815D01*
X146546277Y-78102057D01*
X146562707Y-78268878D01*
X146546277Y-78435699D01*
X146497613Y-78596122D01*
X146418595Y-78743956D01*
X146312249Y-78873537D01*
X146182668Y-78979883D01*
X146034834Y-79058901D01*
X146034831Y-79058902D01*
X146034829Y-79058903D01*
X145874415Y-79107564D01*
X145874414Y-79107564D01*
X145874411Y-79107565D01*
X145749394Y-79119878D01*
X145665786Y-79119878D01*
X145540769Y-79107565D01*
X145540766Y-79107564D01*
X145540765Y-79107564D01*
X145380351Y-79058903D01*
X145380349Y-79058902D01*
X145380346Y-79058901D01*
X145232512Y-78979883D01*
X145102931Y-78873537D01*
X144996585Y-78743956D01*
X144917567Y-78596122D01*
X144868903Y-78435699D01*
X144852473Y-78268878D01*
X144868903Y-78102057D01*
X144896884Y-78009815D01*
X144917565Y-77941639D01*
X144917566Y-77941637D01*
X144917567Y-77941634D01*
X144996585Y-77793800D01*
X145102931Y-77664219D01*
X145232512Y-77557873D01*
X145380346Y-77478855D01*
X145380349Y-77478854D01*
X145380351Y-77478853D01*
X145540765Y-77430192D01*
X145540766Y-77430192D01*
X145540769Y-77430191D01*
X145665786Y-77417878D01*
X145749394Y-77417878D01*
X145874411Y-77430191D01*
X145874411Y-77430191D01*
G37*
G36*
X151638590Y-79119878D02*
X149936590Y-79119878D01*
X149936590Y-77417878D01*
X151638590Y-77417878D01*
X151638590Y-79119878D01*
X151638590Y-79119878D01*
G37*
G36*
X125554411Y-77430191D02*
X125554414Y-77430192D01*
X125554415Y-77430192D01*
X125714829Y-77478853D01*
X125714831Y-77478854D01*
X125714834Y-77478855D01*
X125862668Y-77557873D01*
X125992249Y-77664219D01*
X126098595Y-77793800D01*
X126177613Y-77941634D01*
X126177614Y-77941637D01*
X126177615Y-77941639D01*
X126198296Y-78009815D01*
X126226277Y-78102057D01*
X126242707Y-78268878D01*
X126226277Y-78435699D01*
X126177613Y-78596122D01*
X126098595Y-78743956D01*
X125992249Y-78873537D01*
X125862668Y-78979883D01*
X125714834Y-79058901D01*
X125714831Y-79058902D01*
X125714829Y-79058903D01*
X125554415Y-79107564D01*
X125554414Y-79107564D01*
X125554411Y-79107565D01*
X125429394Y-79119878D01*
X125345786Y-79119878D01*
X125220769Y-79107565D01*
X125220766Y-79107564D01*
X125220765Y-79107564D01*
X125060351Y-79058903D01*
X125060349Y-79058902D01*
X125060346Y-79058901D01*
X124912512Y-78979883D01*
X124782931Y-78873537D01*
X124676585Y-78743956D01*
X124597567Y-78596122D01*
X124548903Y-78435699D01*
X124532473Y-78268878D01*
X124548903Y-78102057D01*
X124576884Y-78009815D01*
X124597565Y-77941639D01*
X124597566Y-77941637D01*
X124597567Y-77941634D01*
X124676585Y-77793800D01*
X124782931Y-77664219D01*
X124912512Y-77557873D01*
X125060346Y-77478855D01*
X125060349Y-77478854D01*
X125060351Y-77478853D01*
X125220765Y-77430192D01*
X125220766Y-77430192D01*
X125220769Y-77430191D01*
X125345786Y-77417878D01*
X125429394Y-77417878D01*
X125554411Y-77430191D01*
X125554411Y-77430191D01*
G37*
G36*
X135714411Y-77430191D02*
X135714414Y-77430192D01*
X135714415Y-77430192D01*
X135874829Y-77478853D01*
X135874831Y-77478854D01*
X135874834Y-77478855D01*
X136022668Y-77557873D01*
X136152249Y-77664219D01*
X136258595Y-77793800D01*
X136337613Y-77941634D01*
X136337614Y-77941637D01*
X136337615Y-77941639D01*
X136358296Y-78009815D01*
X136386277Y-78102057D01*
X136402707Y-78268878D01*
X136386277Y-78435699D01*
X136337613Y-78596122D01*
X136258595Y-78743956D01*
X136152249Y-78873537D01*
X136022668Y-78979883D01*
X135874834Y-79058901D01*
X135874831Y-79058902D01*
X135874829Y-79058903D01*
X135714415Y-79107564D01*
X135714414Y-79107564D01*
X135714411Y-79107565D01*
X135589394Y-79119878D01*
X135505786Y-79119878D01*
X135380769Y-79107565D01*
X135380766Y-79107564D01*
X135380765Y-79107564D01*
X135220351Y-79058903D01*
X135220349Y-79058902D01*
X135220346Y-79058901D01*
X135072512Y-78979883D01*
X134942931Y-78873537D01*
X134836585Y-78743956D01*
X134757567Y-78596122D01*
X134708903Y-78435699D01*
X134692473Y-78268878D01*
X134708903Y-78102057D01*
X134736884Y-78009815D01*
X134757565Y-77941639D01*
X134757566Y-77941637D01*
X134757567Y-77941634D01*
X134836585Y-77793800D01*
X134942931Y-77664219D01*
X135072512Y-77557873D01*
X135220346Y-77478855D01*
X135220349Y-77478854D01*
X135220351Y-77478853D01*
X135380765Y-77430192D01*
X135380766Y-77430192D01*
X135380769Y-77430191D01*
X135505786Y-77417878D01*
X135589394Y-77417878D01*
X135714411Y-77430191D01*
X135714411Y-77430191D01*
G37*
G36*
X99485590Y-78873878D02*
X97883590Y-78873878D01*
X97883590Y-78171878D01*
X99485590Y-78171878D01*
X99485590Y-78873878D01*
X99485590Y-78873878D01*
G37*
G36*
X104885590Y-78873878D02*
X103283590Y-78873878D01*
X103283590Y-78171878D01*
X104885590Y-78171878D01*
X104885590Y-78873878D01*
X104885590Y-78873878D01*
G37*
G36*
X93980590Y-78103878D02*
X92278590Y-78103878D01*
X92278590Y-76401878D01*
X93980590Y-76401878D01*
X93980590Y-78103878D01*
X93980590Y-78103878D01*
G37*
G36*
X166733586Y-72147929D02*
X166767243Y-72158139D01*
X166798257Y-72174716D01*
X166825442Y-72197026D01*
X166847752Y-72224211D01*
X166864329Y-72255225D01*
X166874539Y-72288882D01*
X166878590Y-72330016D01*
X166878590Y-75559740D01*
X166874539Y-75600874D01*
X166864329Y-75634531D01*
X166847752Y-75665545D01*
X166825442Y-75692730D01*
X166798257Y-75715040D01*
X166767243Y-75731617D01*
X166733586Y-75741827D01*
X166692452Y-75745878D01*
X165362728Y-75745878D01*
X165321594Y-75741827D01*
X165287937Y-75731617D01*
X165256923Y-75715040D01*
X165229738Y-75692730D01*
X165207428Y-75665545D01*
X165190851Y-75634531D01*
X165180641Y-75600874D01*
X165176590Y-75559740D01*
X165176590Y-72330016D01*
X165180641Y-72288882D01*
X165190851Y-72255225D01*
X165207428Y-72224211D01*
X165229738Y-72197026D01*
X165256923Y-72174716D01*
X165287937Y-72158139D01*
X165321594Y-72147929D01*
X165362728Y-72143878D01*
X166692452Y-72143878D01*
X166733586Y-72147929D01*
X166733586Y-72147929D01*
G37*
G36*
X85028590Y-75501878D02*
X81926590Y-75501878D01*
X81926590Y-72399878D01*
X85028590Y-72399878D01*
X85028590Y-75501878D01*
X85028590Y-75501878D01*
G37*
G36*
X154273226Y-71060897D02*
X154454493Y-71096953D01*
X154682161Y-71191256D01*
X154777078Y-71254678D01*
X154887059Y-71328165D01*
X155061303Y-71502409D01*
X155061305Y-71502412D01*
X155198212Y-71707307D01*
X155292515Y-71934975D01*
X155328571Y-72116242D01*
X155340203Y-72174716D01*
X155340590Y-72176665D01*
X155340590Y-72423091D01*
X155292515Y-72664781D01*
X155198212Y-72892449D01*
X155127511Y-72998260D01*
X155061303Y-73097347D01*
X154887059Y-73271591D01*
X154887056Y-73271593D01*
X154682161Y-73408500D01*
X154454493Y-73502803D01*
X154303803Y-73532777D01*
X154212804Y-73550878D01*
X153966376Y-73550878D01*
X153875377Y-73532777D01*
X153724687Y-73502803D01*
X153497019Y-73408500D01*
X153292124Y-73271593D01*
X153292121Y-73271591D01*
X153117877Y-73097347D01*
X153051669Y-72998260D01*
X152980968Y-72892449D01*
X152886665Y-72664781D01*
X152838590Y-72423091D01*
X152838590Y-72176665D01*
X152838978Y-72174716D01*
X152850609Y-72116242D01*
X152886665Y-71934975D01*
X152980968Y-71707307D01*
X153117875Y-71502412D01*
X153117877Y-71502409D01*
X153292121Y-71328165D01*
X153402102Y-71254678D01*
X153497019Y-71191256D01*
X153724687Y-71096953D01*
X153905954Y-71060897D01*
X153966376Y-71048878D01*
X154212804Y-71048878D01*
X154273226Y-71060897D01*
X154273226Y-71060897D01*
G37*
G36*
X128934829Y-71066979D02*
X129170643Y-71138512D01*
X129387971Y-71254677D01*
X129578461Y-71411007D01*
X129734791Y-71601497D01*
X129850956Y-71818825D01*
X129922489Y-72054639D01*
X129946643Y-72299878D01*
X129922489Y-72545117D01*
X129850956Y-72780931D01*
X129734791Y-72998259D01*
X129578461Y-73188749D01*
X129387971Y-73345079D01*
X129170643Y-73461244D01*
X128934829Y-73532777D01*
X128751047Y-73550878D01*
X128628133Y-73550878D01*
X128444351Y-73532777D01*
X128208537Y-73461244D01*
X127991209Y-73345079D01*
X127800719Y-73188749D01*
X127644389Y-72998259D01*
X127528224Y-72780931D01*
X127456691Y-72545117D01*
X127432537Y-72299878D01*
X127456691Y-72054639D01*
X127528224Y-71818825D01*
X127644389Y-71601497D01*
X127800719Y-71411007D01*
X127991209Y-71254677D01*
X128208537Y-71138512D01*
X128444351Y-71066979D01*
X128628133Y-71048878D01*
X128751047Y-71048878D01*
X128934829Y-71066979D01*
X128934829Y-71066979D01*
G37*
G36*
X113030590Y-72769878D02*
X111328590Y-72769878D01*
X111328590Y-71067878D01*
X113030590Y-71067878D01*
X113030590Y-72769878D01*
X113030590Y-72769878D01*
G37*
G36*
X114886411Y-71080191D02*
X114886414Y-71080192D01*
X114886415Y-71080192D01*
X115046829Y-71128853D01*
X115046831Y-71128854D01*
X115046834Y-71128855D01*
X115194668Y-71207873D01*
X115324249Y-71314219D01*
X115430595Y-71443800D01*
X115509613Y-71591634D01*
X115509614Y-71591637D01*
X115509615Y-71591639D01*
X115544702Y-71707307D01*
X115558277Y-71752057D01*
X115574707Y-71918878D01*
X115558277Y-72085699D01*
X115558276Y-72085702D01*
X115558276Y-72085703D01*
X115517001Y-72221769D01*
X115509613Y-72246122D01*
X115430595Y-72393956D01*
X115324249Y-72523537D01*
X115194668Y-72629883D01*
X115046834Y-72708901D01*
X115046831Y-72708902D01*
X115046829Y-72708903D01*
X114886415Y-72757564D01*
X114886414Y-72757564D01*
X114886411Y-72757565D01*
X114761394Y-72769878D01*
X114677786Y-72769878D01*
X114552769Y-72757565D01*
X114552766Y-72757564D01*
X114552765Y-72757564D01*
X114392351Y-72708903D01*
X114392349Y-72708902D01*
X114392346Y-72708901D01*
X114244512Y-72629883D01*
X114114931Y-72523537D01*
X114008585Y-72393956D01*
X113929567Y-72246122D01*
X113922180Y-72221769D01*
X113880904Y-72085703D01*
X113880904Y-72085702D01*
X113880903Y-72085699D01*
X113864473Y-71918878D01*
X113880903Y-71752057D01*
X113894478Y-71707307D01*
X113929565Y-71591639D01*
X113929566Y-71591637D01*
X113929567Y-71591634D01*
X114008585Y-71443800D01*
X114114931Y-71314219D01*
X114244512Y-71207873D01*
X114392346Y-71128855D01*
X114392349Y-71128854D01*
X114392351Y-71128853D01*
X114552765Y-71080192D01*
X114552766Y-71080192D01*
X114552769Y-71080191D01*
X114677786Y-71067878D01*
X114761394Y-71067878D01*
X114886411Y-71080191D01*
X114886411Y-71080191D01*
G37*
G36*
X117426411Y-71080191D02*
X117426414Y-71080192D01*
X117426415Y-71080192D01*
X117586829Y-71128853D01*
X117586831Y-71128854D01*
X117586834Y-71128855D01*
X117734668Y-71207873D01*
X117864249Y-71314219D01*
X117970595Y-71443800D01*
X118049613Y-71591634D01*
X118049614Y-71591637D01*
X118049615Y-71591639D01*
X118084702Y-71707307D01*
X118098277Y-71752057D01*
X118114707Y-71918878D01*
X118098277Y-72085699D01*
X118098276Y-72085702D01*
X118098276Y-72085703D01*
X118057001Y-72221769D01*
X118049613Y-72246122D01*
X117970595Y-72393956D01*
X117864249Y-72523537D01*
X117734668Y-72629883D01*
X117586834Y-72708901D01*
X117586831Y-72708902D01*
X117586829Y-72708903D01*
X117426415Y-72757564D01*
X117426414Y-72757564D01*
X117426411Y-72757565D01*
X117301394Y-72769878D01*
X117217786Y-72769878D01*
X117092769Y-72757565D01*
X117092766Y-72757564D01*
X117092765Y-72757564D01*
X116932351Y-72708903D01*
X116932349Y-72708902D01*
X116932346Y-72708901D01*
X116784512Y-72629883D01*
X116654931Y-72523537D01*
X116548585Y-72393956D01*
X116469567Y-72246122D01*
X116462180Y-72221769D01*
X116420904Y-72085703D01*
X116420904Y-72085702D01*
X116420903Y-72085699D01*
X116404473Y-71918878D01*
X116420903Y-71752057D01*
X116434478Y-71707307D01*
X116469565Y-71591639D01*
X116469566Y-71591637D01*
X116469567Y-71591634D01*
X116548585Y-71443800D01*
X116654931Y-71314219D01*
X116784512Y-71207873D01*
X116932346Y-71128855D01*
X116932349Y-71128854D01*
X116932351Y-71128853D01*
X117092765Y-71080192D01*
X117092766Y-71080192D01*
X117092769Y-71080191D01*
X117217786Y-71067878D01*
X117301394Y-71067878D01*
X117426411Y-71080191D01*
X117426411Y-71080191D01*
G37*
G36*
X122506411Y-71080191D02*
X122506414Y-71080192D01*
X122506415Y-71080192D01*
X122666829Y-71128853D01*
X122666831Y-71128854D01*
X122666834Y-71128855D01*
X122814668Y-71207873D01*
X122944249Y-71314219D01*
X123050595Y-71443800D01*
X123129613Y-71591634D01*
X123129614Y-71591637D01*
X123129615Y-71591639D01*
X123164702Y-71707307D01*
X123178277Y-71752057D01*
X123194707Y-71918878D01*
X123178277Y-72085699D01*
X123178276Y-72085702D01*
X123178276Y-72085703D01*
X123137001Y-72221769D01*
X123129613Y-72246122D01*
X123050595Y-72393956D01*
X122944249Y-72523537D01*
X122814668Y-72629883D01*
X122666834Y-72708901D01*
X122666831Y-72708902D01*
X122666829Y-72708903D01*
X122506415Y-72757564D01*
X122506414Y-72757564D01*
X122506411Y-72757565D01*
X122381394Y-72769878D01*
X122297786Y-72769878D01*
X122172769Y-72757565D01*
X122172766Y-72757564D01*
X122172765Y-72757564D01*
X122012351Y-72708903D01*
X122012349Y-72708902D01*
X122012346Y-72708901D01*
X121864512Y-72629883D01*
X121734931Y-72523537D01*
X121628585Y-72393956D01*
X121549567Y-72246122D01*
X121542180Y-72221769D01*
X121500904Y-72085703D01*
X121500904Y-72085702D01*
X121500903Y-72085699D01*
X121484473Y-71918878D01*
X121500903Y-71752057D01*
X121514478Y-71707307D01*
X121549565Y-71591639D01*
X121549566Y-71591637D01*
X121549567Y-71591634D01*
X121628585Y-71443800D01*
X121734931Y-71314219D01*
X121864512Y-71207873D01*
X122012346Y-71128855D01*
X122012349Y-71128854D01*
X122012351Y-71128853D01*
X122172765Y-71080192D01*
X122172766Y-71080192D01*
X122172769Y-71080191D01*
X122297786Y-71067878D01*
X122381394Y-71067878D01*
X122506411Y-71080191D01*
X122506411Y-71080191D01*
G37*
G36*
X119966411Y-71080191D02*
X119966414Y-71080192D01*
X119966415Y-71080192D01*
X120126829Y-71128853D01*
X120126831Y-71128854D01*
X120126834Y-71128855D01*
X120274668Y-71207873D01*
X120404249Y-71314219D01*
X120510595Y-71443800D01*
X120589613Y-71591634D01*
X120589614Y-71591637D01*
X120589615Y-71591639D01*
X120624702Y-71707307D01*
X120638277Y-71752057D01*
X120654707Y-71918878D01*
X120638277Y-72085699D01*
X120638276Y-72085702D01*
X120638276Y-72085703D01*
X120597001Y-72221769D01*
X120589613Y-72246122D01*
X120510595Y-72393956D01*
X120404249Y-72523537D01*
X120274668Y-72629883D01*
X120126834Y-72708901D01*
X120126831Y-72708902D01*
X120126829Y-72708903D01*
X119966415Y-72757564D01*
X119966414Y-72757564D01*
X119966411Y-72757565D01*
X119841394Y-72769878D01*
X119757786Y-72769878D01*
X119632769Y-72757565D01*
X119632766Y-72757564D01*
X119632765Y-72757564D01*
X119472351Y-72708903D01*
X119472349Y-72708902D01*
X119472346Y-72708901D01*
X119324512Y-72629883D01*
X119194931Y-72523537D01*
X119088585Y-72393956D01*
X119009567Y-72246122D01*
X119002180Y-72221769D01*
X118960904Y-72085703D01*
X118960904Y-72085702D01*
X118960903Y-72085699D01*
X118944473Y-71918878D01*
X118960903Y-71752057D01*
X118974478Y-71707307D01*
X119009565Y-71591639D01*
X119009566Y-71591637D01*
X119009567Y-71591634D01*
X119088585Y-71443800D01*
X119194931Y-71314219D01*
X119324512Y-71207873D01*
X119472346Y-71128855D01*
X119472349Y-71128854D01*
X119472351Y-71128853D01*
X119632765Y-71080192D01*
X119632766Y-71080192D01*
X119632769Y-71080191D01*
X119757786Y-71067878D01*
X119841394Y-71067878D01*
X119966411Y-71080191D01*
X119966411Y-71080191D01*
G37*
G36*
X125046411Y-71080191D02*
X125046414Y-71080192D01*
X125046415Y-71080192D01*
X125206829Y-71128853D01*
X125206831Y-71128854D01*
X125206834Y-71128855D01*
X125354668Y-71207873D01*
X125484249Y-71314219D01*
X125590595Y-71443800D01*
X125669613Y-71591634D01*
X125669614Y-71591637D01*
X125669615Y-71591639D01*
X125704702Y-71707307D01*
X125718277Y-71752057D01*
X125734707Y-71918878D01*
X125718277Y-72085699D01*
X125718276Y-72085702D01*
X125718276Y-72085703D01*
X125677001Y-72221769D01*
X125669613Y-72246122D01*
X125590595Y-72393956D01*
X125484249Y-72523537D01*
X125354668Y-72629883D01*
X125206834Y-72708901D01*
X125206831Y-72708902D01*
X125206829Y-72708903D01*
X125046415Y-72757564D01*
X125046414Y-72757564D01*
X125046411Y-72757565D01*
X124921394Y-72769878D01*
X124837786Y-72769878D01*
X124712769Y-72757565D01*
X124712766Y-72757564D01*
X124712765Y-72757564D01*
X124552351Y-72708903D01*
X124552349Y-72708902D01*
X124552346Y-72708901D01*
X124404512Y-72629883D01*
X124274931Y-72523537D01*
X124168585Y-72393956D01*
X124089567Y-72246122D01*
X124082180Y-72221769D01*
X124040904Y-72085703D01*
X124040904Y-72085702D01*
X124040903Y-72085699D01*
X124024473Y-71918878D01*
X124040903Y-71752057D01*
X124054478Y-71707307D01*
X124089565Y-71591639D01*
X124089566Y-71591637D01*
X124089567Y-71591634D01*
X124168585Y-71443800D01*
X124274931Y-71314219D01*
X124404512Y-71207873D01*
X124552346Y-71128855D01*
X124552349Y-71128854D01*
X124552351Y-71128853D01*
X124712765Y-71080192D01*
X124712766Y-71080192D01*
X124712769Y-71080191D01*
X124837786Y-71067878D01*
X124921394Y-71067878D01*
X125046411Y-71080191D01*
X125046411Y-71080191D01*
G37*
G36*
X90620590Y-72650878D02*
X88968590Y-72650878D01*
X88968590Y-71948878D01*
X90620590Y-71948878D01*
X90620590Y-72650878D01*
X90620590Y-72650878D01*
G37*
G36*
X96020590Y-72650878D02*
X94368590Y-72650878D01*
X94368590Y-71948878D01*
X96020590Y-71948878D01*
X96020590Y-72650878D01*
X96020590Y-72650878D01*
G37*
G36*
X104870225Y-70044897D02*
X105051493Y-70080953D01*
X105279161Y-70175256D01*
X105483132Y-70311546D01*
X105484059Y-70312165D01*
X105658303Y-70486409D01*
X105658305Y-70486412D01*
X105795212Y-70691307D01*
X105889515Y-70918975D01*
X105937590Y-71160665D01*
X105937590Y-71407091D01*
X105889515Y-71648781D01*
X105795212Y-71876449D01*
X105746816Y-71948878D01*
X105658303Y-72081347D01*
X105484059Y-72255591D01*
X105484056Y-72255593D01*
X105279161Y-72392500D01*
X105051493Y-72486803D01*
X104870226Y-72522859D01*
X104809804Y-72534878D01*
X104563376Y-72534878D01*
X104502954Y-72522859D01*
X104321687Y-72486803D01*
X104094019Y-72392500D01*
X103889124Y-72255593D01*
X103889121Y-72255591D01*
X103714877Y-72081347D01*
X103626364Y-71948878D01*
X103577968Y-71876449D01*
X103483665Y-71648781D01*
X103435590Y-71407091D01*
X103435590Y-71160665D01*
X103483665Y-70918975D01*
X103577968Y-70691307D01*
X103714875Y-70486412D01*
X103714877Y-70486409D01*
X103889121Y-70312165D01*
X103890048Y-70311546D01*
X104094019Y-70175256D01*
X104321687Y-70080953D01*
X104502955Y-70044897D01*
X104563376Y-70032878D01*
X104809804Y-70032878D01*
X104870225Y-70044897D01*
X104870225Y-70044897D01*
G37*
G36*
X90620590Y-71380878D02*
X88968590Y-71380878D01*
X88968590Y-70678878D01*
X90620590Y-70678878D01*
X90620590Y-71380878D01*
X90620590Y-71380878D01*
G37*
G36*
X96020590Y-71380878D02*
X94368590Y-71380878D01*
X94368590Y-70678878D01*
X96020590Y-70678878D01*
X96020590Y-71380878D01*
X96020590Y-71380878D01*
G37*
G36*
X83830117Y-67359614D02*
X83930000Y-67379482D01*
X84212264Y-67496399D01*
X84466295Y-67666137D01*
X84682331Y-67882173D01*
X84852069Y-68136204D01*
X84968986Y-68418468D01*
X85028590Y-68718118D01*
X85028590Y-69023638D01*
X84968986Y-69323288D01*
X84852069Y-69605552D01*
X84682331Y-69859583D01*
X84466295Y-70075619D01*
X84212264Y-70245357D01*
X83930000Y-70362274D01*
X83830117Y-70382142D01*
X83630352Y-70421878D01*
X83324828Y-70421878D01*
X83125063Y-70382142D01*
X83025180Y-70362274D01*
X82742916Y-70245357D01*
X82488885Y-70075619D01*
X82272849Y-69859583D01*
X82103111Y-69605552D01*
X81986194Y-69323288D01*
X81926590Y-69023638D01*
X81926590Y-68718118D01*
X81986194Y-68418468D01*
X82103111Y-68136204D01*
X82272849Y-67882173D01*
X82488885Y-67666137D01*
X82742916Y-67496399D01*
X83025180Y-67379482D01*
X83125063Y-67359614D01*
X83324828Y-67319878D01*
X83630352Y-67319878D01*
X83830117Y-67359614D01*
X83830117Y-67359614D01*
G37*
G36*
X96020590Y-70110878D02*
X94368590Y-70110878D01*
X94368590Y-69408878D01*
X96020590Y-69408878D01*
X96020590Y-70110878D01*
X96020590Y-70110878D01*
G37*
G36*
X90620590Y-70110878D02*
X88968590Y-70110878D01*
X88968590Y-69408878D01*
X90620590Y-69408878D01*
X90620590Y-70110878D01*
X90620590Y-70110878D01*
G37*
G36*
X113664590Y-69001878D02*
X111662590Y-69001878D01*
X111662590Y-68099878D01*
X113664590Y-68099878D01*
X113664590Y-69001878D01*
X113664590Y-69001878D01*
G37*
G36*
X90620590Y-68840878D02*
X88968590Y-68840878D01*
X88968590Y-68138878D01*
X90620590Y-68138878D01*
X90620590Y-68840878D01*
X90620590Y-68840878D01*
G37*
G36*
X96020590Y-68840878D02*
X94368590Y-68840878D01*
X94368590Y-68138878D01*
X96020590Y-68138878D01*
X96020590Y-68840878D01*
X96020590Y-68840878D01*
G37*
G36*
X104887267Y-66600343D02*
X104924954Y-66611776D01*
X104959693Y-66630344D01*
X104990138Y-66655330D01*
X105015124Y-66685775D01*
X105033692Y-66720514D01*
X105045125Y-66758201D01*
X105049590Y-66803539D01*
X105049590Y-67890217D01*
X105045125Y-67935555D01*
X105033692Y-67973242D01*
X105015124Y-68007981D01*
X104990138Y-68038426D01*
X104959693Y-68063412D01*
X104924954Y-68081980D01*
X104887267Y-68093413D01*
X104841929Y-68097878D01*
X104005251Y-68097878D01*
X103959913Y-68093413D01*
X103922226Y-68081980D01*
X103887487Y-68063412D01*
X103857042Y-68038426D01*
X103832056Y-68007981D01*
X103813488Y-67973242D01*
X103802055Y-67935555D01*
X103797590Y-67890217D01*
X103797590Y-66803539D01*
X103802055Y-66758201D01*
X103813488Y-66720514D01*
X103832056Y-66685775D01*
X103857042Y-66655330D01*
X103887487Y-66630344D01*
X103922226Y-66611776D01*
X103959913Y-66600343D01*
X104005251Y-66595878D01*
X104841929Y-66595878D01*
X104887267Y-66600343D01*
X104887267Y-66600343D01*
G37*
G36*
X106937267Y-66600343D02*
X106974954Y-66611776D01*
X107009693Y-66630344D01*
X107040138Y-66655330D01*
X107065124Y-66685775D01*
X107083692Y-66720514D01*
X107095125Y-66758201D01*
X107099590Y-66803539D01*
X107099590Y-67890217D01*
X107095125Y-67935555D01*
X107083692Y-67973242D01*
X107065124Y-68007981D01*
X107040138Y-68038426D01*
X107009693Y-68063412D01*
X106974954Y-68081980D01*
X106937267Y-68093413D01*
X106891929Y-68097878D01*
X106055251Y-68097878D01*
X106009913Y-68093413D01*
X105972226Y-68081980D01*
X105937487Y-68063412D01*
X105907042Y-68038426D01*
X105882056Y-68007981D01*
X105863488Y-67973242D01*
X105852055Y-67935555D01*
X105847590Y-67890217D01*
X105847590Y-66803539D01*
X105852055Y-66758201D01*
X105863488Y-66720514D01*
X105882056Y-66685775D01*
X105907042Y-66655330D01*
X105937487Y-66630344D01*
X105972226Y-66611776D01*
X106009913Y-66600343D01*
X106055251Y-66595878D01*
X106891929Y-66595878D01*
X106937267Y-66600343D01*
X106937267Y-66600343D01*
G37*
G36*
X110664590Y-68051878D02*
X108662590Y-68051878D01*
X108662590Y-67149878D01*
X110664590Y-67149878D01*
X110664590Y-68051878D01*
X110664590Y-68051878D01*
G37*
G36*
X101055621Y-66115713D02*
X101055624Y-66115714D01*
X101055625Y-66115714D01*
X101216039Y-66164375D01*
X101216041Y-66164376D01*
X101216044Y-66164377D01*
X101363878Y-66243395D01*
X101493459Y-66349741D01*
X101599805Y-66479322D01*
X101678823Y-66627156D01*
X101678824Y-66627159D01*
X101678825Y-66627161D01*
X101720303Y-66763895D01*
X101727487Y-66787579D01*
X101743917Y-66954400D01*
X101727487Y-67121221D01*
X101727486Y-67121224D01*
X101727486Y-67121225D01*
X101689370Y-67246878D01*
X101678823Y-67281644D01*
X101599805Y-67429478D01*
X101493459Y-67559059D01*
X101363878Y-67665405D01*
X101216044Y-67744423D01*
X101216041Y-67744424D01*
X101216039Y-67744425D01*
X101055625Y-67793086D01*
X101055624Y-67793086D01*
X101055621Y-67793087D01*
X100930604Y-67805400D01*
X100846996Y-67805400D01*
X100721979Y-67793087D01*
X100721976Y-67793086D01*
X100721975Y-67793086D01*
X100561561Y-67744425D01*
X100561559Y-67744424D01*
X100561556Y-67744423D01*
X100413722Y-67665405D01*
X100284141Y-67559059D01*
X100177795Y-67429478D01*
X100098777Y-67281644D01*
X100088231Y-67246878D01*
X100050114Y-67121225D01*
X100050114Y-67121224D01*
X100050113Y-67121221D01*
X100033683Y-66954400D01*
X100050113Y-66787579D01*
X100057297Y-66763895D01*
X100098775Y-66627161D01*
X100098776Y-66627159D01*
X100098777Y-66627156D01*
X100177795Y-66479322D01*
X100284141Y-66349741D01*
X100413722Y-66243395D01*
X100561556Y-66164377D01*
X100561559Y-66164376D01*
X100561561Y-66164375D01*
X100721975Y-66115714D01*
X100721976Y-66115714D01*
X100721979Y-66115713D01*
X100846996Y-66103400D01*
X100930604Y-66103400D01*
X101055621Y-66115713D01*
X101055621Y-66115713D01*
G37*
G36*
X173801590Y-67246878D02*
X170699590Y-67246878D01*
X170699590Y-64144878D01*
X173801590Y-64144878D01*
X173801590Y-67246878D01*
X173801590Y-67246878D01*
G37*
G36*
X113664590Y-67101878D02*
X111662590Y-67101878D01*
X111662590Y-66199878D01*
X113664590Y-66199878D01*
X113664590Y-67101878D01*
X113664590Y-67101878D01*
G37*
G36*
X161908142Y-63937442D02*
X162056102Y-63998730D01*
X162082900Y-64016636D01*
X162188449Y-64087161D01*
X162189258Y-64087702D01*
X162302498Y-64200942D01*
X162391470Y-64334098D01*
X162452758Y-64482058D01*
X162484000Y-64639125D01*
X162484000Y-64799275D01*
X162452758Y-64956342D01*
X162426779Y-65019059D01*
X162391471Y-65104300D01*
X162310166Y-65225983D01*
X162302498Y-65237458D01*
X162189258Y-65350698D01*
X162056102Y-65439670D01*
X161908142Y-65500958D01*
X161751075Y-65532200D01*
X161590925Y-65532200D01*
X161433858Y-65500958D01*
X161285898Y-65439670D01*
X161152742Y-65350698D01*
X161039502Y-65237458D01*
X161031835Y-65225983D01*
X160950529Y-65104300D01*
X160915221Y-65019059D01*
X160889242Y-64956342D01*
X160858000Y-64799275D01*
X160858000Y-64639125D01*
X160889242Y-64482058D01*
X160950530Y-64334098D01*
X161039502Y-64200942D01*
X161152742Y-64087702D01*
X161153552Y-64087161D01*
X161259100Y-64016636D01*
X161285898Y-63998730D01*
X161433858Y-63937442D01*
X161590925Y-63906200D01*
X161751075Y-63906200D01*
X161908142Y-63937442D01*
X161908142Y-63937442D01*
G37*
G36*
X104772477Y-63896465D02*
X104810164Y-63907898D01*
X104844903Y-63926466D01*
X104875348Y-63951452D01*
X104900334Y-63981897D01*
X104918902Y-64016636D01*
X104930335Y-64054323D01*
X104934800Y-64099661D01*
X104934800Y-65186339D01*
X104930335Y-65231677D01*
X104918902Y-65269364D01*
X104900334Y-65304103D01*
X104875348Y-65334548D01*
X104844903Y-65359534D01*
X104810164Y-65378102D01*
X104772477Y-65389535D01*
X104727139Y-65394000D01*
X103890461Y-65394000D01*
X103845123Y-65389535D01*
X103807436Y-65378102D01*
X103772697Y-65359534D01*
X103742252Y-65334548D01*
X103717266Y-65304103D01*
X103698698Y-65269364D01*
X103687265Y-65231677D01*
X103682800Y-65186339D01*
X103682800Y-64099661D01*
X103687265Y-64054323D01*
X103698698Y-64016636D01*
X103717266Y-63981897D01*
X103742252Y-63951452D01*
X103772697Y-63926466D01*
X103807436Y-63907898D01*
X103845123Y-63896465D01*
X103890461Y-63892000D01*
X104727139Y-63892000D01*
X104772477Y-63896465D01*
X104772477Y-63896465D01*
G37*
G36*
X106822477Y-63896465D02*
X106860164Y-63907898D01*
X106894903Y-63926466D01*
X106925348Y-63951452D01*
X106950334Y-63981897D01*
X106968902Y-64016636D01*
X106980335Y-64054323D01*
X106984800Y-64099661D01*
X106984800Y-65186339D01*
X106980335Y-65231677D01*
X106968902Y-65269364D01*
X106950334Y-65304103D01*
X106925348Y-65334548D01*
X106894903Y-65359534D01*
X106860164Y-65378102D01*
X106822477Y-65389535D01*
X106777139Y-65394000D01*
X105940461Y-65394000D01*
X105895123Y-65389535D01*
X105857436Y-65378102D01*
X105822697Y-65359534D01*
X105792252Y-65334548D01*
X105767266Y-65304103D01*
X105748698Y-65269364D01*
X105737265Y-65231677D01*
X105732800Y-65186339D01*
X105732800Y-64099661D01*
X105737265Y-64054323D01*
X105748698Y-64016636D01*
X105767266Y-63981897D01*
X105792252Y-63951452D01*
X105822697Y-63926466D01*
X105857436Y-63907898D01*
X105895123Y-63896465D01*
X105940461Y-63892000D01*
X106777139Y-63892000D01*
X106822477Y-63896465D01*
X106822477Y-63896465D01*
G37*
G36*
X101055621Y-63575713D02*
X101055624Y-63575714D01*
X101055625Y-63575714D01*
X101216039Y-63624375D01*
X101216041Y-63624376D01*
X101216044Y-63624377D01*
X101363878Y-63703395D01*
X101493459Y-63809741D01*
X101599805Y-63939322D01*
X101678823Y-64087156D01*
X101678824Y-64087159D01*
X101678825Y-64087161D01*
X101696333Y-64144878D01*
X101727487Y-64247579D01*
X101743917Y-64414400D01*
X101727487Y-64581221D01*
X101678823Y-64741644D01*
X101599805Y-64889478D01*
X101493459Y-65019059D01*
X101363878Y-65125405D01*
X101216044Y-65204423D01*
X101216041Y-65204424D01*
X101216039Y-65204425D01*
X101055625Y-65253086D01*
X101055624Y-65253086D01*
X101055621Y-65253087D01*
X100930604Y-65265400D01*
X100846996Y-65265400D01*
X100721979Y-65253087D01*
X100721976Y-65253086D01*
X100721975Y-65253086D01*
X100561561Y-65204425D01*
X100561559Y-65204424D01*
X100561556Y-65204423D01*
X100413722Y-65125405D01*
X100284141Y-65019059D01*
X100177795Y-64889478D01*
X100098777Y-64741644D01*
X100050113Y-64581221D01*
X100033683Y-64414400D01*
X100050113Y-64247579D01*
X100081267Y-64144878D01*
X100098775Y-64087161D01*
X100098776Y-64087159D01*
X100098777Y-64087156D01*
X100177795Y-63939322D01*
X100284141Y-63809741D01*
X100413722Y-63703395D01*
X100561556Y-63624377D01*
X100561559Y-63624376D01*
X100561561Y-63624375D01*
X100721975Y-63575714D01*
X100721976Y-63575714D01*
X100721979Y-63575713D01*
X100846996Y-63563400D01*
X100930604Y-63563400D01*
X101055621Y-63575713D01*
X101055621Y-63575713D01*
G37*
G36*
X113664590Y-65064878D02*
X111662590Y-65064878D01*
X111662590Y-64162878D01*
X113664590Y-64162878D01*
X113664590Y-65064878D01*
X113664590Y-65064878D01*
G37*
G36*
X85028590Y-64833878D02*
X81926590Y-64833878D01*
X81926590Y-61731878D01*
X85028590Y-61731878D01*
X85028590Y-64833878D01*
X85028590Y-64833878D01*
G37*
G36*
X110664590Y-64114878D02*
X108662590Y-64114878D01*
X108662590Y-63212878D01*
X110664590Y-63212878D01*
X110664590Y-64114878D01*
X110664590Y-64114878D01*
G37*
G36*
X90366590Y-63760878D02*
X88714590Y-63760878D01*
X88714590Y-63058878D01*
X90366590Y-63058878D01*
X90366590Y-63760878D01*
X90366590Y-63760878D01*
G37*
G36*
X95766590Y-63760878D02*
X94114590Y-63760878D01*
X94114590Y-63058878D01*
X95766590Y-63058878D01*
X95766590Y-63760878D01*
X95766590Y-63760878D01*
G37*
G36*
X136254142Y-61651442D02*
X136402102Y-61712730D01*
X136430759Y-61731878D01*
X136535257Y-61801701D01*
X136648499Y-61914943D01*
X136692683Y-61981070D01*
X136737470Y-62048098D01*
X136798758Y-62196058D01*
X136830000Y-62353125D01*
X136830000Y-62513275D01*
X136798758Y-62670342D01*
X136737470Y-62818302D01*
X136648498Y-62951458D01*
X136535258Y-63064698D01*
X136402102Y-63153670D01*
X136254142Y-63214958D01*
X136097075Y-63246200D01*
X135936925Y-63246200D01*
X135779858Y-63214958D01*
X135631898Y-63153670D01*
X135498742Y-63064698D01*
X135385502Y-62951458D01*
X135296530Y-62818302D01*
X135235242Y-62670342D01*
X135204000Y-62513275D01*
X135204000Y-62353125D01*
X135235242Y-62196058D01*
X135296530Y-62048098D01*
X135341317Y-61981070D01*
X135385501Y-61914943D01*
X135498743Y-61801701D01*
X135603241Y-61731878D01*
X135631898Y-61712730D01*
X135779858Y-61651442D01*
X135936925Y-61620200D01*
X136097075Y-61620200D01*
X136254142Y-61651442D01*
X136254142Y-61651442D01*
G37*
G36*
X113664590Y-63164878D02*
X111662590Y-63164878D01*
X111662590Y-62262878D01*
X113664590Y-62262878D01*
X113664590Y-63164878D01*
X113664590Y-63164878D01*
G37*
G36*
X161908142Y-61397442D02*
X162056102Y-61458730D01*
X162072183Y-61469475D01*
X162188449Y-61547161D01*
X162189258Y-61547702D01*
X162302498Y-61660942D01*
X162391470Y-61794098D01*
X162452758Y-61942058D01*
X162484000Y-62099125D01*
X162484000Y-62259275D01*
X162452758Y-62416342D01*
X162391470Y-62564302D01*
X162349066Y-62627764D01*
X162305512Y-62692948D01*
X162302498Y-62697458D01*
X162189258Y-62810698D01*
X162056102Y-62899670D01*
X161908142Y-62960958D01*
X161751075Y-62992200D01*
X161590925Y-62992200D01*
X161433858Y-62960958D01*
X161285898Y-62899670D01*
X161152742Y-62810698D01*
X161039502Y-62697458D01*
X161036489Y-62692948D01*
X160992934Y-62627764D01*
X160950530Y-62564302D01*
X160889242Y-62416342D01*
X160858000Y-62259275D01*
X160858000Y-62099125D01*
X160889242Y-61942058D01*
X160950530Y-61794098D01*
X161039502Y-61660942D01*
X161152742Y-61547702D01*
X161153552Y-61547161D01*
X161269817Y-61469475D01*
X161285898Y-61458730D01*
X161433858Y-61397442D01*
X161590925Y-61366200D01*
X161751075Y-61366200D01*
X161908142Y-61397442D01*
X161908142Y-61397442D01*
G37*
G36*
X106822477Y-61254865D02*
X106860164Y-61266298D01*
X106894903Y-61284866D01*
X106925348Y-61309852D01*
X106950334Y-61340297D01*
X106968902Y-61375036D01*
X106980335Y-61412723D01*
X106984800Y-61458061D01*
X106984800Y-62544739D01*
X106980335Y-62590077D01*
X106968902Y-62627764D01*
X106950334Y-62662503D01*
X106925348Y-62692948D01*
X106894903Y-62717934D01*
X106860164Y-62736502D01*
X106822477Y-62747935D01*
X106777139Y-62752400D01*
X105940461Y-62752400D01*
X105895123Y-62747935D01*
X105857436Y-62736502D01*
X105822697Y-62717934D01*
X105792252Y-62692948D01*
X105767266Y-62662503D01*
X105748698Y-62627764D01*
X105737265Y-62590077D01*
X105732800Y-62544739D01*
X105732800Y-61458061D01*
X105737265Y-61412723D01*
X105748698Y-61375036D01*
X105767266Y-61340297D01*
X105792252Y-61309852D01*
X105822697Y-61284866D01*
X105857436Y-61266298D01*
X105895123Y-61254865D01*
X105940461Y-61250400D01*
X106777139Y-61250400D01*
X106822477Y-61254865D01*
X106822477Y-61254865D01*
G37*
G36*
X104772477Y-61254865D02*
X104810164Y-61266298D01*
X104844903Y-61284866D01*
X104875348Y-61309852D01*
X104900334Y-61340297D01*
X104918902Y-61375036D01*
X104930335Y-61412723D01*
X104934800Y-61458061D01*
X104934800Y-62544739D01*
X104930335Y-62590077D01*
X104918902Y-62627764D01*
X104900334Y-62662503D01*
X104875348Y-62692948D01*
X104844903Y-62717934D01*
X104810164Y-62736502D01*
X104772477Y-62747935D01*
X104727139Y-62752400D01*
X103890461Y-62752400D01*
X103845123Y-62747935D01*
X103807436Y-62736502D01*
X103772697Y-62717934D01*
X103742252Y-62692948D01*
X103717266Y-62662503D01*
X103698698Y-62627764D01*
X103687265Y-62590077D01*
X103682800Y-62544739D01*
X103682800Y-61458061D01*
X103687265Y-61412723D01*
X103698698Y-61375036D01*
X103717266Y-61340297D01*
X103742252Y-61309852D01*
X103772697Y-61284866D01*
X103807436Y-61266298D01*
X103845123Y-61254865D01*
X103890461Y-61250400D01*
X104727139Y-61250400D01*
X104772477Y-61254865D01*
X104772477Y-61254865D01*
G37*
G36*
X101055621Y-61035713D02*
X101055624Y-61035714D01*
X101055625Y-61035714D01*
X101216039Y-61084375D01*
X101216041Y-61084376D01*
X101216044Y-61084377D01*
X101363878Y-61163395D01*
X101493459Y-61269741D01*
X101599805Y-61399322D01*
X101678823Y-61547156D01*
X101678824Y-61547159D01*
X101678825Y-61547161D01*
X101713340Y-61660942D01*
X101727487Y-61707579D01*
X101743917Y-61874400D01*
X101727487Y-62041221D01*
X101727486Y-62041224D01*
X101727486Y-62041225D01*
X101689370Y-62166878D01*
X101678823Y-62201644D01*
X101599805Y-62349478D01*
X101493459Y-62479059D01*
X101363878Y-62585405D01*
X101216044Y-62664423D01*
X101216041Y-62664424D01*
X101216039Y-62664425D01*
X101055625Y-62713086D01*
X101055624Y-62713086D01*
X101055621Y-62713087D01*
X100930604Y-62725400D01*
X100846996Y-62725400D01*
X100721979Y-62713087D01*
X100721976Y-62713086D01*
X100721975Y-62713086D01*
X100561561Y-62664425D01*
X100561559Y-62664424D01*
X100561556Y-62664423D01*
X100413722Y-62585405D01*
X100284141Y-62479059D01*
X100177795Y-62349478D01*
X100098777Y-62201644D01*
X100088231Y-62166878D01*
X100050114Y-62041225D01*
X100050114Y-62041224D01*
X100050113Y-62041221D01*
X100033683Y-61874400D01*
X100050113Y-61707579D01*
X100064260Y-61660942D01*
X100098775Y-61547161D01*
X100098776Y-61547159D01*
X100098777Y-61547156D01*
X100177795Y-61399322D01*
X100284141Y-61269741D01*
X100413722Y-61163395D01*
X100561556Y-61084377D01*
X100561559Y-61084376D01*
X100561561Y-61084375D01*
X100721975Y-61035714D01*
X100721976Y-61035714D01*
X100721979Y-61035713D01*
X100846996Y-61023400D01*
X100930604Y-61023400D01*
X101055621Y-61035713D01*
X101055621Y-61035713D01*
G37*
G36*
X95766590Y-62490878D02*
X94114590Y-62490878D01*
X94114590Y-61788878D01*
X95766590Y-61788878D01*
X95766590Y-62490878D01*
X95766590Y-62490878D01*
G37*
G36*
X90366590Y-62490878D02*
X88714590Y-62490878D01*
X88714590Y-61788878D01*
X90366590Y-61788878D01*
X90366590Y-62490878D01*
X90366590Y-62490878D01*
G37*
G36*
X172603117Y-59104614D02*
X172703000Y-59124482D01*
X172985264Y-59241399D01*
X173239295Y-59411137D01*
X173455331Y-59627173D01*
X173625069Y-59881204D01*
X173741986Y-60163468D01*
X173761854Y-60263351D01*
X173799419Y-60452200D01*
X173801590Y-60463118D01*
X173801590Y-60768638D01*
X173741986Y-61068288D01*
X173625069Y-61350552D01*
X173455331Y-61604583D01*
X173239295Y-61820619D01*
X172985264Y-61990357D01*
X172703000Y-62107274D01*
X172603117Y-62127142D01*
X172403352Y-62166878D01*
X172097828Y-62166878D01*
X171898063Y-62127142D01*
X171798180Y-62107274D01*
X171515916Y-61990357D01*
X171261885Y-61820619D01*
X171045849Y-61604583D01*
X170876111Y-61350552D01*
X170759194Y-61068288D01*
X170699590Y-60768638D01*
X170699590Y-60463118D01*
X170701762Y-60452200D01*
X170739326Y-60263351D01*
X170759194Y-60163468D01*
X170876111Y-59881204D01*
X171045849Y-59627173D01*
X171261885Y-59411137D01*
X171515916Y-59241399D01*
X171798180Y-59124482D01*
X171898063Y-59104614D01*
X172097828Y-59064878D01*
X172403352Y-59064878D01*
X172603117Y-59104614D01*
X172603117Y-59104614D01*
G37*
G36*
X113664590Y-61381878D02*
X111662590Y-61381878D01*
X111662590Y-60479878D01*
X113664590Y-60479878D01*
X113664590Y-61381878D01*
X113664590Y-61381878D01*
G37*
G36*
X95766590Y-61220878D02*
X94114590Y-61220878D01*
X94114590Y-60518878D01*
X95766590Y-60518878D01*
X95766590Y-61220878D01*
X95766590Y-61220878D01*
G37*
G36*
X90366590Y-61220878D02*
X88714590Y-61220878D01*
X88714590Y-60518878D01*
X90366590Y-60518878D01*
X90366590Y-61220878D01*
X90366590Y-61220878D01*
G37*
G36*
X136254142Y-59111442D02*
X136402102Y-59172730D01*
X136430320Y-59191585D01*
X136535257Y-59261701D01*
X136648499Y-59374943D01*
X136670330Y-59407616D01*
X136737470Y-59508098D01*
X136798758Y-59656058D01*
X136830000Y-59813125D01*
X136830000Y-59973275D01*
X136798758Y-60130342D01*
X136737470Y-60278302D01*
X136648498Y-60411458D01*
X136535258Y-60524698D01*
X136402102Y-60613670D01*
X136254142Y-60674958D01*
X136097075Y-60706200D01*
X135936925Y-60706200D01*
X135779858Y-60674958D01*
X135631898Y-60613670D01*
X135498742Y-60524698D01*
X135385502Y-60411458D01*
X135296530Y-60278302D01*
X135235242Y-60130342D01*
X135204000Y-59973275D01*
X135204000Y-59813125D01*
X135235242Y-59656058D01*
X135296530Y-59508098D01*
X135363670Y-59407616D01*
X135385501Y-59374943D01*
X135498743Y-59261701D01*
X135603680Y-59191585D01*
X135631898Y-59172730D01*
X135779858Y-59111442D01*
X135936925Y-59080200D01*
X136097075Y-59080200D01*
X136254142Y-59111442D01*
X136254142Y-59111442D01*
G37*
G36*
X161908142Y-58857442D02*
X162056102Y-58918730D01*
X162084268Y-58937550D01*
X162189257Y-59007701D01*
X162302499Y-59120943D01*
X162333657Y-59167575D01*
X162391470Y-59254098D01*
X162452758Y-59402058D01*
X162484000Y-59559125D01*
X162484000Y-59719275D01*
X162452758Y-59876342D01*
X162391470Y-60024302D01*
X162378240Y-60044102D01*
X162320617Y-60130342D01*
X162302498Y-60157458D01*
X162189258Y-60270698D01*
X162056102Y-60359670D01*
X161908142Y-60420958D01*
X161751075Y-60452200D01*
X161590925Y-60452200D01*
X161433858Y-60420958D01*
X161285898Y-60359670D01*
X161152742Y-60270698D01*
X161039502Y-60157458D01*
X161021384Y-60130342D01*
X160950530Y-60024302D01*
X160889242Y-59876342D01*
X160858000Y-59719275D01*
X160858000Y-59559125D01*
X160889242Y-59402058D01*
X160950530Y-59254098D01*
X161008343Y-59167575D01*
X161039501Y-59120943D01*
X161152743Y-59007701D01*
X161257732Y-58937550D01*
X161285898Y-58918730D01*
X161433858Y-58857442D01*
X161590925Y-58826200D01*
X161751075Y-58826200D01*
X161908142Y-58857442D01*
X161908142Y-58857442D01*
G37*
G36*
X110664590Y-60431878D02*
X108662590Y-60431878D01*
X108662590Y-59529878D01*
X110664590Y-59529878D01*
X110664590Y-60431878D01*
X110664590Y-60431878D01*
G37*
G36*
X101055621Y-58495713D02*
X101055624Y-58495714D01*
X101055625Y-58495714D01*
X101216039Y-58544375D01*
X101216041Y-58544376D01*
X101216044Y-58544377D01*
X101363878Y-58623395D01*
X101493459Y-58729741D01*
X101599805Y-58859322D01*
X101678823Y-59007156D01*
X101678824Y-59007159D01*
X101678825Y-59007161D01*
X101713340Y-59120942D01*
X101727487Y-59167579D01*
X101743917Y-59334400D01*
X101727487Y-59501221D01*
X101727486Y-59501224D01*
X101727486Y-59501225D01*
X101689281Y-59627171D01*
X101678823Y-59661644D01*
X101599805Y-59809478D01*
X101493459Y-59939059D01*
X101363878Y-60045405D01*
X101216044Y-60124423D01*
X101216041Y-60124424D01*
X101216039Y-60124425D01*
X101055625Y-60173086D01*
X101055624Y-60173086D01*
X101055621Y-60173087D01*
X100930604Y-60185400D01*
X100846996Y-60185400D01*
X100721979Y-60173087D01*
X100721976Y-60173086D01*
X100721975Y-60173086D01*
X100561561Y-60124425D01*
X100561559Y-60124424D01*
X100561556Y-60124423D01*
X100413722Y-60045405D01*
X100284141Y-59939059D01*
X100177795Y-59809478D01*
X100098777Y-59661644D01*
X100088320Y-59627171D01*
X100050114Y-59501225D01*
X100050114Y-59501224D01*
X100050113Y-59501221D01*
X100033683Y-59334400D01*
X100050113Y-59167579D01*
X100064260Y-59120942D01*
X100098775Y-59007161D01*
X100098776Y-59007159D01*
X100098777Y-59007156D01*
X100177795Y-58859322D01*
X100284141Y-58729741D01*
X100413722Y-58623395D01*
X100561556Y-58544377D01*
X100561559Y-58544376D01*
X100561561Y-58544375D01*
X100721975Y-58495714D01*
X100721976Y-58495714D01*
X100721979Y-58495713D01*
X100846996Y-58483400D01*
X100930604Y-58483400D01*
X101055621Y-58495713D01*
X101055621Y-58495713D01*
G37*
G36*
X104772477Y-58562465D02*
X104810164Y-58573898D01*
X104844903Y-58592466D01*
X104875348Y-58617452D01*
X104900334Y-58647897D01*
X104918902Y-58682636D01*
X104930335Y-58720323D01*
X104934800Y-58765661D01*
X104934800Y-59852339D01*
X104930335Y-59897677D01*
X104918902Y-59935364D01*
X104900334Y-59970103D01*
X104875348Y-60000548D01*
X104844903Y-60025534D01*
X104810164Y-60044102D01*
X104772477Y-60055535D01*
X104727139Y-60060000D01*
X103890461Y-60060000D01*
X103845123Y-60055535D01*
X103807436Y-60044102D01*
X103772697Y-60025534D01*
X103742252Y-60000548D01*
X103717266Y-59970103D01*
X103698698Y-59935364D01*
X103687265Y-59897677D01*
X103682800Y-59852339D01*
X103682800Y-58765661D01*
X103687265Y-58720323D01*
X103698698Y-58682636D01*
X103717266Y-58647897D01*
X103742252Y-58617452D01*
X103772697Y-58592466D01*
X103807436Y-58573898D01*
X103845123Y-58562465D01*
X103890461Y-58558000D01*
X104727139Y-58558000D01*
X104772477Y-58562465D01*
X104772477Y-58562465D01*
G37*
G36*
X106822477Y-58562465D02*
X106860164Y-58573898D01*
X106894903Y-58592466D01*
X106925348Y-58617452D01*
X106950334Y-58647897D01*
X106968902Y-58682636D01*
X106980335Y-58720323D01*
X106984800Y-58765661D01*
X106984800Y-59852339D01*
X106980335Y-59897677D01*
X106968902Y-59935364D01*
X106950334Y-59970103D01*
X106925348Y-60000548D01*
X106894903Y-60025534D01*
X106860164Y-60044102D01*
X106822477Y-60055535D01*
X106777139Y-60060000D01*
X105940461Y-60060000D01*
X105895123Y-60055535D01*
X105857436Y-60044102D01*
X105822697Y-60025534D01*
X105792252Y-60000548D01*
X105767266Y-59970103D01*
X105748698Y-59935364D01*
X105737265Y-59897677D01*
X105732800Y-59852339D01*
X105732800Y-58765661D01*
X105737265Y-58720323D01*
X105748698Y-58682636D01*
X105767266Y-58647897D01*
X105792252Y-58617452D01*
X105822697Y-58592466D01*
X105857436Y-58573898D01*
X105895123Y-58562465D01*
X105940461Y-58558000D01*
X106777139Y-58558000D01*
X106822477Y-58562465D01*
X106822477Y-58562465D01*
G37*
G36*
X95766590Y-59950878D02*
X94114590Y-59950878D01*
X94114590Y-59248878D01*
X95766590Y-59248878D01*
X95766590Y-59950878D01*
X95766590Y-59950878D01*
G37*
G36*
X90366590Y-59950878D02*
X88714590Y-59950878D01*
X88714590Y-59248878D01*
X90366590Y-59248878D01*
X90366590Y-59950878D01*
X90366590Y-59950878D01*
G37*
G36*
X83830117Y-56691614D02*
X83930000Y-56711482D01*
X84212264Y-56828399D01*
X84466295Y-56998137D01*
X84682331Y-57214173D01*
X84852069Y-57468204D01*
X84968986Y-57750468D01*
X84968986Y-57750469D01*
X85028590Y-58050116D01*
X85028590Y-58355640D01*
X85000727Y-58495714D01*
X84968986Y-58655288D01*
X84852069Y-58937552D01*
X84682331Y-59191583D01*
X84466295Y-59407619D01*
X84212264Y-59577357D01*
X83930000Y-59694274D01*
X83830117Y-59714142D01*
X83630352Y-59753878D01*
X83324828Y-59753878D01*
X83125063Y-59714142D01*
X83025180Y-59694274D01*
X82742916Y-59577357D01*
X82488885Y-59407619D01*
X82272849Y-59191583D01*
X82103111Y-58937552D01*
X81986194Y-58655288D01*
X81954453Y-58495714D01*
X81926590Y-58355640D01*
X81926590Y-58050116D01*
X81986194Y-57750469D01*
X81986194Y-57750468D01*
X82103111Y-57468204D01*
X82272849Y-57214173D01*
X82488885Y-56998137D01*
X82742916Y-56828399D01*
X83025180Y-56711482D01*
X83125063Y-56691614D01*
X83324828Y-56651878D01*
X83630352Y-56651878D01*
X83830117Y-56691614D01*
X83830117Y-56691614D01*
G37*
G36*
X113664590Y-59481878D02*
X111662590Y-59481878D01*
X111662590Y-58579878D01*
X113664590Y-58579878D01*
X113664590Y-59481878D01*
X113664590Y-59481878D01*
G37*
G36*
X136254142Y-56571442D02*
X136402102Y-56632730D01*
X136430759Y-56651878D01*
X136535257Y-56721701D01*
X136648499Y-56834943D01*
X136692683Y-56901070D01*
X136737470Y-56968098D01*
X136798758Y-57116058D01*
X136830000Y-57273125D01*
X136830000Y-57433275D01*
X136798758Y-57590342D01*
X136737470Y-57738302D01*
X136648498Y-57871458D01*
X136535258Y-57984698D01*
X136402102Y-58073670D01*
X136254142Y-58134958D01*
X136097075Y-58166200D01*
X135936925Y-58166200D01*
X135779858Y-58134958D01*
X135631898Y-58073670D01*
X135498742Y-57984698D01*
X135385502Y-57871458D01*
X135296530Y-57738302D01*
X135235242Y-57590342D01*
X135204000Y-57433275D01*
X135204000Y-57273125D01*
X135235242Y-57116058D01*
X135296530Y-56968098D01*
X135341317Y-56901070D01*
X135385501Y-56834943D01*
X135498743Y-56721701D01*
X135603241Y-56651878D01*
X135631898Y-56632730D01*
X135779858Y-56571442D01*
X135936925Y-56540200D01*
X136097075Y-56540200D01*
X136254142Y-56571442D01*
X136254142Y-56571442D01*
G37*
G36*
X161908142Y-56317442D02*
X162056102Y-56378730D01*
X162123130Y-56423517D01*
X162188449Y-56467161D01*
X162189258Y-56467702D01*
X162302498Y-56580942D01*
X162391470Y-56714098D01*
X162452758Y-56862058D01*
X162484000Y-57019125D01*
X162484000Y-57179275D01*
X162452758Y-57336342D01*
X162430746Y-57389482D01*
X162391471Y-57484300D01*
X162320617Y-57590342D01*
X162302498Y-57617458D01*
X162189258Y-57730698D01*
X162056102Y-57819670D01*
X161908142Y-57880958D01*
X161751075Y-57912200D01*
X161590925Y-57912200D01*
X161433858Y-57880958D01*
X161285898Y-57819670D01*
X161152742Y-57730698D01*
X161039502Y-57617458D01*
X161021384Y-57590342D01*
X160950529Y-57484300D01*
X160911254Y-57389482D01*
X160889242Y-57336342D01*
X160858000Y-57179275D01*
X160858000Y-57019125D01*
X160889242Y-56862058D01*
X160950530Y-56714098D01*
X161039502Y-56580942D01*
X161152742Y-56467702D01*
X161153552Y-56467161D01*
X161218870Y-56423517D01*
X161285898Y-56378730D01*
X161433858Y-56317442D01*
X161590925Y-56286200D01*
X161751075Y-56286200D01*
X161908142Y-56317442D01*
X161908142Y-56317442D01*
G37*
G36*
X101055621Y-55955713D02*
X101055624Y-55955714D01*
X101055625Y-55955714D01*
X101216039Y-56004375D01*
X101216041Y-56004376D01*
X101216044Y-56004377D01*
X101363878Y-56083395D01*
X101493459Y-56189741D01*
X101599805Y-56319322D01*
X101678823Y-56467156D01*
X101678824Y-56467159D01*
X101678825Y-56467161D01*
X101713340Y-56580942D01*
X101727487Y-56627579D01*
X101743917Y-56794400D01*
X101727487Y-56961221D01*
X101727486Y-56961224D01*
X101727486Y-56961225D01*
X101689370Y-57086878D01*
X101678823Y-57121644D01*
X101599805Y-57269478D01*
X101493459Y-57399059D01*
X101363878Y-57505405D01*
X101216044Y-57584423D01*
X101216041Y-57584424D01*
X101216039Y-57584425D01*
X101055625Y-57633086D01*
X101055624Y-57633086D01*
X101055621Y-57633087D01*
X100930604Y-57645400D01*
X100846996Y-57645400D01*
X100721979Y-57633087D01*
X100721976Y-57633086D01*
X100721975Y-57633086D01*
X100561561Y-57584425D01*
X100561559Y-57584424D01*
X100561556Y-57584423D01*
X100413722Y-57505405D01*
X100284141Y-57399059D01*
X100177795Y-57269478D01*
X100098777Y-57121644D01*
X100088231Y-57086878D01*
X100050114Y-56961225D01*
X100050114Y-56961224D01*
X100050113Y-56961221D01*
X100033683Y-56794400D01*
X100050113Y-56627579D01*
X100064260Y-56580942D01*
X100098775Y-56467161D01*
X100098776Y-56467159D01*
X100098777Y-56467156D01*
X100177795Y-56319322D01*
X100284141Y-56189741D01*
X100413722Y-56083395D01*
X100561556Y-56004377D01*
X100561559Y-56004376D01*
X100561561Y-56004375D01*
X100721975Y-55955714D01*
X100721976Y-55955714D01*
X100721979Y-55955713D01*
X100846996Y-55943400D01*
X100930604Y-55943400D01*
X101055621Y-55955713D01*
X101055621Y-55955713D01*
G37*
G36*
X113664590Y-57571878D02*
X111662590Y-57571878D01*
X111662590Y-56669878D01*
X113664590Y-56669878D01*
X113664590Y-57571878D01*
X113664590Y-57571878D01*
G37*
G36*
X104772477Y-55971665D02*
X104810164Y-55983098D01*
X104844903Y-56001666D01*
X104875348Y-56026652D01*
X104900334Y-56057097D01*
X104918902Y-56091836D01*
X104930335Y-56129523D01*
X104934800Y-56174861D01*
X104934800Y-57261539D01*
X104930335Y-57306877D01*
X104918902Y-57344564D01*
X104900334Y-57379303D01*
X104875348Y-57409748D01*
X104844903Y-57434734D01*
X104810164Y-57453302D01*
X104772477Y-57464735D01*
X104727139Y-57469200D01*
X103890461Y-57469200D01*
X103845123Y-57464735D01*
X103807436Y-57453302D01*
X103772697Y-57434734D01*
X103742252Y-57409748D01*
X103717266Y-57379303D01*
X103698698Y-57344564D01*
X103687265Y-57306877D01*
X103682800Y-57261539D01*
X103682800Y-56174861D01*
X103687265Y-56129523D01*
X103698698Y-56091836D01*
X103717266Y-56057097D01*
X103742252Y-56026652D01*
X103772697Y-56001666D01*
X103807436Y-55983098D01*
X103845123Y-55971665D01*
X103890461Y-55967200D01*
X104727139Y-55967200D01*
X104772477Y-55971665D01*
X104772477Y-55971665D01*
G37*
G36*
X106822477Y-55971665D02*
X106860164Y-55983098D01*
X106894903Y-56001666D01*
X106925348Y-56026652D01*
X106950334Y-56057097D01*
X106968902Y-56091836D01*
X106980335Y-56129523D01*
X106984800Y-56174861D01*
X106984800Y-57261539D01*
X106980335Y-57306877D01*
X106968902Y-57344564D01*
X106950334Y-57379303D01*
X106925348Y-57409748D01*
X106894903Y-57434734D01*
X106860164Y-57453302D01*
X106822477Y-57464735D01*
X106777139Y-57469200D01*
X105940461Y-57469200D01*
X105895123Y-57464735D01*
X105857436Y-57453302D01*
X105822697Y-57434734D01*
X105792252Y-57409748D01*
X105767266Y-57379303D01*
X105748698Y-57344564D01*
X105737265Y-57306877D01*
X105732800Y-57261539D01*
X105732800Y-56174861D01*
X105737265Y-56129523D01*
X105748698Y-56091836D01*
X105767266Y-56057097D01*
X105792252Y-56026652D01*
X105822697Y-56001666D01*
X105857436Y-55983098D01*
X105895123Y-55971665D01*
X105940461Y-55967200D01*
X106777139Y-55967200D01*
X106822477Y-55971665D01*
X106822477Y-55971665D01*
G37*
G36*
X172603117Y-54024614D02*
X172703000Y-54044482D01*
X172985264Y-54161399D01*
X173239295Y-54331137D01*
X173455331Y-54547173D01*
X173625069Y-54801204D01*
X173741986Y-55083468D01*
X173761854Y-55183351D01*
X173799419Y-55372200D01*
X173801590Y-55383118D01*
X173801590Y-55688638D01*
X173741986Y-55988288D01*
X173625069Y-56270552D01*
X173455331Y-56524583D01*
X173239295Y-56740619D01*
X172985264Y-56910357D01*
X172703000Y-57027274D01*
X172603117Y-57047142D01*
X172403352Y-57086878D01*
X172097828Y-57086878D01*
X171898063Y-57047142D01*
X171798180Y-57027274D01*
X171515916Y-56910357D01*
X171261885Y-56740619D01*
X171045849Y-56524583D01*
X170876111Y-56270552D01*
X170759194Y-55988288D01*
X170699590Y-55688638D01*
X170699590Y-55383118D01*
X170701762Y-55372200D01*
X170739326Y-55183351D01*
X170759194Y-55083468D01*
X170876111Y-54801204D01*
X171045849Y-54547173D01*
X171261885Y-54331137D01*
X171515916Y-54161399D01*
X171798180Y-54044482D01*
X171898063Y-54024614D01*
X172097828Y-53984878D01*
X172403352Y-53984878D01*
X172603117Y-54024614D01*
X172603117Y-54024614D01*
G37*
G36*
X110664590Y-56621878D02*
X108662590Y-56621878D01*
X108662590Y-55719878D01*
X110664590Y-55719878D01*
X110664590Y-56621878D01*
X110664590Y-56621878D01*
G37*
G36*
X113664590Y-55671878D02*
X111662590Y-55671878D01*
X111662590Y-54769878D01*
X113664590Y-54769878D01*
X113664590Y-55671878D01*
X113664590Y-55671878D01*
G37*
G36*
X136254142Y-54031442D02*
X136402102Y-54092730D01*
X136430320Y-54111585D01*
X136535257Y-54181701D01*
X136648499Y-54294943D01*
X136670330Y-54327616D01*
X136737470Y-54428098D01*
X136798758Y-54576058D01*
X136830000Y-54733125D01*
X136830000Y-54893275D01*
X136798758Y-55050342D01*
X136737470Y-55198302D01*
X136648498Y-55331458D01*
X136535258Y-55444698D01*
X136402102Y-55533670D01*
X136254142Y-55594958D01*
X136097075Y-55626200D01*
X135936925Y-55626200D01*
X135779858Y-55594958D01*
X135631898Y-55533670D01*
X135498742Y-55444698D01*
X135385502Y-55331458D01*
X135296530Y-55198302D01*
X135235242Y-55050342D01*
X135204000Y-54893275D01*
X135204000Y-54733125D01*
X135235242Y-54576058D01*
X135296530Y-54428098D01*
X135363670Y-54327616D01*
X135385501Y-54294943D01*
X135498743Y-54181701D01*
X135603680Y-54111585D01*
X135631898Y-54092730D01*
X135779858Y-54031442D01*
X135936925Y-54000200D01*
X136097075Y-54000200D01*
X136254142Y-54031442D01*
X136254142Y-54031442D01*
G37*
G36*
X161908142Y-53777442D02*
X162056102Y-53838730D01*
X162084268Y-53857550D01*
X162189257Y-53927701D01*
X162302499Y-54040943D01*
X162337101Y-54092729D01*
X162391470Y-54174098D01*
X162452758Y-54322058D01*
X162484000Y-54479125D01*
X162484000Y-54639275D01*
X162452758Y-54796342D01*
X162450744Y-54801204D01*
X162391471Y-54944300D01*
X162320617Y-55050342D01*
X162302498Y-55077458D01*
X162189258Y-55190698D01*
X162056102Y-55279670D01*
X161908142Y-55340958D01*
X161751075Y-55372200D01*
X161590925Y-55372200D01*
X161433858Y-55340958D01*
X161285898Y-55279670D01*
X161152742Y-55190698D01*
X161039502Y-55077458D01*
X161021384Y-55050342D01*
X160950529Y-54944300D01*
X160891256Y-54801204D01*
X160889242Y-54796342D01*
X160858000Y-54639275D01*
X160858000Y-54479125D01*
X160889242Y-54322058D01*
X160950530Y-54174098D01*
X161004899Y-54092729D01*
X161039501Y-54040943D01*
X161152743Y-53927701D01*
X161257732Y-53857550D01*
X161285898Y-53838730D01*
X161433858Y-53777442D01*
X161590925Y-53746200D01*
X161751075Y-53746200D01*
X161908142Y-53777442D01*
X161908142Y-53777442D01*
G37*
G36*
X101739800Y-55105400D02*
X100037800Y-55105400D01*
X100037800Y-53403400D01*
X101739800Y-53403400D01*
X101739800Y-55105400D01*
X101739800Y-55105400D01*
G37*
G36*
X83830117Y-51611614D02*
X83930000Y-51631482D01*
X84212264Y-51748399D01*
X84466295Y-51918137D01*
X84682331Y-52134173D01*
X84852069Y-52388204D01*
X84960797Y-52650698D01*
X84968986Y-52670469D01*
X85028590Y-52970116D01*
X85028590Y-53275640D01*
X85010170Y-53368242D01*
X84968986Y-53575288D01*
X84852069Y-53857552D01*
X84682331Y-54111583D01*
X84466295Y-54327619D01*
X84212264Y-54497357D01*
X83930000Y-54614274D01*
X83830117Y-54634142D01*
X83630352Y-54673878D01*
X83324828Y-54673878D01*
X83125063Y-54634142D01*
X83025180Y-54614274D01*
X82742916Y-54497357D01*
X82488885Y-54327619D01*
X82272849Y-54111583D01*
X82103111Y-53857552D01*
X81986194Y-53575288D01*
X81945010Y-53368242D01*
X81926590Y-53275640D01*
X81926590Y-52970116D01*
X81986194Y-52670469D01*
X81994383Y-52650698D01*
X82103111Y-52388204D01*
X82272849Y-52134173D01*
X82488885Y-51918137D01*
X82742916Y-51748399D01*
X83025180Y-51631482D01*
X83125063Y-51611614D01*
X83324828Y-51571878D01*
X83630352Y-51571878D01*
X83830117Y-51611614D01*
X83830117Y-51611614D01*
G37*
G36*
X113688590Y-53568878D02*
X111686590Y-53568878D01*
X111686590Y-52666878D01*
X113688590Y-52666878D01*
X113688590Y-53568878D01*
X113688590Y-53568878D01*
G37*
G36*
X132591267Y-51995343D02*
X132628954Y-52006776D01*
X132663693Y-52025344D01*
X132694138Y-52050330D01*
X132719124Y-52080775D01*
X132737692Y-52115514D01*
X132749125Y-52153201D01*
X132753590Y-52198539D01*
X132753590Y-53285217D01*
X132749125Y-53330555D01*
X132737692Y-53368242D01*
X132719124Y-53402981D01*
X132694138Y-53433426D01*
X132663693Y-53458412D01*
X132628954Y-53476980D01*
X132591267Y-53488413D01*
X132545929Y-53492878D01*
X131709251Y-53492878D01*
X131663913Y-53488413D01*
X131626226Y-53476980D01*
X131591487Y-53458412D01*
X131561042Y-53433426D01*
X131536056Y-53402981D01*
X131517488Y-53368242D01*
X131506055Y-53330555D01*
X131501590Y-53285217D01*
X131501590Y-52198539D01*
X131506055Y-52153201D01*
X131517488Y-52115514D01*
X131536056Y-52080775D01*
X131561042Y-52050330D01*
X131591487Y-52025344D01*
X131626226Y-52006776D01*
X131663913Y-51995343D01*
X131709251Y-51990878D01*
X132545929Y-51990878D01*
X132591267Y-51995343D01*
X132591267Y-51995343D01*
G37*
G36*
X130541267Y-51995343D02*
X130578954Y-52006776D01*
X130613693Y-52025344D01*
X130644138Y-52050330D01*
X130669124Y-52080775D01*
X130687692Y-52115514D01*
X130699125Y-52153201D01*
X130703590Y-52198539D01*
X130703590Y-53285217D01*
X130699125Y-53330555D01*
X130687692Y-53368242D01*
X130669124Y-53402981D01*
X130644138Y-53433426D01*
X130613693Y-53458412D01*
X130578954Y-53476980D01*
X130541267Y-53488413D01*
X130495929Y-53492878D01*
X129659251Y-53492878D01*
X129613913Y-53488413D01*
X129576226Y-53476980D01*
X129541487Y-53458412D01*
X129511042Y-53433426D01*
X129486056Y-53402981D01*
X129467488Y-53368242D01*
X129456055Y-53330555D01*
X129451590Y-53285217D01*
X129451590Y-52198539D01*
X129456055Y-52153201D01*
X129467488Y-52115514D01*
X129486056Y-52080775D01*
X129511042Y-52050330D01*
X129541487Y-52025344D01*
X129576226Y-52006776D01*
X129613913Y-51995343D01*
X129659251Y-51990878D01*
X130495929Y-51990878D01*
X130541267Y-51995343D01*
X130541267Y-51995343D01*
G37*
G36*
X95893590Y-52838878D02*
X94241590Y-52838878D01*
X94241590Y-52136878D01*
X95893590Y-52136878D01*
X95893590Y-52838878D01*
X95893590Y-52838878D01*
G37*
G36*
X90493590Y-52838878D02*
X88841590Y-52838878D01*
X88841590Y-52136878D01*
X90493590Y-52136878D01*
X90493590Y-52838878D01*
X90493590Y-52838878D01*
G37*
G36*
X161908142Y-51237442D02*
X162056102Y-51298730D01*
X162189258Y-51387702D01*
X162302498Y-51500942D01*
X162391470Y-51634098D01*
X162452758Y-51782058D01*
X162484000Y-51939125D01*
X162484000Y-52099275D01*
X162452758Y-52256342D01*
X162391470Y-52404302D01*
X162302498Y-52537458D01*
X162189258Y-52650698D01*
X162056102Y-52739670D01*
X161908142Y-52800958D01*
X161751075Y-52832200D01*
X161590925Y-52832200D01*
X161433858Y-52800958D01*
X161285898Y-52739670D01*
X161152742Y-52650698D01*
X161039502Y-52537458D01*
X160950530Y-52404302D01*
X160889242Y-52256342D01*
X160858000Y-52099275D01*
X160858000Y-51939125D01*
X160889242Y-51782058D01*
X160950530Y-51634098D01*
X161039502Y-51500942D01*
X161152742Y-51387702D01*
X161285898Y-51298730D01*
X161433858Y-51237442D01*
X161590925Y-51206200D01*
X161751075Y-51206200D01*
X161908142Y-51237442D01*
X161908142Y-51237442D01*
G37*
G36*
X110688590Y-52618878D02*
X108686590Y-52618878D01*
X108686590Y-51716878D01*
X110688590Y-51716878D01*
X110688590Y-52618878D01*
X110688590Y-52618878D01*
G37*
G36*
X172603117Y-48944614D02*
X172703000Y-48964482D01*
X172985264Y-49081399D01*
X173239295Y-49251137D01*
X173455331Y-49467173D01*
X173625069Y-49721204D01*
X173741986Y-50003468D01*
X173801590Y-50303118D01*
X173801590Y-50608638D01*
X173741986Y-50908288D01*
X173625069Y-51190552D01*
X173455331Y-51444583D01*
X173239295Y-51660619D01*
X172985264Y-51830357D01*
X172703000Y-51947274D01*
X172603117Y-51967142D01*
X172403352Y-52006878D01*
X172097828Y-52006878D01*
X171898063Y-51967142D01*
X171798180Y-51947274D01*
X171515916Y-51830357D01*
X171261885Y-51660619D01*
X171045849Y-51444583D01*
X170876111Y-51190552D01*
X170759194Y-50908288D01*
X170699590Y-50608638D01*
X170699590Y-50303118D01*
X170759194Y-50003468D01*
X170876111Y-49721204D01*
X171045849Y-49467173D01*
X171261885Y-49251137D01*
X171515916Y-49081399D01*
X171798180Y-48964482D01*
X171898063Y-48944614D01*
X172097828Y-48904878D01*
X172403352Y-48904878D01*
X172603117Y-48944614D01*
X172603117Y-48944614D01*
G37*
G36*
X113688590Y-51668878D02*
X111686590Y-51668878D01*
X111686590Y-50766878D01*
X113688590Y-50766878D01*
X113688590Y-51668878D01*
X113688590Y-51668878D01*
G37*
G36*
X95893590Y-51568878D02*
X94241590Y-51568878D01*
X94241590Y-50866878D01*
X95893590Y-50866878D01*
X95893590Y-51568878D01*
X95893590Y-51568878D01*
G37*
G36*
X90493590Y-51568878D02*
X88841590Y-51568878D01*
X88841590Y-50866878D01*
X90493590Y-50866878D01*
X90493590Y-51568878D01*
X90493590Y-51568878D01*
G37*
G36*
X95893590Y-50298878D02*
X94241590Y-50298878D01*
X94241590Y-49596878D01*
X95893590Y-49596878D01*
X95893590Y-50298878D01*
X95893590Y-50298878D01*
G37*
G36*
X90493590Y-50298878D02*
X88841590Y-50298878D01*
X88841590Y-49596878D01*
X90493590Y-49596878D01*
X90493590Y-50298878D01*
X90493590Y-50298878D01*
G37*
G36*
X83830117Y-46531614D02*
X83930000Y-46551482D01*
X84212264Y-46668399D01*
X84466295Y-46838137D01*
X84682331Y-47054173D01*
X84852069Y-47308204D01*
X84968986Y-47590468D01*
X85028590Y-47890118D01*
X85028590Y-48195638D01*
X84968986Y-48495288D01*
X84852069Y-48777552D01*
X84682331Y-49031583D01*
X84466295Y-49247619D01*
X84212264Y-49417357D01*
X83930000Y-49534274D01*
X83830117Y-49554142D01*
X83630352Y-49593878D01*
X83324828Y-49593878D01*
X83125063Y-49554142D01*
X83025180Y-49534274D01*
X82742916Y-49417357D01*
X82488885Y-49247619D01*
X82272849Y-49031583D01*
X82103111Y-48777552D01*
X81986194Y-48495288D01*
X81926590Y-48195638D01*
X81926590Y-47890118D01*
X81986194Y-47590468D01*
X82103111Y-47308204D01*
X82272849Y-47054173D01*
X82488885Y-46838137D01*
X82742916Y-46668399D01*
X83025180Y-46551482D01*
X83125063Y-46531614D01*
X83324828Y-46491878D01*
X83630352Y-46491878D01*
X83830117Y-46531614D01*
X83830117Y-46531614D01*
G37*
G36*
X95893590Y-49028878D02*
X94241590Y-49028878D01*
X94241590Y-48326878D01*
X95893590Y-48326878D01*
X95893590Y-49028878D01*
X95893590Y-49028878D01*
G37*
G36*
X90493590Y-49028878D02*
X88841590Y-49028878D01*
X88841590Y-48326878D01*
X90493590Y-48326878D01*
X90493590Y-49028878D01*
X90493590Y-49028878D01*
G37*
G36*
X131244577Y-45506865D02*
X131282264Y-45518298D01*
X131317003Y-45536866D01*
X131347448Y-45561852D01*
X131372434Y-45592297D01*
X131391002Y-45627036D01*
X131402435Y-45664723D01*
X131406900Y-45710061D01*
X131406900Y-46796739D01*
X131402435Y-46842077D01*
X131391002Y-46879764D01*
X131372434Y-46914503D01*
X131347448Y-46944948D01*
X131317003Y-46969934D01*
X131282264Y-46988502D01*
X131244577Y-46999935D01*
X131199239Y-47004400D01*
X130362561Y-47004400D01*
X130317223Y-46999935D01*
X130279536Y-46988502D01*
X130244797Y-46969934D01*
X130214352Y-46944948D01*
X130189366Y-46914503D01*
X130170798Y-46879764D01*
X130159365Y-46842077D01*
X130154900Y-46796739D01*
X130154900Y-45710061D01*
X130159365Y-45664723D01*
X130170798Y-45627036D01*
X130189366Y-45592297D01*
X130214352Y-45561852D01*
X130244797Y-45536866D01*
X130279536Y-45518298D01*
X130317223Y-45506865D01*
X130362561Y-45502400D01*
X131199239Y-45502400D01*
X131244577Y-45506865D01*
X131244577Y-45506865D01*
G37*
G36*
X129194577Y-45506865D02*
X129232264Y-45518298D01*
X129267003Y-45536866D01*
X129297448Y-45561852D01*
X129322434Y-45592297D01*
X129341002Y-45627036D01*
X129352435Y-45664723D01*
X129356900Y-45710061D01*
X129356900Y-46796739D01*
X129352435Y-46842077D01*
X129341002Y-46879764D01*
X129322434Y-46914503D01*
X129297448Y-46944948D01*
X129267003Y-46969934D01*
X129232264Y-46988502D01*
X129194577Y-46999935D01*
X129149239Y-47004400D01*
X128312561Y-47004400D01*
X128267223Y-46999935D01*
X128229536Y-46988502D01*
X128194797Y-46969934D01*
X128164352Y-46944948D01*
X128139366Y-46914503D01*
X128120798Y-46879764D01*
X128109365Y-46842077D01*
X128104900Y-46796739D01*
X128104900Y-45710061D01*
X128109365Y-45664723D01*
X128120798Y-45627036D01*
X128139366Y-45592297D01*
X128164352Y-45561852D01*
X128194797Y-45536866D01*
X128229536Y-45518298D01*
X128267223Y-45506865D01*
X128312561Y-45502400D01*
X129149239Y-45502400D01*
X129194577Y-45506865D01*
X129194577Y-45506865D01*
G37*
G36*
X127089000Y-42507000D02*
X125387000Y-42507000D01*
X125387000Y-40805000D01*
X127089000Y-40805000D01*
X127089000Y-42507000D01*
X127089000Y-42507000D01*
G37*
G36*
X137566228Y-40837703D02*
X137721100Y-40901853D01*
X137860481Y-40994985D01*
X137979015Y-41113519D01*
X138072147Y-41252900D01*
X138136297Y-41407772D01*
X138169000Y-41572184D01*
X138169000Y-41739816D01*
X138136297Y-41904228D01*
X138072147Y-42059100D01*
X137979015Y-42198481D01*
X137860481Y-42317015D01*
X137721100Y-42410147D01*
X137566228Y-42474297D01*
X137401816Y-42507000D01*
X137234184Y-42507000D01*
X137069772Y-42474297D01*
X136914900Y-42410147D01*
X136775519Y-42317015D01*
X136656985Y-42198481D01*
X136563853Y-42059100D01*
X136499703Y-41904228D01*
X136467000Y-41739816D01*
X136467000Y-41572184D01*
X136499703Y-41407772D01*
X136563853Y-41252900D01*
X136656985Y-41113519D01*
X136775519Y-40994985D01*
X136914900Y-40901853D01*
X137069772Y-40837703D01*
X137234184Y-40805000D01*
X137401816Y-40805000D01*
X137566228Y-40837703D01*
X137566228Y-40837703D01*
G37*
G36*
X134796228Y-40837703D02*
X134951100Y-40901853D01*
X135090481Y-40994985D01*
X135209015Y-41113519D01*
X135302147Y-41252900D01*
X135366297Y-41407772D01*
X135399000Y-41572184D01*
X135399000Y-41739816D01*
X135366297Y-41904228D01*
X135302147Y-42059100D01*
X135209015Y-42198481D01*
X135090481Y-42317015D01*
X134951100Y-42410147D01*
X134796228Y-42474297D01*
X134631816Y-42507000D01*
X134464184Y-42507000D01*
X134299772Y-42474297D01*
X134144900Y-42410147D01*
X134005519Y-42317015D01*
X133886985Y-42198481D01*
X133793853Y-42059100D01*
X133729703Y-41904228D01*
X133697000Y-41739816D01*
X133697000Y-41572184D01*
X133729703Y-41407772D01*
X133793853Y-41252900D01*
X133886985Y-41113519D01*
X134005519Y-40994985D01*
X134144900Y-40901853D01*
X134299772Y-40837703D01*
X134464184Y-40805000D01*
X134631816Y-40805000D01*
X134796228Y-40837703D01*
X134796228Y-40837703D01*
G37*
G36*
X129256228Y-40837703D02*
X129411100Y-40901853D01*
X129550481Y-40994985D01*
X129669015Y-41113519D01*
X129762147Y-41252900D01*
X129826297Y-41407772D01*
X129859000Y-41572184D01*
X129859000Y-41739816D01*
X129826297Y-41904228D01*
X129762147Y-42059100D01*
X129669015Y-42198481D01*
X129550481Y-42317015D01*
X129411100Y-42410147D01*
X129256228Y-42474297D01*
X129091816Y-42507000D01*
X128924184Y-42507000D01*
X128759772Y-42474297D01*
X128604900Y-42410147D01*
X128465519Y-42317015D01*
X128346985Y-42198481D01*
X128253853Y-42059100D01*
X128189703Y-41904228D01*
X128157000Y-41739816D01*
X128157000Y-41572184D01*
X128189703Y-41407772D01*
X128253853Y-41252900D01*
X128346985Y-41113519D01*
X128465519Y-40994985D01*
X128604900Y-40901853D01*
X128759772Y-40837703D01*
X128924184Y-40805000D01*
X129091816Y-40805000D01*
X129256228Y-40837703D01*
X129256228Y-40837703D01*
G37*
G36*
X132026228Y-40837703D02*
X132181100Y-40901853D01*
X132320481Y-40994985D01*
X132439015Y-41113519D01*
X132532147Y-41252900D01*
X132596297Y-41407772D01*
X132629000Y-41572184D01*
X132629000Y-41739816D01*
X132596297Y-41904228D01*
X132532147Y-42059100D01*
X132439015Y-42198481D01*
X132320481Y-42317015D01*
X132181100Y-42410147D01*
X132026228Y-42474297D01*
X131861816Y-42507000D01*
X131694184Y-42507000D01*
X131529772Y-42474297D01*
X131374900Y-42410147D01*
X131235519Y-42317015D01*
X131116985Y-42198481D01*
X131023853Y-42059100D01*
X130959703Y-41904228D01*
X130927000Y-41739816D01*
X130927000Y-41572184D01*
X130959703Y-41407772D01*
X131023853Y-41252900D01*
X131116985Y-41113519D01*
X131235519Y-40994985D01*
X131374900Y-40901853D01*
X131529772Y-40837703D01*
X131694184Y-40805000D01*
X131861816Y-40805000D01*
X132026228Y-40837703D01*
X132026228Y-40837703D01*
G37*
G36*
X170757846Y-39195176D02*
X170864169Y-39216325D01*
X171164632Y-39340781D01*
X171368520Y-39477015D01*
X171435044Y-39521465D01*
X171665003Y-39751424D01*
X171845688Y-40021838D01*
X171970143Y-40322300D01*
X172033590Y-40641267D01*
X172033590Y-40966489D01*
X171970143Y-41285456D01*
X171845688Y-41585918D01*
X171665003Y-41856332D01*
X171435044Y-42086291D01*
X171435041Y-42086293D01*
X171164632Y-42266975D01*
X171164631Y-42266976D01*
X171164630Y-42266976D01*
X171076627Y-42303428D01*
X170864169Y-42391431D01*
X170770082Y-42410146D01*
X170545201Y-42454878D01*
X170219979Y-42454878D01*
X169995098Y-42410146D01*
X169901011Y-42391431D01*
X169688553Y-42303428D01*
X169600550Y-42266976D01*
X169600549Y-42266976D01*
X169600548Y-42266975D01*
X169330139Y-42086293D01*
X169330136Y-42086291D01*
X169100177Y-41856332D01*
X168919492Y-41585918D01*
X168795037Y-41285456D01*
X168731590Y-40966489D01*
X168731590Y-40641267D01*
X168795037Y-40322300D01*
X168919492Y-40021838D01*
X169100177Y-39751424D01*
X169330136Y-39521465D01*
X169396660Y-39477015D01*
X169600548Y-39340781D01*
X169901011Y-39216325D01*
X170007334Y-39195176D01*
X170219979Y-39152878D01*
X170545201Y-39152878D01*
X170757846Y-39195176D01*
X170757846Y-39195176D01*
G37*
G36*
X85757846Y-39195176D02*
X85864169Y-39216325D01*
X86164632Y-39340781D01*
X86368520Y-39477015D01*
X86435044Y-39521465D01*
X86665003Y-39751424D01*
X86845688Y-40021838D01*
X86970143Y-40322300D01*
X87033590Y-40641267D01*
X87033590Y-40966489D01*
X86970143Y-41285456D01*
X86845688Y-41585918D01*
X86665003Y-41856332D01*
X86435044Y-42086291D01*
X86435041Y-42086293D01*
X86164632Y-42266975D01*
X86164631Y-42266976D01*
X86164630Y-42266976D01*
X86076627Y-42303428D01*
X85864169Y-42391431D01*
X85770082Y-42410146D01*
X85545201Y-42454878D01*
X85219979Y-42454878D01*
X84995098Y-42410146D01*
X84901011Y-42391431D01*
X84688553Y-42303428D01*
X84600550Y-42266976D01*
X84600549Y-42266976D01*
X84600548Y-42266975D01*
X84330139Y-42086293D01*
X84330136Y-42086291D01*
X84100177Y-41856332D01*
X83919492Y-41585918D01*
X83795037Y-41285456D01*
X83731590Y-40966489D01*
X83731590Y-40641267D01*
X83795037Y-40322300D01*
X83919492Y-40021838D01*
X84100177Y-39751424D01*
X84330136Y-39521465D01*
X84396660Y-39477015D01*
X84600548Y-39340781D01*
X84901011Y-39216325D01*
X85007334Y-39195176D01*
X85219979Y-39152878D01*
X85545201Y-39152878D01*
X85757846Y-39195176D01*
X85757846Y-39195176D01*
G37*
G36*
X119876252Y-38263818D02*
X119876254Y-38263819D01*
X119876255Y-38263819D01*
X120249513Y-38418427D01*
X120249514Y-38418428D01*
X120585439Y-38642886D01*
X120871114Y-38928561D01*
X120871116Y-38928564D01*
X121095573Y-39264487D01*
X121222181Y-39570147D01*
X121250182Y-39637748D01*
X121329000Y-40033993D01*
X121329000Y-40438007D01*
X121256001Y-40805000D01*
X121250181Y-40834255D01*
X121095573Y-41207513D01*
X121095572Y-41207514D01*
X120871114Y-41543439D01*
X120585439Y-41829114D01*
X120585436Y-41829116D01*
X120249513Y-42053573D01*
X119876255Y-42208181D01*
X119876254Y-42208181D01*
X119876252Y-42208182D01*
X119480007Y-42287000D01*
X119075993Y-42287000D01*
X118679748Y-42208182D01*
X118679746Y-42208181D01*
X118679745Y-42208181D01*
X118306487Y-42053573D01*
X117970564Y-41829116D01*
X117970561Y-41829114D01*
X117684886Y-41543439D01*
X117460428Y-41207514D01*
X117460427Y-41207513D01*
X117305819Y-40834255D01*
X117300000Y-40805000D01*
X117227000Y-40438007D01*
X117227000Y-40033993D01*
X117305818Y-39637748D01*
X117333819Y-39570147D01*
X117460427Y-39264487D01*
X117684884Y-38928564D01*
X117684886Y-38928561D01*
X117970561Y-38642886D01*
X118306486Y-38418428D01*
X118306487Y-38418427D01*
X118679745Y-38263819D01*
X118679746Y-38263819D01*
X118679748Y-38263818D01*
X119075993Y-38185000D01*
X119480007Y-38185000D01*
X119876252Y-38263818D01*
X119876252Y-38263818D01*
G37*
G36*
X144876252Y-38263818D02*
X144876254Y-38263819D01*
X144876255Y-38263819D01*
X145249513Y-38418427D01*
X145249514Y-38418428D01*
X145585439Y-38642886D01*
X145871114Y-38928561D01*
X145871116Y-38928564D01*
X146095573Y-39264487D01*
X146222181Y-39570147D01*
X146250182Y-39637748D01*
X146329000Y-40033993D01*
X146329000Y-40438007D01*
X146256001Y-40805000D01*
X146250181Y-40834255D01*
X146095573Y-41207513D01*
X146095572Y-41207514D01*
X145871114Y-41543439D01*
X145585439Y-41829114D01*
X145585436Y-41829116D01*
X145249513Y-42053573D01*
X144876255Y-42208181D01*
X144876254Y-42208181D01*
X144876252Y-42208182D01*
X144480007Y-42287000D01*
X144075993Y-42287000D01*
X143679748Y-42208182D01*
X143679746Y-42208181D01*
X143679745Y-42208181D01*
X143306487Y-42053573D01*
X142970564Y-41829116D01*
X142970561Y-41829114D01*
X142684886Y-41543439D01*
X142460428Y-41207514D01*
X142460427Y-41207513D01*
X142305819Y-40834255D01*
X142300000Y-40805000D01*
X142227000Y-40438007D01*
X142227000Y-40033993D01*
X142305818Y-39637748D01*
X142333819Y-39570147D01*
X142460427Y-39264487D01*
X142684884Y-38928564D01*
X142684886Y-38928561D01*
X142970561Y-38642886D01*
X143306486Y-38418428D01*
X143306487Y-38418427D01*
X143679745Y-38263819D01*
X143679746Y-38263819D01*
X143679748Y-38263818D01*
X144075993Y-38185000D01*
X144480007Y-38185000D01*
X144876252Y-38263818D01*
X144876252Y-38263818D01*
G37*
G36*
X136181228Y-37997703D02*
X136336100Y-38061853D01*
X136475481Y-38154985D01*
X136594015Y-38273519D01*
X136687147Y-38412900D01*
X136751297Y-38567772D01*
X136784000Y-38732184D01*
X136784000Y-38899816D01*
X136751297Y-39064228D01*
X136687147Y-39219100D01*
X136594015Y-39358481D01*
X136475481Y-39477015D01*
X136336100Y-39570147D01*
X136181228Y-39634297D01*
X136016816Y-39667000D01*
X135849184Y-39667000D01*
X135684772Y-39634297D01*
X135529900Y-39570147D01*
X135390519Y-39477015D01*
X135271985Y-39358481D01*
X135178853Y-39219100D01*
X135114703Y-39064228D01*
X135082000Y-38899816D01*
X135082000Y-38732184D01*
X135114703Y-38567772D01*
X135178853Y-38412900D01*
X135271985Y-38273519D01*
X135390519Y-38154985D01*
X135529900Y-38061853D01*
X135684772Y-37997703D01*
X135849184Y-37965000D01*
X136016816Y-37965000D01*
X136181228Y-37997703D01*
X136181228Y-37997703D01*
G37*
G36*
X133411228Y-37997703D02*
X133566100Y-38061853D01*
X133705481Y-38154985D01*
X133824015Y-38273519D01*
X133917147Y-38412900D01*
X133981297Y-38567772D01*
X134014000Y-38732184D01*
X134014000Y-38899816D01*
X133981297Y-39064228D01*
X133917147Y-39219100D01*
X133824015Y-39358481D01*
X133705481Y-39477015D01*
X133566100Y-39570147D01*
X133411228Y-39634297D01*
X133246816Y-39667000D01*
X133079184Y-39667000D01*
X132914772Y-39634297D01*
X132759900Y-39570147D01*
X132620519Y-39477015D01*
X132501985Y-39358481D01*
X132408853Y-39219100D01*
X132344703Y-39064228D01*
X132312000Y-38899816D01*
X132312000Y-38732184D01*
X132344703Y-38567772D01*
X132408853Y-38412900D01*
X132501985Y-38273519D01*
X132620519Y-38154985D01*
X132759900Y-38061853D01*
X132914772Y-37997703D01*
X133079184Y-37965000D01*
X133246816Y-37965000D01*
X133411228Y-37997703D01*
X133411228Y-37997703D01*
G37*
G36*
X130641228Y-37997703D02*
X130796100Y-38061853D01*
X130935481Y-38154985D01*
X131054015Y-38273519D01*
X131147147Y-38412900D01*
X131211297Y-38567772D01*
X131244000Y-38732184D01*
X131244000Y-38899816D01*
X131211297Y-39064228D01*
X131147147Y-39219100D01*
X131054015Y-39358481D01*
X130935481Y-39477015D01*
X130796100Y-39570147D01*
X130641228Y-39634297D01*
X130476816Y-39667000D01*
X130309184Y-39667000D01*
X130144772Y-39634297D01*
X129989900Y-39570147D01*
X129850519Y-39477015D01*
X129731985Y-39358481D01*
X129638853Y-39219100D01*
X129574703Y-39064228D01*
X129542000Y-38899816D01*
X129542000Y-38732184D01*
X129574703Y-38567772D01*
X129638853Y-38412900D01*
X129731985Y-38273519D01*
X129850519Y-38154985D01*
X129989900Y-38061853D01*
X130144772Y-37997703D01*
X130309184Y-37965000D01*
X130476816Y-37965000D01*
X130641228Y-37997703D01*
X130641228Y-37997703D01*
G37*
G36*
X127871228Y-37997703D02*
X128026100Y-38061853D01*
X128165481Y-38154985D01*
X128284015Y-38273519D01*
X128377147Y-38412900D01*
X128441297Y-38567772D01*
X128474000Y-38732184D01*
X128474000Y-38899816D01*
X128441297Y-39064228D01*
X128377147Y-39219100D01*
X128284015Y-39358481D01*
X128165481Y-39477015D01*
X128026100Y-39570147D01*
X127871228Y-39634297D01*
X127706816Y-39667000D01*
X127539184Y-39667000D01*
X127374772Y-39634297D01*
X127219900Y-39570147D01*
X127080519Y-39477015D01*
X126961985Y-39358481D01*
X126868853Y-39219100D01*
X126804703Y-39064228D01*
X126772000Y-38899816D01*
X126772000Y-38732184D01*
X126804703Y-38567772D01*
X126868853Y-38412900D01*
X126961985Y-38273519D01*
X127080519Y-38154985D01*
X127219900Y-38061853D01*
X127374772Y-37997703D01*
X127539184Y-37965000D01*
X127706816Y-37965000D01*
X127871228Y-37997703D01*
X127871228Y-37997703D01*
G37*
M02*
