G04 #@! TF.GenerationSoftware,KiCad,Pcbnew,(5.0.1)-3*
G04 #@! TF.CreationDate,2018-11-29T18:52:30+01:00*
G04 #@! TF.ProjectId,Board,426F6172642E6B696361645F70636200,rev?*
G04 #@! TF.SameCoordinates,Original*
G04 #@! TF.FileFunction,Legend,Bot*
G04 #@! TF.FilePolarity,Positive*
%FSLAX46Y46*%
G04 Gerber Fmt 4.6, Leading zero omitted, Abs format (unit mm)*
G04 Created by KiCad (PCBNEW (5.0.1)-3) date 11/29/18 18:52:30*
%MOMM*%
%LPD*%
G01*
G04 APERTURE LIST*
%ADD10C,0.120000*%
%ADD11C,0.150000*%
G04 APERTURE END LIST*
D10*
G04 #@! TO.C,Q3*
X110403590Y-57750878D02*
X111863590Y-57750878D01*
X110403590Y-54590878D02*
X113563590Y-54590878D01*
X110403590Y-54590878D02*
X110403590Y-55520878D01*
X110403590Y-57750878D02*
X110403590Y-56820878D01*
G04 #@! TO.C,Q2*
X110427590Y-53747878D02*
X110427590Y-52817878D01*
X110427590Y-50587878D02*
X110427590Y-51517878D01*
X110427590Y-50587878D02*
X113587590Y-50587878D01*
X110427590Y-53747878D02*
X111887590Y-53747878D01*
G04 #@! TO.C,Q5*
X110403590Y-61560878D02*
X111863590Y-61560878D01*
X110403590Y-58400878D02*
X113563590Y-58400878D01*
X110403590Y-58400878D02*
X110403590Y-59330878D01*
X110403590Y-61560878D02*
X110403590Y-60630878D01*
G04 #@! TO.C,Q6*
X110403590Y-65243878D02*
X110403590Y-64313878D01*
X110403590Y-62083878D02*
X110403590Y-63013878D01*
X110403590Y-62083878D02*
X113563590Y-62083878D01*
X110403590Y-65243878D02*
X111863590Y-65243878D01*
D11*
G04 #@! TO.C,Q4*
X94315590Y-58979878D02*
X95715590Y-58979878D01*
X94315590Y-64079878D02*
X90165590Y-64079878D01*
X94315590Y-58929878D02*
X90165590Y-58929878D01*
X94315590Y-64079878D02*
X94315590Y-63934878D01*
X90165590Y-64079878D02*
X90165590Y-63934878D01*
X90165590Y-58929878D02*
X90165590Y-59074878D01*
X94315590Y-58929878D02*
X94315590Y-58979878D01*
G04 #@! TO.C,Q1*
X94442590Y-48007878D02*
X94442590Y-48057878D01*
X90292590Y-48007878D02*
X90292590Y-48152878D01*
X90292590Y-53157878D02*
X90292590Y-53012878D01*
X94442590Y-53157878D02*
X94442590Y-53012878D01*
X94442590Y-48007878D02*
X90292590Y-48007878D01*
X94442590Y-53157878D02*
X90292590Y-53157878D01*
X94442590Y-48057878D02*
X95842590Y-48057878D01*
G04 #@! TO.C,Q7*
X94569590Y-67819878D02*
X94569590Y-67869878D01*
X90419590Y-67819878D02*
X90419590Y-67964878D01*
X90419590Y-72969878D02*
X90419590Y-72824878D01*
X94569590Y-72969878D02*
X94569590Y-72824878D01*
X94569590Y-67819878D02*
X90419590Y-67819878D01*
X94569590Y-72969878D02*
X90419590Y-72969878D01*
X94569590Y-67869878D02*
X95969590Y-67869878D01*
D10*
G04 #@! TO.C,Q8*
X110403590Y-69180878D02*
X110403590Y-68250878D01*
X110403590Y-66020878D02*
X110403590Y-66950878D01*
X110403590Y-66020878D02*
X113563590Y-66020878D01*
X110403590Y-69180878D02*
X111863590Y-69180878D01*
G04 #@! TO.C,R7*
X132297590Y-97961130D02*
X132297590Y-97438626D01*
X133717590Y-97961130D02*
X133717590Y-97438626D01*
G04 #@! TO.C,R6*
X136257590Y-97961130D02*
X136257590Y-97438626D01*
X134837590Y-97961130D02*
X134837590Y-97438626D01*
G04 #@! TO.C,D1*
X157165590Y-84246878D02*
X157165590Y-88546878D01*
X157165590Y-88546878D02*
X149865590Y-88546878D01*
X157165590Y-84246878D02*
X149865590Y-84246878D01*
G04 #@! TO.C,F1*
X166665590Y-93807630D02*
X166665590Y-89400126D01*
X161325590Y-93807630D02*
X161325590Y-89400126D01*
G04 #@! TO.C,R2*
X105072548Y-60019000D02*
X105595052Y-60019000D01*
X105072548Y-58599000D02*
X105595052Y-58599000D01*
G04 #@! TO.C,R4*
X105072548Y-63933000D02*
X105595052Y-63933000D01*
X105072548Y-65353000D02*
X105595052Y-65353000D01*
G04 #@! TO.C,C5*
X129494648Y-46963400D02*
X130017152Y-46963400D01*
X129494648Y-45543400D02*
X130017152Y-45543400D01*
G04 #@! TO.C,C4*
X144571842Y-97738000D02*
X144049338Y-97738000D01*
X144571842Y-96318000D02*
X144049338Y-96318000D01*
G04 #@! TO.C,C2*
X130841338Y-53451878D02*
X131363842Y-53451878D01*
X130841338Y-52031878D02*
X131363842Y-52031878D01*
G04 #@! TO.C,R1*
X105072548Y-56008200D02*
X105595052Y-56008200D01*
X105072548Y-57428200D02*
X105595052Y-57428200D01*
G04 #@! TO.C,C7*
X107995842Y-85432878D02*
X107473338Y-85432878D01*
X107995842Y-86852878D02*
X107473338Y-86852878D01*
G04 #@! TO.C,C6*
X96356590Y-101009130D02*
X96356590Y-100486626D01*
X97776590Y-101009130D02*
X97776590Y-100486626D01*
G04 #@! TO.C,R5*
X105187338Y-68056878D02*
X105709842Y-68056878D01*
X105187338Y-66636878D02*
X105709842Y-66636878D01*
G04 #@! TO.C,C1*
X168587840Y-90035128D02*
X168587840Y-89247628D01*
X168194090Y-89641378D02*
X168981590Y-89641378D01*
X169221590Y-85448315D02*
X170286027Y-84383878D01*
X169221590Y-90139441D02*
X170286027Y-91203878D01*
X169221590Y-90139441D02*
X169221590Y-88853878D01*
X169221590Y-85448315D02*
X169221590Y-86733878D01*
X170286027Y-84383878D02*
X176041590Y-84383878D01*
X170286027Y-91203878D02*
X176041590Y-91203878D01*
X176041590Y-91203878D02*
X176041590Y-88853878D01*
X176041590Y-84383878D02*
X176041590Y-86733878D01*
G04 #@! TO.C,R3*
X105072548Y-62711400D02*
X105595052Y-62711400D01*
X105072548Y-61291400D02*
X105595052Y-61291400D01*
D11*
G04 #@! TO.C,U2*
X99309590Y-86782878D02*
X99309590Y-86757878D01*
X103459590Y-86782878D02*
X103459590Y-86667878D01*
X103459590Y-77882878D02*
X103459590Y-77997878D01*
X99309590Y-77882878D02*
X99309590Y-77997878D01*
X99309590Y-86782878D02*
X103459590Y-86782878D01*
X99309590Y-77882878D02*
X103459590Y-77882878D01*
X99309590Y-86757878D02*
X97934590Y-86757878D01*
D10*
G04 #@! TO.C,C3*
X162617590Y-73334878D02*
X164967590Y-73334878D01*
X169437590Y-73334878D02*
X167087590Y-73334878D01*
X169437590Y-79090441D02*
X169437590Y-73334878D01*
X162617590Y-79090441D02*
X162617590Y-73334878D01*
X163682027Y-80154878D02*
X164967590Y-80154878D01*
X168373153Y-80154878D02*
X167087590Y-80154878D01*
X168373153Y-80154878D02*
X169437590Y-79090441D01*
X163682027Y-80154878D02*
X162617590Y-79090441D01*
X167875090Y-81182378D02*
X167875090Y-80394878D01*
X168268840Y-80788628D02*
X167481340Y-80788628D01*
G04 #@! TO.C,Q3*
D11*
X111258828Y-54218497D02*
X111354066Y-54170878D01*
X111449304Y-54075639D01*
X111592161Y-53932782D01*
X111687399Y-53885163D01*
X111782637Y-53885163D01*
X111735018Y-54123258D02*
X111830256Y-54075639D01*
X111925494Y-53980401D01*
X111973113Y-53789925D01*
X111973113Y-53456592D01*
X111925494Y-53266116D01*
X111830256Y-53170878D01*
X111735018Y-53123258D01*
X111544542Y-53123258D01*
X111449304Y-53170878D01*
X111354066Y-53266116D01*
X111306447Y-53456592D01*
X111306447Y-53789925D01*
X111354066Y-53980401D01*
X111449304Y-54075639D01*
X111544542Y-54123258D01*
X111735018Y-54123258D01*
X110973113Y-53123258D02*
X110354066Y-53123258D01*
X110687399Y-53504211D01*
X110544542Y-53504211D01*
X110449304Y-53551830D01*
X110401685Y-53599449D01*
X110354066Y-53694687D01*
X110354066Y-53932782D01*
X110401685Y-54028020D01*
X110449304Y-54075639D01*
X110544542Y-54123258D01*
X110830256Y-54123258D01*
X110925494Y-54075639D01*
X110973113Y-54028020D01*
G04 #@! TO.C,Q2*
X111282828Y-50215497D02*
X111378066Y-50167878D01*
X111473304Y-50072639D01*
X111616161Y-49929782D01*
X111711399Y-49882163D01*
X111806637Y-49882163D01*
X111759018Y-50120258D02*
X111854256Y-50072639D01*
X111949494Y-49977401D01*
X111997113Y-49786925D01*
X111997113Y-49453592D01*
X111949494Y-49263116D01*
X111854256Y-49167878D01*
X111759018Y-49120258D01*
X111568542Y-49120258D01*
X111473304Y-49167878D01*
X111378066Y-49263116D01*
X111330447Y-49453592D01*
X111330447Y-49786925D01*
X111378066Y-49977401D01*
X111473304Y-50072639D01*
X111568542Y-50120258D01*
X111759018Y-50120258D01*
X110949494Y-49215497D02*
X110901875Y-49167878D01*
X110806637Y-49120258D01*
X110568542Y-49120258D01*
X110473304Y-49167878D01*
X110425685Y-49215497D01*
X110378066Y-49310735D01*
X110378066Y-49405973D01*
X110425685Y-49548830D01*
X110997113Y-50120258D01*
X110378066Y-50120258D01*
G04 #@! TO.C,Q5*
X111258828Y-58028497D02*
X111354066Y-57980878D01*
X111449304Y-57885639D01*
X111592161Y-57742782D01*
X111687399Y-57695163D01*
X111782637Y-57695163D01*
X111735018Y-57933258D02*
X111830256Y-57885639D01*
X111925494Y-57790401D01*
X111973113Y-57599925D01*
X111973113Y-57266592D01*
X111925494Y-57076116D01*
X111830256Y-56980878D01*
X111735018Y-56933258D01*
X111544542Y-56933258D01*
X111449304Y-56980878D01*
X111354066Y-57076116D01*
X111306447Y-57266592D01*
X111306447Y-57599925D01*
X111354066Y-57790401D01*
X111449304Y-57885639D01*
X111544542Y-57933258D01*
X111735018Y-57933258D01*
X110401685Y-56933258D02*
X110877875Y-56933258D01*
X110925494Y-57409449D01*
X110877875Y-57361830D01*
X110782637Y-57314211D01*
X110544542Y-57314211D01*
X110449304Y-57361830D01*
X110401685Y-57409449D01*
X110354066Y-57504687D01*
X110354066Y-57742782D01*
X110401685Y-57838020D01*
X110449304Y-57885639D01*
X110544542Y-57933258D01*
X110782637Y-57933258D01*
X110877875Y-57885639D01*
X110925494Y-57838020D01*
G04 #@! TO.C,Q6*
X111258828Y-61711497D02*
X111354066Y-61663878D01*
X111449304Y-61568639D01*
X111592161Y-61425782D01*
X111687399Y-61378163D01*
X111782637Y-61378163D01*
X111735018Y-61616258D02*
X111830256Y-61568639D01*
X111925494Y-61473401D01*
X111973113Y-61282925D01*
X111973113Y-60949592D01*
X111925494Y-60759116D01*
X111830256Y-60663878D01*
X111735018Y-60616258D01*
X111544542Y-60616258D01*
X111449304Y-60663878D01*
X111354066Y-60759116D01*
X111306447Y-60949592D01*
X111306447Y-61282925D01*
X111354066Y-61473401D01*
X111449304Y-61568639D01*
X111544542Y-61616258D01*
X111735018Y-61616258D01*
X110449304Y-60616258D02*
X110639780Y-60616258D01*
X110735018Y-60663878D01*
X110782637Y-60711497D01*
X110877875Y-60854354D01*
X110925494Y-61044830D01*
X110925494Y-61425782D01*
X110877875Y-61521020D01*
X110830256Y-61568639D01*
X110735018Y-61616258D01*
X110544542Y-61616258D01*
X110449304Y-61568639D01*
X110401685Y-61521020D01*
X110354066Y-61425782D01*
X110354066Y-61187687D01*
X110401685Y-61092449D01*
X110449304Y-61044830D01*
X110544542Y-60997211D01*
X110735018Y-60997211D01*
X110830256Y-61044830D01*
X110877875Y-61092449D01*
X110925494Y-61187687D01*
G04 #@! TO.C,Q4*
X92335828Y-58552497D02*
X92431066Y-58504878D01*
X92526304Y-58409639D01*
X92669161Y-58266782D01*
X92764399Y-58219163D01*
X92859637Y-58219163D01*
X92812018Y-58457258D02*
X92907256Y-58409639D01*
X93002494Y-58314401D01*
X93050113Y-58123925D01*
X93050113Y-57790592D01*
X93002494Y-57600116D01*
X92907256Y-57504878D01*
X92812018Y-57457258D01*
X92621542Y-57457258D01*
X92526304Y-57504878D01*
X92431066Y-57600116D01*
X92383447Y-57790592D01*
X92383447Y-58123925D01*
X92431066Y-58314401D01*
X92526304Y-58409639D01*
X92621542Y-58457258D01*
X92812018Y-58457258D01*
X91526304Y-57790592D02*
X91526304Y-58457258D01*
X91764399Y-57409639D02*
X92002494Y-58123925D01*
X91383447Y-58123925D01*
G04 #@! TO.C,Q1*
X92462828Y-47630497D02*
X92558066Y-47582878D01*
X92653304Y-47487639D01*
X92796161Y-47344782D01*
X92891399Y-47297163D01*
X92986637Y-47297163D01*
X92939018Y-47535258D02*
X93034256Y-47487639D01*
X93129494Y-47392401D01*
X93177113Y-47201925D01*
X93177113Y-46868592D01*
X93129494Y-46678116D01*
X93034256Y-46582878D01*
X92939018Y-46535258D01*
X92748542Y-46535258D01*
X92653304Y-46582878D01*
X92558066Y-46678116D01*
X92510447Y-46868592D01*
X92510447Y-47201925D01*
X92558066Y-47392401D01*
X92653304Y-47487639D01*
X92748542Y-47535258D01*
X92939018Y-47535258D01*
X91558066Y-47535258D02*
X92129494Y-47535258D01*
X91843780Y-47535258D02*
X91843780Y-46535258D01*
X91939018Y-46678116D01*
X92034256Y-46773354D01*
X92129494Y-46820973D01*
G04 #@! TO.C,Q7*
X92589828Y-67442497D02*
X92685066Y-67394878D01*
X92780304Y-67299639D01*
X92923161Y-67156782D01*
X93018399Y-67109163D01*
X93113637Y-67109163D01*
X93066018Y-67347258D02*
X93161256Y-67299639D01*
X93256494Y-67204401D01*
X93304113Y-67013925D01*
X93304113Y-66680592D01*
X93256494Y-66490116D01*
X93161256Y-66394878D01*
X93066018Y-66347258D01*
X92875542Y-66347258D01*
X92780304Y-66394878D01*
X92685066Y-66490116D01*
X92637447Y-66680592D01*
X92637447Y-67013925D01*
X92685066Y-67204401D01*
X92780304Y-67299639D01*
X92875542Y-67347258D01*
X93066018Y-67347258D01*
X92304113Y-66347258D02*
X91637447Y-66347258D01*
X92066018Y-67347258D01*
G04 #@! TO.C,Q8*
X111258828Y-65648497D02*
X111354066Y-65600878D01*
X111449304Y-65505639D01*
X111592161Y-65362782D01*
X111687399Y-65315163D01*
X111782637Y-65315163D01*
X111735018Y-65553258D02*
X111830256Y-65505639D01*
X111925494Y-65410401D01*
X111973113Y-65219925D01*
X111973113Y-64886592D01*
X111925494Y-64696116D01*
X111830256Y-64600878D01*
X111735018Y-64553258D01*
X111544542Y-64553258D01*
X111449304Y-64600878D01*
X111354066Y-64696116D01*
X111306447Y-64886592D01*
X111306447Y-65219925D01*
X111354066Y-65410401D01*
X111449304Y-65505639D01*
X111544542Y-65553258D01*
X111735018Y-65553258D01*
X110735018Y-64981830D02*
X110830256Y-64934211D01*
X110877875Y-64886592D01*
X110925494Y-64791354D01*
X110925494Y-64743735D01*
X110877875Y-64648497D01*
X110830256Y-64600878D01*
X110735018Y-64553258D01*
X110544542Y-64553258D01*
X110449304Y-64600878D01*
X110401685Y-64648497D01*
X110354066Y-64743735D01*
X110354066Y-64791354D01*
X110401685Y-64886592D01*
X110449304Y-64934211D01*
X110544542Y-64981830D01*
X110735018Y-64981830D01*
X110830256Y-65029449D01*
X110877875Y-65077068D01*
X110925494Y-65172306D01*
X110925494Y-65362782D01*
X110877875Y-65458020D01*
X110830256Y-65505639D01*
X110735018Y-65553258D01*
X110544542Y-65553258D01*
X110449304Y-65505639D01*
X110401685Y-65458020D01*
X110354066Y-65362782D01*
X110354066Y-65172306D01*
X110401685Y-65077068D01*
X110449304Y-65029449D01*
X110544542Y-64981830D01*
G04 #@! TO.C,R7*
X135109970Y-97533211D02*
X134633780Y-97199878D01*
X135109970Y-96961782D02*
X134109970Y-96961782D01*
X134109970Y-97342735D01*
X134157590Y-97437973D01*
X134205209Y-97485592D01*
X134300447Y-97533211D01*
X134443304Y-97533211D01*
X134538542Y-97485592D01*
X134586161Y-97437973D01*
X134633780Y-97342735D01*
X134633780Y-96961782D01*
X134109970Y-97866544D02*
X134109970Y-98533211D01*
X135109970Y-98104639D01*
G04 #@! TO.C,R6*
X137649970Y-97533211D02*
X137173780Y-97199878D01*
X137649970Y-96961782D02*
X136649970Y-96961782D01*
X136649970Y-97342735D01*
X136697590Y-97437973D01*
X136745209Y-97485592D01*
X136840447Y-97533211D01*
X136983304Y-97533211D01*
X137078542Y-97485592D01*
X137126161Y-97437973D01*
X137173780Y-97342735D01*
X137173780Y-96961782D01*
X136649970Y-98390354D02*
X136649970Y-98199878D01*
X136697590Y-98104639D01*
X136745209Y-98057020D01*
X136888066Y-97961782D01*
X137078542Y-97914163D01*
X137459494Y-97914163D01*
X137554732Y-97961782D01*
X137602351Y-98009401D01*
X137649970Y-98104639D01*
X137649970Y-98295116D01*
X137602351Y-98390354D01*
X137554732Y-98437973D01*
X137459494Y-98485592D01*
X137221399Y-98485592D01*
X137126161Y-98437973D01*
X137078542Y-98390354D01*
X137030923Y-98295116D01*
X137030923Y-98104639D01*
X137078542Y-98009401D01*
X137126161Y-97961782D01*
X137221399Y-97914163D01*
G04 #@! TO.C,D1*
X153303685Y-83849258D02*
X153303685Y-82849258D01*
X153065590Y-82849258D01*
X152922732Y-82896878D01*
X152827494Y-82992116D01*
X152779875Y-83087354D01*
X152732256Y-83277830D01*
X152732256Y-83420687D01*
X152779875Y-83611163D01*
X152827494Y-83706401D01*
X152922732Y-83801639D01*
X153065590Y-83849258D01*
X153303685Y-83849258D01*
X151779875Y-83849258D02*
X152351304Y-83849258D01*
X152065590Y-83849258D02*
X152065590Y-82849258D01*
X152160828Y-82992116D01*
X152256066Y-83087354D01*
X152351304Y-83134973D01*
G04 #@! TO.C,F1*
X167604161Y-91270544D02*
X167604161Y-90937211D01*
X168127970Y-90937211D02*
X167127970Y-90937211D01*
X167127970Y-91413401D01*
X168127970Y-92318163D02*
X168127970Y-91746735D01*
X168127970Y-92032449D02*
X167127970Y-92032449D01*
X167270828Y-91937211D01*
X167366066Y-91841973D01*
X167413685Y-91746735D01*
G04 #@! TO.C,R2*
X105500466Y-61411380D02*
X105833800Y-60935190D01*
X106071895Y-61411380D02*
X106071895Y-60411380D01*
X105690942Y-60411380D01*
X105595704Y-60459000D01*
X105548085Y-60506619D01*
X105500466Y-60601857D01*
X105500466Y-60744714D01*
X105548085Y-60839952D01*
X105595704Y-60887571D01*
X105690942Y-60935190D01*
X106071895Y-60935190D01*
X105119514Y-60506619D02*
X105071895Y-60459000D01*
X104976657Y-60411380D01*
X104738561Y-60411380D01*
X104643323Y-60459000D01*
X104595704Y-60506619D01*
X104548085Y-60601857D01*
X104548085Y-60697095D01*
X104595704Y-60839952D01*
X105167133Y-61411380D01*
X104548085Y-61411380D01*
G04 #@! TO.C,R4*
X105500466Y-66745380D02*
X105833800Y-66269190D01*
X106071895Y-66745380D02*
X106071895Y-65745380D01*
X105690942Y-65745380D01*
X105595704Y-65793000D01*
X105548085Y-65840619D01*
X105500466Y-65935857D01*
X105500466Y-66078714D01*
X105548085Y-66173952D01*
X105595704Y-66221571D01*
X105690942Y-66269190D01*
X106071895Y-66269190D01*
X104643323Y-66078714D02*
X104643323Y-66745380D01*
X104881419Y-65697761D02*
X105119514Y-66412047D01*
X104500466Y-66412047D01*
G04 #@! TO.C,C5*
X129922566Y-48260542D02*
X129970185Y-48308161D01*
X130113042Y-48355780D01*
X130208280Y-48355780D01*
X130351138Y-48308161D01*
X130446376Y-48212923D01*
X130493995Y-48117685D01*
X130541614Y-47927209D01*
X130541614Y-47784352D01*
X130493995Y-47593876D01*
X130446376Y-47498638D01*
X130351138Y-47403400D01*
X130208280Y-47355780D01*
X130113042Y-47355780D01*
X129970185Y-47403400D01*
X129922566Y-47451019D01*
X129017804Y-47355780D02*
X129493995Y-47355780D01*
X129541614Y-47831971D01*
X129493995Y-47784352D01*
X129398757Y-47736733D01*
X129160661Y-47736733D01*
X129065423Y-47784352D01*
X129017804Y-47831971D01*
X128970185Y-47927209D01*
X128970185Y-48165304D01*
X129017804Y-48260542D01*
X129065423Y-48308161D01*
X129160661Y-48355780D01*
X129398757Y-48355780D01*
X129493995Y-48308161D01*
X129541614Y-48260542D01*
G04 #@! TO.C,C4*
X144477256Y-95735142D02*
X144524875Y-95782761D01*
X144667732Y-95830380D01*
X144762970Y-95830380D01*
X144905828Y-95782761D01*
X145001066Y-95687523D01*
X145048685Y-95592285D01*
X145096304Y-95401809D01*
X145096304Y-95258952D01*
X145048685Y-95068476D01*
X145001066Y-94973238D01*
X144905828Y-94878000D01*
X144762970Y-94830380D01*
X144667732Y-94830380D01*
X144524875Y-94878000D01*
X144477256Y-94925619D01*
X143620113Y-95163714D02*
X143620113Y-95830380D01*
X143858209Y-94782761D02*
X144096304Y-95497047D01*
X143477256Y-95497047D01*
G04 #@! TO.C,C2*
X131269256Y-54749020D02*
X131316875Y-54796639D01*
X131459732Y-54844258D01*
X131554970Y-54844258D01*
X131697828Y-54796639D01*
X131793066Y-54701401D01*
X131840685Y-54606163D01*
X131888304Y-54415687D01*
X131888304Y-54272830D01*
X131840685Y-54082354D01*
X131793066Y-53987116D01*
X131697828Y-53891878D01*
X131554970Y-53844258D01*
X131459732Y-53844258D01*
X131316875Y-53891878D01*
X131269256Y-53939497D01*
X130888304Y-53939497D02*
X130840685Y-53891878D01*
X130745447Y-53844258D01*
X130507351Y-53844258D01*
X130412113Y-53891878D01*
X130364494Y-53939497D01*
X130316875Y-54034735D01*
X130316875Y-54129973D01*
X130364494Y-54272830D01*
X130935923Y-54844258D01*
X130316875Y-54844258D01*
G04 #@! TO.C,R1*
X105500466Y-58820580D02*
X105833800Y-58344390D01*
X106071895Y-58820580D02*
X106071895Y-57820580D01*
X105690942Y-57820580D01*
X105595704Y-57868200D01*
X105548085Y-57915819D01*
X105500466Y-58011057D01*
X105500466Y-58153914D01*
X105548085Y-58249152D01*
X105595704Y-58296771D01*
X105690942Y-58344390D01*
X106071895Y-58344390D01*
X104548085Y-58820580D02*
X105119514Y-58820580D01*
X104833800Y-58820580D02*
X104833800Y-57820580D01*
X104929038Y-57963438D01*
X105024276Y-58058676D01*
X105119514Y-58106295D01*
G04 #@! TO.C,C7*
X107901256Y-84850020D02*
X107948875Y-84897639D01*
X108091732Y-84945258D01*
X108186970Y-84945258D01*
X108329828Y-84897639D01*
X108425066Y-84802401D01*
X108472685Y-84707163D01*
X108520304Y-84516687D01*
X108520304Y-84373830D01*
X108472685Y-84183354D01*
X108425066Y-84088116D01*
X108329828Y-83992878D01*
X108186970Y-83945258D01*
X108091732Y-83945258D01*
X107948875Y-83992878D01*
X107901256Y-84040497D01*
X107567923Y-83945258D02*
X106901256Y-83945258D01*
X107329828Y-84945258D01*
G04 #@! TO.C,C6*
X99073732Y-100581211D02*
X99121351Y-100533592D01*
X99168970Y-100390735D01*
X99168970Y-100295497D01*
X99121351Y-100152639D01*
X99026113Y-100057401D01*
X98930875Y-100009782D01*
X98740399Y-99962163D01*
X98597542Y-99962163D01*
X98407066Y-100009782D01*
X98311828Y-100057401D01*
X98216590Y-100152639D01*
X98168970Y-100295497D01*
X98168970Y-100390735D01*
X98216590Y-100533592D01*
X98264209Y-100581211D01*
X98168970Y-101438354D02*
X98168970Y-101247878D01*
X98216590Y-101152639D01*
X98264209Y-101105020D01*
X98407066Y-101009782D01*
X98597542Y-100962163D01*
X98978494Y-100962163D01*
X99073732Y-101009782D01*
X99121351Y-101057401D01*
X99168970Y-101152639D01*
X99168970Y-101343116D01*
X99121351Y-101438354D01*
X99073732Y-101485973D01*
X98978494Y-101533592D01*
X98740399Y-101533592D01*
X98645161Y-101485973D01*
X98597542Y-101438354D01*
X98549923Y-101343116D01*
X98549923Y-101152639D01*
X98597542Y-101057401D01*
X98645161Y-101009782D01*
X98740399Y-100962163D01*
G04 #@! TO.C,R5*
X105285056Y-69335958D02*
X105618390Y-68859768D01*
X105856485Y-69335958D02*
X105856485Y-68335958D01*
X105475532Y-68335958D01*
X105380294Y-68383578D01*
X105332675Y-68431197D01*
X105285056Y-68526435D01*
X105285056Y-68669292D01*
X105332675Y-68764530D01*
X105380294Y-68812149D01*
X105475532Y-68859768D01*
X105856485Y-68859768D01*
X104380294Y-68335958D02*
X104856485Y-68335958D01*
X104904104Y-68812149D01*
X104856485Y-68764530D01*
X104761247Y-68716911D01*
X104523151Y-68716911D01*
X104427913Y-68764530D01*
X104380294Y-68812149D01*
X104332675Y-68907387D01*
X104332675Y-69145482D01*
X104380294Y-69240720D01*
X104427913Y-69288339D01*
X104523151Y-69335958D01*
X104761247Y-69335958D01*
X104856485Y-69288339D01*
X104904104Y-69240720D01*
G04 #@! TO.C,C1*
X172798256Y-92501020D02*
X172845875Y-92548639D01*
X172988732Y-92596258D01*
X173083970Y-92596258D01*
X173226828Y-92548639D01*
X173322066Y-92453401D01*
X173369685Y-92358163D01*
X173417304Y-92167687D01*
X173417304Y-92024830D01*
X173369685Y-91834354D01*
X173322066Y-91739116D01*
X173226828Y-91643878D01*
X173083970Y-91596258D01*
X172988732Y-91596258D01*
X172845875Y-91643878D01*
X172798256Y-91691497D01*
X171845875Y-92596258D02*
X172417304Y-92596258D01*
X172131590Y-92596258D02*
X172131590Y-91596258D01*
X172226828Y-91739116D01*
X172322066Y-91834354D01*
X172417304Y-91881973D01*
G04 #@! TO.C,R3*
X105500466Y-64103780D02*
X105833800Y-63627590D01*
X106071895Y-64103780D02*
X106071895Y-63103780D01*
X105690942Y-63103780D01*
X105595704Y-63151400D01*
X105548085Y-63199019D01*
X105500466Y-63294257D01*
X105500466Y-63437114D01*
X105548085Y-63532352D01*
X105595704Y-63579971D01*
X105690942Y-63627590D01*
X106071895Y-63627590D01*
X105167133Y-63103780D02*
X104548085Y-63103780D01*
X104881419Y-63484733D01*
X104738561Y-63484733D01*
X104643323Y-63532352D01*
X104595704Y-63579971D01*
X104548085Y-63675209D01*
X104548085Y-63913304D01*
X104595704Y-64008542D01*
X104643323Y-64056161D01*
X104738561Y-64103780D01*
X105024276Y-64103780D01*
X105119514Y-64056161D01*
X105167133Y-64008542D01*
G04 #@! TO.C,U2*
X102146494Y-87160258D02*
X102146494Y-87969782D01*
X102098875Y-88065020D01*
X102051256Y-88112639D01*
X101956018Y-88160258D01*
X101765542Y-88160258D01*
X101670304Y-88112639D01*
X101622685Y-88065020D01*
X101575066Y-87969782D01*
X101575066Y-87160258D01*
X101146494Y-87255497D02*
X101098875Y-87207878D01*
X101003637Y-87160258D01*
X100765542Y-87160258D01*
X100670304Y-87207878D01*
X100622685Y-87255497D01*
X100575066Y-87350735D01*
X100575066Y-87445973D01*
X100622685Y-87588830D01*
X101194113Y-88160258D01*
X100575066Y-88160258D01*
G04 #@! TO.C,C3*
X170734732Y-76578211D02*
X170782351Y-76530592D01*
X170829970Y-76387735D01*
X170829970Y-76292497D01*
X170782351Y-76149639D01*
X170687113Y-76054401D01*
X170591875Y-76006782D01*
X170401399Y-75959163D01*
X170258542Y-75959163D01*
X170068066Y-76006782D01*
X169972828Y-76054401D01*
X169877590Y-76149639D01*
X169829970Y-76292497D01*
X169829970Y-76387735D01*
X169877590Y-76530592D01*
X169925209Y-76578211D01*
X169829970Y-76911544D02*
X169829970Y-77530592D01*
X170210923Y-77197258D01*
X170210923Y-77340116D01*
X170258542Y-77435354D01*
X170306161Y-77482973D01*
X170401399Y-77530592D01*
X170639494Y-77530592D01*
X170734732Y-77482973D01*
X170782351Y-77435354D01*
X170829970Y-77340116D01*
X170829970Y-77054401D01*
X170782351Y-76959163D01*
X170734732Y-76911544D01*
G04 #@! TD*
M02*
